<svg width="24" height="24" viewBox="0 0 24 24" fill="none" xmlns="http://www.w3.org/2000/svg">
<path d="M16.405 5.50052C16.29 5.50052 16.212 5.51452 16.131 5.53352V5.54652H16.145C16.199 5.65052 16.291 5.72652 16.359 5.81952C16.413 5.92652 16.459 6.03352 16.513 6.13952L16.527 6.12452C16.621 6.05852 16.667 5.95252 16.667 5.79152C16.627 5.74452 16.621 5.69752 16.587 5.65152C16.547 5.58452 16.461 5.55152 16.407 5.49852L16.405 5.50052ZM5.77 18.6945H4.843C4.81675 17.2213 4.72666 15.7499 4.573 14.2845H4.565L3.155 18.6945H2.45L1.05 14.2845H1.04C0.930559 15.7522 0.86553 17.2229 0.845 18.6945H0C0.0553333 16.7279 0.192 14.8845 0.41 13.1645H1.56L2.895 17.2285H2.903L4.25 13.1645H5.345C5.587 15.1805 5.72967 17.0239 5.773 18.6945H5.77ZM9.787 14.6145C9.409 16.6605 8.91167 18.1472 8.295 19.0745C7.813 19.7905 7.28533 20.1482 6.712 20.1475C6.56 20.1475 6.37133 20.1015 6.146 20.0095V19.5155C6.25667 19.5329 6.38533 19.5415 6.532 19.5415C6.8 19.5415 7.01567 19.4675 7.179 19.3195C7.37567 19.1395 7.474 18.9379 7.474 18.7145C7.474 18.5592 7.39733 18.2445 7.244 17.7705L6.23 14.6145H7.14L7.867 16.9745C8.03167 17.5105 8.1 17.8849 8.072 18.0975C8.472 17.0322 8.75033 15.8712 8.907 14.6145H9.787ZM22.112 18.6945H19.482V13.1645H20.367V18.0145H22.112V18.6945ZM18.792 18.8295L17.776 18.3295C17.8667 18.2542 17.9517 18.1709 18.031 18.0795C18.4637 17.5729 18.6797 16.8219 18.679 15.8265C18.679 13.9965 17.9607 13.0812 16.524 13.0805C15.82 13.0805 15.27 13.3129 14.874 13.7775C14.4433 14.2855 14.228 15.0339 14.228 16.0225C14.2273 16.9952 14.4187 17.7085 14.802 18.1625C15.1513 18.5725 15.679 18.7775 16.385 18.7775C16.649 18.7775 16.8907 18.7449 17.11 18.6795L18.435 19.4515L18.795 18.8295H18.792ZM15.5 17.5875C15.2753 17.2269 15.163 16.6482 15.163 15.8515C15.163 14.4582 15.5863 13.7615 16.433 13.7615C16.877 13.7615 17.2027 13.9282 17.41 14.2615C17.634 14.6235 17.746 15.1979 17.746 15.9845C17.746 17.3892 17.3227 18.0919 16.476 18.0925C16.0313 18.0925 15.7053 17.9259 15.498 17.5925L15.5 17.5875ZM13.842 17.1625C13.842 17.6332 13.67 18.0185 13.326 18.3185C12.9833 18.6185 12.522 18.7685 11.942 18.7685C11.399 18.7685 10.878 18.5965 10.369 18.2535L10.606 17.7775C11.0433 17.9969 11.44 18.1062 11.796 18.1055C12.128 18.1055 12.389 18.0322 12.579 17.8855C12.6742 17.8142 12.7511 17.7212 12.8032 17.6142C12.8554 17.5073 12.8814 17.3895 12.879 17.2705C12.879 16.9405 12.649 16.6605 12.231 16.4255C11.843 16.2125 11.068 15.7685 11.068 15.7685C10.646 15.4615 10.436 15.1325 10.436 14.5915C10.436 14.1422 10.5927 13.7805 10.906 13.5065C11.22 13.2292 11.6267 13.0909 12.126 13.0915C12.6387 13.0915 13.1053 13.2282 13.526 13.5015L13.313 13.9775C12.9776 13.8294 12.6156 13.7512 12.249 13.7475C11.9657 13.7475 11.7477 13.8162 11.595 13.9535C11.5181 14.0176 11.4561 14.0977 11.4133 14.1882C11.3705 14.2787 11.3479 14.3774 11.347 14.4775C11.347 14.8055 11.581 15.0875 12.013 15.3275C12.406 15.5425 13.2 15.9975 13.2 15.9975C13.633 16.3025 13.848 16.6275 13.848 17.1655L13.842 17.1625ZM23.224 11.3105C22.689 11.2965 22.274 11.3505 21.927 11.4985C21.827 11.5385 21.667 11.5385 21.653 11.6655C21.708 11.7185 21.716 11.8055 21.763 11.8795C21.843 12.0135 21.981 12.1925 22.109 12.2865C22.2477 12.3979 22.39 12.5012 22.536 12.5965C22.796 12.7565 23.091 12.8515 23.346 13.0125C23.491 13.1065 23.639 13.2255 23.786 13.3255C23.859 13.3755 23.906 13.4655 24 13.4975V13.4775C23.954 13.4175 23.94 13.3305 23.895 13.2635C23.828 13.1965 23.761 13.1365 23.695 13.0705C23.4989 12.8115 23.2646 12.5839 23 12.3955C22.786 12.2495 22.318 12.0455 22.23 11.8005L22.217 11.7865C22.363 11.7735 22.537 11.7205 22.677 11.6805C22.904 11.6205 23.112 11.6335 23.347 11.5745C23.4537 11.5465 23.5603 11.5152 23.667 11.4805V11.4205C23.547 11.3005 23.457 11.1375 23.333 11.0255C22.9866 10.7234 22.6175 10.4483 22.229 10.2025C22.019 10.0685 21.753 9.98252 21.532 9.86852C21.452 9.82852 21.318 9.80852 21.272 9.74152C21.152 9.59552 21.082 9.40152 20.997 9.22752C20.8009 8.84649 20.6184 8.45857 20.45 8.06452C20.33 7.80252 20.257 7.54152 20.11 7.30152C19.42 6.16452 18.673 5.47552 17.524 4.80152C17.277 4.66152 16.981 4.60152 16.668 4.52752C16.501 4.51952 16.334 4.50752 16.168 4.50052C16.058 4.45352 15.952 4.32652 15.858 4.26552C15.478 4.02552 14.494 3.50552 14.214 4.19352C14.034 4.62752 14.481 5.05552 14.636 5.27552C14.751 5.42852 14.896 5.60352 14.976 5.77552C15.023 5.89152 15.036 6.01052 15.083 6.13152C15.189 6.42552 15.29 6.75352 15.43 7.02852C15.503 7.16852 15.583 7.31552 15.677 7.44152C15.731 7.51452 15.823 7.54852 15.844 7.66852C15.75 7.80452 15.744 8.00252 15.69 8.16852C15.45 8.92552 15.544 9.86152 15.884 10.4185C15.991 10.5845 16.246 10.9525 16.587 10.8115C16.887 10.6915 16.821 10.3115 16.907 9.97652C16.927 9.89652 16.914 9.84352 16.955 9.78952V9.80452C17.049 9.99252 17.143 10.1715 17.229 10.3595C17.435 10.6875 17.795 11.0275 18.096 11.2545C18.256 11.3745 18.383 11.5825 18.583 11.6565V11.6365H18.568C18.525 11.5785 18.468 11.5505 18.414 11.5035C18.2874 11.3792 18.1704 11.2455 18.064 11.1035C17.7831 10.718 17.5333 10.3107 17.317 9.88552C17.207 9.67552 17.115 9.44952 17.027 9.24252C16.987 9.16252 16.987 9.04252 16.92 9.00252C16.82 9.14852 16.673 9.27552 16.6 9.45552C16.473 9.74352 16.46 10.0975 16.412 10.4655C16.385 10.4725 16.398 10.4655 16.385 10.4795C16.171 10.4275 16.098 10.2055 16.018 10.0195C15.818 9.54452 15.785 8.78152 15.958 8.23452C16.005 8.09452 16.205 7.65252 16.125 7.51852C16.083 7.39152 15.951 7.31852 15.878 7.21552C15.7842 7.08138 15.7038 6.93836 15.638 6.78852C15.478 6.41452 15.398 6.00052 15.224 5.62652C15.144 5.45352 15.004 5.27252 14.89 5.11352C14.763 4.93352 14.623 4.80652 14.522 4.59352C14.489 4.52052 14.442 4.39952 14.495 4.31952C14.509 4.26552 14.537 4.24452 14.589 4.22952C14.677 4.15752 14.924 4.25152 15.011 4.29152C15.258 4.39152 15.466 4.48552 15.673 4.62552C15.767 4.69152 15.868 4.81852 15.988 4.85152H16.128C16.342 4.89852 16.583 4.86552 16.783 4.92452C17.138 5.03852 17.458 5.20452 17.745 5.38452C18.6294 5.94932 19.3487 6.73799 19.83 7.67052C19.91 7.82452 19.945 7.96552 20.018 8.12552C20.158 8.45552 20.331 8.78852 20.473 9.10752C20.613 9.42252 20.748 9.74352 20.949 10.0045C21.049 10.1445 21.451 10.2175 21.631 10.2905C21.764 10.3505 21.971 10.4055 22.091 10.4785C22.321 10.6185 22.545 10.7785 22.761 10.9325C22.871 11.0085 23.204 11.1755 23.224 11.3105Z" fill="white"/>
</svg>
