<svg width="22" height="20" viewBox="0 0 22 20" fill="none" xmlns="http://www.w3.org/2000/svg">
<path d="M20.8802 8.40999C19.8636 9.25937 18.5518 9.67107 17.2321 9.55485C15.9125 9.43863 14.6928 8.80398 13.8403 7.78999C12.0603 5.66999 12.3403 2.49999 14.4503 0.749985L14.9602 0.369985C14.1329 1.26712 13.6603 2.43476 13.6309 3.65483C13.6014 4.87491 14.0171 6.06398 14.8002 6.99999C16.4302 8.93999 19.2502 9.31999 21.3403 7.96999L20.8802 8.40999ZM19.1003 12.5C18.3473 13.1349 17.4764 13.6148 16.5376 13.9123C15.5987 14.2097 14.6103 14.3189 13.6292 14.2334C12.648 14.1479 11.6934 13.8695 10.8201 13.4142C9.94681 12.9588 9.17204 12.3355 8.54025 11.58C5.87025 8.40999 6.29025 3.67999 9.46025 0.999985L10.3802 0.359985C9.19232 1.7056 8.52682 3.43289 8.5048 5.22771C8.48277 7.02253 9.10569 8.76563 10.2603 10.14C12.6803 13 16.8002 13.63 19.9102 11.72L19.1003 12.5ZM17.9702 17.38C13.5302 21.11 6.90025 20.53 3.17025 16.08C-0.54975 11.64 0.0302494 4.99999 4.47025 1.28999L5.58025 0.499985C2.07025 4.29999 1.85025 10.23 5.28025 14.32C8.71025 18.4 14.5902 19.22 18.9602 16.43L17.9702 17.38Z" fill="black"/>
</svg>
