<svg width="30" height="40" viewBox="0 0 30 40" fill="none" xmlns="http://www.w3.org/2000/svg">
<g clip-path="url(#clip0_277_296)">
<path d="M10.1131 22.0731C10.5942 21.5926 11.0307 21.1572 11.4666 20.721C11.9168 20.2704 12.3697 19.8222 12.8141 19.366C12.934 19.2428 13.0082 19.2515 13.1271 19.3722C13.8668 20.1223 14.6121 20.8676 15.3621 21.6076C15.4929 21.7363 15.5028 21.8157 15.3668 21.9511C12.875 24.4358 10.3871 26.9243 7.90136 29.4153C7.79045 29.5266 7.71958 29.5395 7.60292 29.422C6.84299 28.656 6.07607 27.897 5.3131 27.1342C4.53629 26.357 3.76208 25.5781 2.98565 24.8012C2.01147 23.8264 1.0374 22.8514 0.0589798 21.8812C-0.036445 21.7866 -0.00418413 21.7394 0.0715257 21.664C0.642445 21.0957 1.20978 20.5238 1.77929 19.9542C1.97693 19.7567 2.18564 19.5695 2.37421 19.3636C2.4881 19.2391 2.55746 19.2552 2.66842 19.3674C3.48309 20.1903 4.30264 21.0079 5.12399 21.8239C5.18857 21.8882 5.24386 22.0229 5.34178 21.9815C5.41988 21.9486 5.37534 21.8152 5.37545 21.7274C5.37708 16.9465 5.37094 12.1658 5.38153 7.38486C5.38382 6.34545 5.44698 5.30718 5.71761 4.29276C6.22564 2.38909 7.43336 1.159 9.2921 0.545662C10.2061 0.244071 11.146 0.0941181 12.1052 0.0493114C13.6718 -0.0238459 15.2396 -0.00261016 16.8058 0.0300852C18.2069 0.059196 19.593 0.237771 20.922 0.719295C22.3254 1.2277 23.4728 2.05535 24.1972 3.39673C24.5855 4.11565 24.7965 4.88915 24.9044 5.69475C25.0092 6.4777 24.977 7.26488 24.9863 8.05104C24.9884 8.24135 24.8769 8.23635 24.7452 8.23619C23.1192 8.23488 21.4931 8.23521 19.8669 8.23521C19.8019 8.23521 19.7363 8.22945 19.6718 8.23629C19.5179 8.25243 19.4653 8.18307 19.466 8.03388C19.4684 7.5265 19.475 7.0188 19.4568 6.51202C19.4368 5.9574 19.2913 5.43085 18.9889 4.96133C18.5044 4.20863 17.7922 3.79108 16.913 3.75339C15.6595 3.69957 14.4012 3.69408 13.1482 3.756C12.2099 3.80254 11.3636 4.12287 10.7926 4.93825C10.3855 5.51948 10.2271 6.18605 10.1511 6.87911C10.1009 7.33962 10.1134 7.80115 10.1134 8.26253C10.113 12.7701 10.1132 17.2778 10.1133 21.7855C10.1131 21.8619 10.1131 21.9384 10.1131 22.0731ZM19.9237 17.7359C19.9237 22.0744 19.9237 26.4127 19.9234 30.7511C19.9234 31.3361 19.9389 31.9218 19.8852 32.5054C19.8276 33.1313 19.7032 33.7416 19.3917 34.2966C18.8674 35.2301 18.0046 35.6351 16.994 35.7159C15.7043 35.8188 14.4075 35.8077 13.1163 35.7282C11.6153 35.6356 10.716 34.5161 10.5783 33.1285C10.5233 32.5765 10.55 32.0239 10.5486 31.4719C10.5481 31.2945 10.4949 31.2332 10.315 31.236C9.73615 31.2451 9.15725 31.2394 8.57829 31.2394C7.47268 31.2392 6.36685 31.2388 5.26113 31.2392C5.15978 31.2393 5.04877 31.2134 5.05083 31.3841C5.06332 32.3644 5.00755 33.3471 5.20942 34.3186C5.38897 35.1831 5.69437 35.9924 6.21619 36.7077C6.88769 37.6277 7.79409 38.2415 8.84067 38.6607C10.2116 39.2099 11.6536 39.4148 13.1133 39.445C14.7704 39.4795 16.4296 39.5075 18.0868 39.4203C19.0587 39.3694 20.0109 39.2031 20.9279 38.8686C22.6545 38.239 23.7953 37.0609 24.2835 35.2729C24.5319 34.3631 24.6296 33.4342 24.6309 32.4958C24.6363 27.5653 24.6344 22.6351 24.6363 17.7049C24.6363 17.6194 24.6161 17.5288 24.6599 17.4391C24.6892 17.4575 24.708 17.465 24.721 17.4782C25.5842 18.3425 26.4475 19.2064 27.3088 20.0723C27.4907 20.2549 27.4913 20.2624 27.674 20.0808C28.4246 19.3326 29.171 18.5802 29.9234 17.8337C30.0271 17.7306 30.0237 17.656 29.9247 17.5588C29.6934 17.3309 29.4682 17.0966 29.2381 16.8674C28.1344 15.7661 27.029 14.6663 25.9256 13.5644C24.7533 12.3938 23.5811 11.223 22.4136 10.0475C22.2998 9.93281 22.2287 9.95068 22.1277 10.0528C21.3497 10.8376 20.5703 11.6207 19.7885 12.4018C18.0784 14.1109 16.3673 15.8194 14.6536 17.5251C14.5264 17.6519 14.513 17.7372 14.6508 17.8727C15.402 18.6114 16.1473 19.3564 16.8867 20.107C17.0147 20.2372 17.0873 20.2326 17.2132 20.1054C18.0546 19.2541 18.9033 18.4103 19.7508 17.5653C19.7946 17.5219 19.8252 17.4575 19.924 17.4478C19.9237 17.5461 19.9237 17.641 19.9237 17.7359Z" fill="white"/>
</g>
<defs>
<clipPath id="clip0_277_296">
<rect width="30" height="39.4783" fill="white"/>
</clipPath>
</defs>
</svg>
