<svg width="16" height="16" viewBox="0 0 16 16" fill="none" xmlns="http://www.w3.org/2000/svg">
<path d="M1 1V15H15V1H1ZM8.5 11.875C8.5 13.2378 7.695 13.9022 6.52969 13.9022C5.47719 13.9022 4.86625 13.3572 4.55625 12.6994L5.6275 12.0509C5.83406 12.4175 5.99094 12.7275 6.44187 12.7275C6.81687 12.7275 7.125 12.5584 7.125 11.9006V7.5H8.5V11.875ZM11.6047 13.8709C10.3831 13.8709 9.59375 13.3197 9.20844 12.5584L10.2812 11.9375C10.5625 12.3981 10.9297 12.705 11.5781 12.705C12.1231 12.705 12.4397 12.4637 12.4397 12.0878C12.4397 11.6369 12.1138 11.4772 11.5122 11.2128L11.1834 11.0716C10.2341 10.6678 9.60469 10.1603 9.60469 9.08875C9.60469 8.10219 10.3562 7.38156 11.5309 7.38156C12.3675 7.38156 12.9684 7.64156 13.4012 8.40281L12.375 9.0625C12.1494 8.65844 11.9063 8.5 11.5294 8.5C11.1441 8.5 10.8997 8.74437 10.8997 9.0625C10.8997 9.45719 11.1441 9.61687 11.7078 9.86125L12.0366 10.0022C13.155 10.4816 13.7847 10.9709 13.7847 12.0697C13.785 13.2541 12.8547 13.8709 11.6047 13.8709Z" fill="white"/>
</svg>
