<svg width="15" height="16" viewBox="0 0 15 16" fill="none" xmlns="http://www.w3.org/2000/svg">
<path d="M7.57819 5.86603L5.59038 0H14.0356L12.0409 5.88309C11.955 5.90359 11.8707 5.92974 11.7883 5.96138L9.81782 1.94166L7.84163 5.93759C7.75555 5.90777 7.66753 5.88386 7.57819 5.86603ZM1.0836 15.4685C3.73988 17.3343 6.68622 13.724 10.6995 13.2692C13.0042 13.1327 14.5707 11.7218 13.6782 9.53769C12.0186 10.5598 10.4677 9.22041 10.4785 7.87634H9.21747C9.17607 9.07631 8.27347 10.0204 6.87438 9.88003C5.77925 11.5183 4.51 12.4388 3.06982 12.9067C2.09641 12.4574 1.18038 11.3632 1.59569 9.90172C1.41497 9.88153 1.2378 9.83706 1.06897 9.7695C-0.269841 12.2695 -0.435279 14.2452 1.0836 15.4685ZM3.06113 7.87653C3.06113 6.927 2.02616 6.33034 1.20269 6.80509C0.379221 7.27984 0.379159 8.47322 1.20269 8.94794C2.02616 9.42272 3.06113 8.82606 3.06113 7.87653ZM8.41763 7.86475C8.41763 6.91525 7.38263 6.31856 6.55916 6.79334C5.73569 7.26812 5.73566 8.46144 6.55916 8.93616C7.38266 9.41094 8.4176 8.81428 8.4176 7.86475M13.754 7.86475C13.754 6.91525 12.719 6.31856 11.8955 6.79334C11.072 7.26812 11.072 8.46144 11.8955 8.93616C12.719 9.41094 13.7539 8.81428 13.7539 7.86475" fill="white"/>
</svg>
