<svg width="24" height="20" viewBox="0 0 24 20" fill="none" xmlns="http://www.w3.org/2000/svg">
<path d="M5.10645 0.603394C3.76076 0.603394 2.76532 1.78164 2.80976 3.05946C2.85251 4.28683 2.79701 5.87683 2.3967 7.17321C1.99545 8.47371 1.3167 9.29552 0.208008 9.40127V10.5988C1.3167 10.7044 1.99545 11.5264 2.3967 12.8269C2.79701 14.1233 2.85232 15.7133 2.80976 16.9406C2.76513 18.2185 3.76076 19.3965 5.10645 19.3965H18.8952C20.2409 19.3965 21.2363 18.2183 21.1919 16.9406C21.1491 15.7133 21.2046 14.1233 21.6048 12.8269C22.006 11.5266 22.6831 10.7046 23.7918 10.5988V9.40127C22.6831 9.29571 22.0062 8.47371 21.6048 7.17321C21.2046 5.87683 21.1491 4.28683 21.1919 3.05946C21.2363 1.78164 20.2409 0.603394 18.895 0.603394H5.10645ZM16.0028 12.1695C16.0028 13.929 14.6899 14.9957 12.5114 14.9957H8.49476C8.48266 14.9957 8.47068 14.9934 8.4595 14.9887C8.44832 14.9841 8.43816 14.9774 8.4296 14.9688C8.42105 14.9602 8.41427 14.9501 8.40965 14.9389C8.40504 14.9277 8.40267 14.9157 8.40269 14.9036V5.09252C8.40265 5.08041 8.40499 5.0684 8.4096 5.0572C8.41421 5.046 8.42098 5.03582 8.42954 5.02724C8.43809 5.01867 8.44826 5.01187 8.45945 5.00724C8.47065 5.00261 8.48265 5.00024 8.49476 5.00027H12.4902C14.3069 5.00027 15.499 5.98389 15.499 7.49402C15.499 8.55396 14.6971 9.50271 13.6752 9.66902V9.72452C15.0661 9.87696 16.0028 10.8398 16.0028 12.1695ZM12.1069 6.26796H9.99232V9.25333H11.7736C13.1502 9.25333 13.9094 8.69927 13.9094 7.70871C13.9094 6.78058 13.2567 6.26796 12.1069 6.26796ZM9.99232 10.438V13.7282H12.1851C13.6186 13.7282 14.3779 13.1533 14.3779 12.0726C14.3779 10.992 13.5974 10.438 12.0929 10.438H9.99232Z" fill="black"/>
</svg>
