<svg width="600" height="277" viewBox="0 0 600 277" fill="none" xmlns="http://www.w3.org/2000/svg">
<path d="M600 1.2334V64.8334H491.16C488.76 64.8334 488.64 65.7934 488.64 67.7134C488.64 82.3534 488.64 97.1134 488.64 111.753C488.64 114.273 489.36 114.873 491.76 114.873H590.4C592.8 114.873 593.64 114.873 593.64 117.873C593.64 136.353 593.64 154.833 593.64 173.313C593.64 176.073 592.8 176.553 590.28 176.433H492C489.36 176.433 488.76 177.153 488.76 179.793V272.673C488.76 273.873 488.76 275.073 488.76 276.273H423V242.793C426.6 239.193 430.56 235.833 434.16 232.113C443.945 221.404 452.038 209.265 458.16 196.113C462.851 185.805 466.276 174.966 468.36 163.833C468.36 161.913 468.36 161.793 466.56 161.793C464.76 161.793 460.2 161.793 457.08 161.793C453.96 161.793 454.08 162.873 453.72 164.673C451.741 176.17 448.23 187.35 443.28 197.913C437.741 209.021 430.936 219.45 423 228.993L421.08 230.793C398.738 255.446 368.119 271.033 335.04 274.593C332.901 274.388 330.746 274.761 328.8 275.673H324.6C321.491 274.594 318.109 274.594 315 275.673H310.2C310.2 274.593 308.88 275.073 308.16 274.953C299.683 274.181 291.314 272.491 283.2 269.913C281.64 265.953 280.08 261.993 278.4 257.913L252 195.033L232.2 147.033C223.08 124.113 213.84 101.913 204 78.9934C203.04 76.8334 202.92 73.8334 200.28 72.5134L201.36 70.3534C211.072 53.4881 224.27 38.889 240.074 27.5313C255.878 16.1736 273.923 8.31858 293.005 4.49091C312.086 0.663249 331.765 0.951017 350.726 5.33503C369.688 9.71904 387.495 18.0984 402.96 29.9134C410.063 35.5557 416.759 41.6908 423 48.2734L425.64 51.8734C440.477 69.6653 450.332 91.0724 454.2 113.913C454.2 115.833 455.4 116.793 457.56 116.673C459.72 116.553 463.56 116.673 466.56 116.673C469.56 116.673 469.2 116.673 468.72 114.273C462.986 83.4835 446.896 55.58 423.12 35.1934C423.12 25.1134 423.12 15.0334 423.12 4.95339C423.12 2.19339 423.12 1.3534 426.72 1.3534H600V1.2334ZM423 138.993C423 132.273 423 125.553 423 118.833C423 116.673 423 116.313 420.36 116.313C412.2 116.313 403.92 116.313 395.76 116.313C394.712 116.49 393.636 116.249 392.762 115.644C391.888 115.039 391.284 114.117 391.08 113.073C386.245 99.7047 377.734 87.9731 366.524 79.2293C355.315 70.4855 341.865 65.085 327.721 63.6494C313.578 62.2139 299.317 64.8017 286.579 71.115C273.842 77.4282 263.147 87.2102 255.724 99.3349C248.302 111.459 244.454 125.434 244.625 139.649C244.795 153.864 248.977 167.742 256.688 179.685C264.399 191.628 275.326 201.151 288.211 207.157C301.096 213.163 315.415 215.408 329.52 213.633C343.514 212.087 356.772 206.563 367.725 197.716C378.677 188.869 386.865 177.069 391.32 163.713C391.495 162.862 391.992 162.112 392.708 161.62C393.424 161.127 394.303 160.932 395.16 161.073H420.72C422.52 161.073 423.12 161.073 423 158.793C422.88 152.313 423 145.593 423 138.993Z" fill="white"/>
<path d="M0 273.993V273.393C0.84 273.393 0.840002 272.073 1.08 271.353C36.6 181.833 72.24 92.3134 108 2.7934C108 1.9534 109.08 1.11341 108.6 0.0334097H109.8C109.8 0.0334097 110.64 0.0334097 111.12 0.0334097H142.56C145.92 0.0334097 149.28 0.0334097 152.64 0.0334097C153.555 -0.088055 154.483 0.124057 155.254 0.630906C156.026 1.13775 156.588 1.90542 156.84 2.7934C168.84 31.8334 180.84 60.7534 192.84 89.6734C200.16 107.553 207.48 125.673 214.92 143.193L240 206.913C247.8 225.873 255.48 244.713 263.28 263.553L267.36 273.753H266.28H195.84C193.92 273.753 193.44 272.913 192.84 271.473C188.4 259.473 183.72 248.433 179.28 236.793C179.134 236.039 178.704 235.37 178.079 234.923C177.453 234.477 176.681 234.287 175.92 234.393H87.84C87.1108 234.287 86.3684 234.464 85.7657 234.888C85.163 235.312 84.7458 235.951 84.6 236.673C80.16 248.673 75.6 260.673 71.16 271.833C71.1037 272.211 70.9698 272.572 70.7667 272.895C70.5636 273.218 70.2957 273.496 69.9799 273.71C69.6642 273.924 69.3074 274.071 68.9322 274.14C68.557 274.21 68.1715 274.2 67.8 274.113H0V273.993ZM132 108.513C124.68 129.633 117.72 150.153 110.52 170.553C109.68 172.953 110.52 172.593 112.44 172.593C125.88 172.593 139.2 172.593 152.64 172.593C155.28 172.593 155.28 172.593 154.56 169.833C150.12 157.833 145.8 145.833 141.48 134.553L132 108.513Z" fill="white"/>
<path d="M315 275.794C318.109 274.715 321.491 274.715 324.6 275.794H315Z" fill="#F1F1F1"/>
</svg>
