<svg width="16" height="16" viewBox="0 0 16 16" fill="none" xmlns="http://www.w3.org/2000/svg">
<path d="M15.5649 6.46862C15.386 6.94056 14.7554 7.14697 14.3321 6.68362C12.9979 5.14362 10.3832 5.128 9.65642 7.45431C9.10101 9.12803 10.4848 10.8781 12.9309 10.6567C13.4677 10.6143 13.847 11.0951 13.6784 11.6245L12.4617 14.9497C12.1533 15.7678 11.3609 16.2088 10.4238 15.9022L1.10357 12.5049C0.264353 12.2086 -0.195491 11.2942 0.0798531 10.4726L3.53185 1.03822C3.90407 0.196559 4.54648 -0.184035 5.5697 0.0856529L14.8888 3.48259C15.7299 3.78062 16.1888 4.69428 15.9137 5.51534L15.5649 6.46862ZM13.7862 8.12812C13.7862 6.87115 12.4161 6.08125 11.3259 6.70975C10.2357 7.33825 10.2357 8.918 11.3259 9.5465C12.416 10.175 13.7862 9.38512 13.7862 8.12812Z" fill="white"/>
</svg>
