<svg width="24" height="24" viewBox="0 0 24 24" fill="none" xmlns="http://www.w3.org/2000/svg">
<path d="M21.7 6.52977C21.71 6.54977 21.71 6.57977 21.71 6.60977V10.8998C21.71 10.9998 21.65 11.1198 21.56 11.1698L17.95 13.2498V17.3598C17.95 17.4698 17.9 17.5698 17.8 17.6298L10.28 21.9598C10.26 21.9698 10.24 21.9998 10.22 21.9998H10C10 21.9998 10 21.9698 9.96004 21.9598L2.44004 17.6298C2.39428 17.6011 2.35653 17.5613 2.33031 17.5141C2.30408 17.4669 2.29023 17.4138 2.29004 17.3598V4.49977C2.29004 4.44977 2.29004 4.41977 2.30004 4.39977C2.30004 4.38977 2.31004 4.37977 2.31004 4.36977C2.31004 4.34977 2.32004 4.33977 2.33004 4.31977C2.33004 4.30977 2.34004 4.29977 2.35004 4.28977L2.38004 4.25977L2.41004 4.22977C2.42004 4.21977 2.43004 4.20977 2.44004 4.20977L6.20004 2.03977C6.30004 1.99977 6.42004 1.99977 6.50004 2.03977L10.28 4.20977C10.29 4.21977 10.3 4.21977 10.31 4.22977L10.34 4.25977L10.37 4.28977C10.38 4.29977 10.39 4.30977 10.39 4.31977C10.4 4.33977 10.41 4.34977 10.41 4.36977C10.41 4.37977 10.42 4.38977 10.42 4.39977C10.43 4.42977 10.43 4.44977 10.43 4.49977V12.4998L13.57 10.7198V6.60977C13.57 6.57977 13.57 6.54977 13.58 6.52977L13.59 6.49977C13.59 6.49977 13.6 6.46977 13.61 6.44977C13.61 6.43977 13.62 6.42977 13.63 6.41977L13.66 6.38977L13.69 6.35977C13.7 6.34977 13.71 6.33977 13.72 6.33977L17.5 4.16977C17.58 4.10977 17.7 4.10977 17.8 4.16977L21.56 6.33977C21.57 6.33977 21.58 6.34977 21.59 6.35977L21.62 6.38977L21.65 6.41977C21.66 6.42977 21.66 6.43977 21.67 6.44977C21.68 6.46977 21.68 6.49977 21.69 6.49977C21.7 6.49977 21.7 6.49977 21.7 6.52977ZM21.09 10.7198V7.14977L17.95 8.94977V12.4998L21.09 10.7198ZM17.33 17.1798V13.5998L10.43 17.5398V21.1498L17.33 17.1798ZM2.91004 4.99977V17.1798L9.81004 21.1498V17.5398L6.21004 15.4998H6.20004C6.19004 15.4998 6.18004 15.4998 6.17004 15.4698C6.16004 15.4698 6.15004 15.4598 6.14004 15.4498L6.11004 15.4198C6.10004 15.4098 6.10004 15.3998 6.09004 15.3898C6.08004 15.3698 6.08004 15.3598 6.07004 15.3498C6.07004 15.3298 6.06004 15.3198 6.06004 15.3098C6.05004 15.2998 6.05004 15.2798 6.05004 15.2698V6.81977L2.91004 4.99977ZM6.36004 2.67977L3.23004 4.49977L6.36004 6.27977L9.50004 4.49977L6.36004 2.67977ZM9.81004 12.8798V4.99977L6.67004 6.81977V14.6898L9.81004 12.8798ZM17.64 4.79977L14.5 6.60977L17.64 8.40977L20.77 6.60977L17.64 4.79977ZM17.33 8.94977L14.19 7.14977V10.7198L17.33 12.4998V8.94977ZM10.12 16.9998L17 13.0598L13.88 11.2598L7.00004 15.2298L10.12 16.9998Z" fill="white"/>
</svg>
