<svg width="62" height="13" viewBox="0 0 62 13" fill="none" xmlns="http://www.w3.org/2000/svg">
<path d="M20 10V2L23 10V2M1 2H4V8.5C4 8.89782 3.84196 9.27936 3.56066 9.56066C3.27936 9.84196 2.89782 10 2.5 10C2.10218 10 1.72064 9.84196 1.43934 9.56066C1.15804 9.27936 1 8.89782 1 8.5V8M7 9C7 9.26522 7.10536 9.51957 7.29289 9.70711C7.48043 9.89464 7.73478 10 8 10H9C9.26522 10 9.51957 9.89464 9.70711 9.70711C9.89464 9.51957 10 9.26522 10 9V7C10 6.73478 9.89464 6.48043 9.70711 6.29289C9.51957 6.10536 9.26522 6 9 6H8C7.73478 6 7.48043 5.89464 7.29289 5.70711C7.10536 5.51957 7 5.26522 7 5V3C7 2.73478 7.10536 2.48043 7.29289 2.29289C7.48043 2.10536 7.73478 2 8 2H9C9.26522 2 9.51957 2.10536 9.70711 2.29289C9.89464 2.48043 10 2.73478 10 3M15 2C15.5304 2 16.0391 2.21071 16.4142 2.58579C16.7893 2.96086 17 3.46957 17 4V8C17 8.53043 16.7893 9.03914 16.4142 9.41421C16.0391 9.78929 15.5304 10 15 10C14.4696 10 13.9609 9.78929 13.5858 9.41421C13.2107 9.03914 13 8.53043 13 8V4C13 3.46957 13.2107 2.96086 13.5858 2.58579C13.9609 2.21071 14.4696 2 15 2Z" stroke="white" stroke-width="2" stroke-linecap="round" stroke-linejoin="round"/>
<path d="M31.3438 5C31.2969 4.60417 31.1068 4.29688 30.7734 4.07812C30.4401 3.85937 30.0313 3.75 29.5469 3.75C29.1927 3.75 28.8828 3.80729 28.6172 3.92187C28.3542 4.03646 28.1484 4.19401 28 4.39453C27.8542 4.59505 27.7813 4.82292 27.7813 5.07812C27.7813 5.29167 27.832 5.47526 27.9336 5.62891C28.0378 5.77995 28.1706 5.90625 28.332 6.00781C28.4935 6.10677 28.6628 6.1888 28.8398 6.25391C29.0169 6.31641 29.1797 6.36719 29.3281 6.40625L30.1406 6.625C30.349 6.67969 30.5807 6.75521 30.8359 6.85156C31.0938 6.94792 31.3398 7.07943 31.5742 7.24609C31.8112 7.41016 32.0065 7.62109 32.1602 7.87891C32.3138 8.13672 32.3906 8.45312 32.3906 8.82812C32.3906 9.26042 32.2773 9.65104 32.0508 10C31.8268 10.349 31.4987 10.6263 31.0664 10.832C30.6367 11.0378 30.1146 11.1406 29.5 11.1406C28.9271 11.1406 28.431 11.0482 28.0117 10.8633C27.5951 10.6784 27.2669 10.4206 27.0273 10.0898C26.7904 9.75911 26.6563 9.375 26.625 8.9375H27.625C27.651 9.23958 27.7526 9.48958 27.9297 9.6875C28.1094 9.88281 28.3359 10.0286 28.6094 10.125C28.8854 10.2187 29.1823 10.2656 29.5 10.2656C29.8698 10.2656 30.2018 10.2057 30.4961 10.0859C30.7904 9.96354 31.0234 9.79427 31.1953 9.57812C31.3672 9.35937 31.4531 9.10417 31.4531 8.8125C31.4531 8.54687 31.3789 8.33073 31.2305 8.16406C31.082 7.9974 30.8867 7.86198 30.6445 7.75781C30.4023 7.65365 30.1406 7.5625 29.8594 7.48437L28.875 7.20312C28.25 7.02344 27.7552 6.76693 27.3906 6.43359C27.026 6.10026 26.8438 5.66406 26.8438 5.125C26.8438 4.67708 26.9648 4.28646 27.207 3.95312C27.4518 3.61719 27.7799 3.35677 28.1914 3.17187C28.6055 2.98437 29.0677 2.89062 29.5781 2.89062C30.0938 2.89062 30.5521 2.98307 30.9531 3.16797C31.3542 3.35026 31.6719 3.60026 31.9062 3.91797C32.1432 4.23568 32.2682 4.59635 32.2813 5H31.3438ZM36.374 11.125C35.7959 11.125 35.2972 10.9974 34.8779 10.7422C34.4613 10.4844 34.1396 10.125 33.9131 9.66406C33.6891 9.20052 33.5771 8.66146 33.5771 8.04688C33.5771 7.43229 33.6891 6.89062 33.9131 6.42187C34.1396 5.95052 34.4548 5.58333 34.8584 5.32031C35.2646 5.05469 35.7386 4.92188 36.2803 4.92188C36.5928 4.92188 36.9014 4.97396 37.2061 5.07812C37.5107 5.18229 37.7881 5.35156 38.0381 5.58594C38.2881 5.81771 38.4873 6.125 38.6357 6.50781C38.7842 6.89062 38.8584 7.36198 38.8584 7.92187V8.3125H34.2334V7.51562H37.9209C37.9209 7.17708 37.8532 6.875 37.7178 6.60937C37.585 6.34375 37.3949 6.13411 37.1475 5.98047C36.9027 5.82682 36.6136 5.75 36.2803 5.75C35.9131 5.75 35.5954 5.84115 35.3271 6.02344C35.0615 6.20312 34.8571 6.4375 34.7139 6.72656C34.5706 7.01562 34.499 7.32552 34.499 7.65625V8.1875C34.499 8.64063 34.5771 9.02474 34.7334 9.33984C34.8923 9.65234 35.1123 9.89062 35.3936 10.0547C35.6748 10.2161 36.0016 10.2969 36.374 10.2969C36.6162 10.2969 36.835 10.263 37.0303 10.1953C37.2282 10.125 37.3988 10.0208 37.542 9.88281C37.6852 9.74219 37.7959 9.56771 37.874 9.35937L38.7646 9.60938C38.6709 9.91146 38.5133 10.1771 38.292 10.4062C38.0706 10.6328 37.7972 10.8099 37.4717 10.9375C37.1462 11.0625 36.7803 11.125 36.374 11.125ZM40.2607 11V5H41.1514V5.90625H41.2139C41.3232 5.60938 41.5212 5.36849 41.8076 5.18359C42.0941 4.9987 42.417 4.90625 42.7764 4.90625C42.8441 4.90625 42.9287 4.90755 43.0303 4.91016C43.1318 4.91276 43.2087 4.91667 43.2607 4.92188V5.85937C43.2295 5.85156 43.1579 5.83984 43.0459 5.82422C42.9365 5.80599 42.8206 5.79687 42.6982 5.79687C42.4066 5.79687 42.1462 5.85807 41.917 5.98047C41.6904 6.10026 41.5107 6.26693 41.3779 6.48047C41.2477 6.69141 41.1826 6.93229 41.1826 7.20312V11H40.2607ZM49.4424 5L47.2236 11H46.2861L44.0674 5H45.0674L46.7236 9.78125H46.7861L48.4424 5H49.4424ZM52.96 11.125C52.3818 11.125 51.8831 10.9974 51.4639 10.7422C51.0472 10.4844 50.7256 10.125 50.499 9.66406C50.2751 9.20052 50.1631 8.66146 50.1631 8.04688C50.1631 7.43229 50.2751 6.89062 50.499 6.42187C50.7256 5.95052 51.0407 5.58333 51.4443 5.32031C51.8506 5.05469 52.3245 4.92188 52.8662 4.92188C53.1787 4.92188 53.4873 4.97396 53.792 5.07812C54.0967 5.18229 54.374 5.35156 54.624 5.58594C54.874 5.81771 55.0732 6.125 55.2217 6.50781C55.3701 6.89062 55.4443 7.36198 55.4443 7.92187V8.3125H50.8193V7.51562H54.5068C54.5068 7.17708 54.4391 6.875 54.3037 6.60937C54.1709 6.34375 53.9808 6.13411 53.7334 5.98047C53.4886 5.82682 53.1995 5.75 52.8662 5.75C52.499 5.75 52.1813 5.84115 51.9131 6.02344C51.6475 6.20312 51.443 6.4375 51.2998 6.72656C51.1566 7.01562 51.085 7.32552 51.085 7.65625V8.1875C51.085 8.64063 51.1631 9.02474 51.3193 9.33984C51.4782 9.65234 51.6982 9.89062 51.9795 10.0547C52.2607 10.2161 52.5876 10.2969 52.96 10.2969C53.2021 10.2969 53.4209 10.263 53.6162 10.1953C53.8141 10.125 53.9847 10.0208 54.1279 9.88281C54.2712 9.74219 54.3818 9.56771 54.46 9.35937L55.3506 9.60938C55.2568 9.91146 55.0993 10.1771 54.8779 10.4062C54.6566 10.6328 54.3831 10.8099 54.0576 10.9375C53.7321 11.0625 53.3662 11.125 52.96 11.125ZM56.8467 11V5H57.7373V5.90625H57.7998C57.9092 5.60938 58.1071 5.36849 58.3936 5.18359C58.68 4.9987 59.0029 4.90625 59.3623 4.90625C59.43 4.90625 59.5146 4.90755 59.6162 4.91016C59.7178 4.91276 59.7946 4.91667 59.8467 4.92188V5.85937C59.8154 5.85156 59.7438 5.83984 59.6318 5.82422C59.5225 5.80599 59.4066 5.79687 59.2842 5.79687C58.9925 5.79687 58.7321 5.85807 58.5029 5.98047C58.2764 6.10026 58.0967 6.26693 57.9639 6.48047C57.8337 6.69141 57.7686 6.93229 57.7686 7.20312V11H56.8467Z" fill="white"/>
</svg>
