<svg width="24" height="24" viewBox="0 0 24 24" fill="none" xmlns="http://www.w3.org/2000/svg">
<path d="M2.26875 19.1998H1.8375C1.29375 19.1998 0.8625 18.7686 0.8625 18.2248C0.8625 17.6623 1.3125 17.2123 1.875 17.2123H2.26875V16.4248H1.74375C0.7875 16.4248 0 17.2123 0 18.1686C0 19.2373 0.8625 20.0998 1.93125 20.0998H2.26875V19.1998ZM21.7313 19.1998H21.3C20.7562 19.1998 20.325 18.7686 20.325 18.2248C20.325 17.6623 20.775 17.2123 21.3375 17.2123H21.7313V16.4248H21.1875C20.2313 16.4248 19.4437 17.2123 19.4437 18.1686C19.4437 19.2373 20.3063 20.0998 21.375 20.0998H21.7125V19.1998H21.7313ZM4.14375 16.4248C3.3 16.4248 2.625 17.2498 2.625 18.2623C2.625 19.2748 3.3 20.0998 4.14375 20.0998C4.9875 20.0998 5.6625 19.2748 5.6625 18.2623C5.6625 17.2498 4.9875 16.4248 4.14375 16.4248ZM4.14375 19.4061C3.76875 19.4061 3.4875 18.8998 3.4875 18.2811C3.4875 17.6623 3.7875 17.1561 4.14375 17.1561C4.51875 17.1561 4.8 17.6623 4.8 18.2811C4.8 18.8998 4.5 19.4061 4.14375 19.4061ZM5.6625 20.0998L6.24375 16.4248H7.4625L7.81875 18.2623L8.2875 16.4248H9.4125L9.95625 20.0998H9.01875L8.71875 17.6061L8.2125 20.0998H7.575L6.88125 17.6436L6.5625 20.0998H5.6625ZM10.1625 20.0998L10.7437 16.4248H11.9625L12.3 18.2623L12.7687 16.4248H13.9125L14.4562 20.0998H13.5187L13.2 17.6061L12.6937 20.0998H12.075L11.3625 17.6436L11.0625 20.0998H10.1625ZM14.6063 20.0998V16.4248H16.5187V17.1373H15.5625V17.9248H16.4062V18.5998H15.45V19.3123H16.5187V20.0998H14.6063ZM22.0875 20.0998V16.4248H24V17.1373H23.0438V17.9248H23.8875V18.5998H22.9313V19.3123H24V20.0998H22.0875Z" fill="white"/>
<path d="M18.7502 18.3937C19.0502 18.3937 19.3127 18.1499 19.3127 17.8312V17.4937C19.3127 16.8937 18.8252 16.4249 18.2439 16.4249H16.8564V20.0999H17.7189V18.3749L18.6564 20.0999H19.6127L18.7502 18.3937ZM18.0189 18.0749H17.7002V17.1749H18.0564C18.3002 17.1749 18.4877 17.3624 18.4877 17.6062C18.4689 17.8687 18.2627 18.0749 18.0189 18.0749ZM13.9502 7.06866C13.5939 7.03116 12.9377 7.21866 12.6377 8.68116C12.6377 9.58116 12.8439 10.1062 13.1814 10.2937C13.8002 10.4812 14.5314 9.65616 14.5314 8.75616C14.5502 8.17491 14.5877 7.40616 13.9502 7.06866ZM18.7502 7.06866C18.3939 7.03116 17.7377 7.21866 17.4377 8.68116C17.4377 9.58116 17.6439 10.1062 17.9814 10.2937C18.6002 10.4812 19.3314 9.65616 19.3314 8.75616C19.3689 8.17491 19.3877 7.40616 18.7502 7.06866Z" fill="white"/>
<path d="M19.4998 3.90039H4.55605C3.35605 3.90039 2.3623 4.87539 2.3623 6.09414V11.2316C2.3623 12.4316 3.3373 13.4254 4.55605 13.4254H19.4998C20.6998 13.4254 21.6936 12.4504 21.6936 11.2316V6.07539C21.6936 4.87539 20.6998 3.90039 19.4998 3.90039ZM9.01855 12.0379C9.01855 12.0379 7.9873 10.6691 7.7248 9.63789C7.4623 8.60664 7.4248 9.07539 7.4248 9.07539C7.4248 9.07539 6.5998 10.9316 5.7373 12.1129C4.8748 13.2941 4.44355 11.5316 4.44355 11.5316C4.14355 11.1754 3.28105 5.92539 3.28105 5.92539C3.76855 4.59414 4.59355 5.68164 4.59355 5.68164L5.4373 9.95664C5.4373 9.95664 6.73105 7.33164 7.14355 6.67539C7.5748 6.00039 8.30605 6.18789 8.3623 6.88164C8.41855 7.57539 9.13105 9.50664 9.13105 9.50664C9.1873 7.50039 10.0123 5.58789 10.1436 5.26914C10.2748 4.95039 11.6061 4.59414 11.3623 5.86914C10.7811 7.29414 10.1998 10.3129 10.3498 11.9629C9.9748 13.2191 9.01855 12.0379 9.01855 12.0379ZM14.4186 11.3629C14.0248 11.5504 12.5623 12.5441 11.5311 10.2941C10.8748 8.02539 12.3186 6.35664 12.3186 6.35664C12.3186 6.35664 14.2123 4.74414 15.5061 6.88164C16.5373 9.22539 14.8123 11.1754 14.4186 11.3629ZM19.2373 11.3629C18.8436 11.5504 17.3811 12.5441 16.3498 10.2941C15.6936 8.02539 17.1373 6.35664 17.1373 6.35664C17.1373 6.35664 19.0311 4.74414 20.3248 6.88164C21.3561 9.22539 19.6311 11.1754 19.2373 11.3629Z" fill="white"/>
<path d="M11.625 13.4061L14.9813 15.3748L14.2875 13.4061L12.3563 12.8623L11.625 13.4061Z" fill="white"/>
</svg>
