<svg width="24" height="24" viewBox="0 0 24 24" fill="none" xmlns="http://www.w3.org/2000/svg">
<path d="M11.9981 0.0195312C11.1341 0.0195312 10.3161 0.129531 9.85406 0.212531V0.214531C7.08622 0.703625 4.57994 2.15428 2.77716 4.3107C0.97438 6.46712 -0.00912579 9.19082 6.382e-05 12.0015C6.382e-05 13.1275 0.157064 14.2345 0.465064 15.3045C0.503064 15.4495 0.556064 15.6035 0.602064 15.7515C2.20906 20.6165 6.82606 23.9775 11.9941 23.9795C12.0591 23.9795 12.2461 23.9795 12.4961 23.9685C12.9179 23.9494 13.3255 23.8103 13.6711 23.5676C14.0166 23.325 14.2858 22.9888 14.4471 22.5985L14.9211 21.4445L20.4261 8.04253H18.6201L16.3041 13.9135L13.9701 8.04253H12.0611L15.3351 16.0545L12.8991 21.9645C12.8604 22.0596 12.7955 22.1417 12.7119 22.2012C12.6283 22.2607 12.5295 22.2952 12.4271 22.3005C12.2831 22.3055 12.1421 22.3105 11.9951 22.3105C7.41006 22.3105 3.32806 19.2405 2.06706 14.8455C1.80225 13.9208 1.66828 12.9635 1.66906 12.0015C1.66189 9.56155 2.52368 7.19872 4.10007 5.33631C5.67645 3.47389 7.86443 2.23357 10.2721 1.83753C10.4941 1.80053 11.1611 1.69253 11.9971 1.69253C16.4141 1.69253 20.2661 4.42453 21.7271 8.54053C21.7831 8.68453 21.8251 8.83353 21.8741 8.98053C22.1731 9.95453 22.3271 10.9685 22.3271 12.0015C22.3357 14.2147 21.6277 16.3713 20.309 18.1487C18.9903 19.9262 17.1317 21.229 15.0111 21.8625L15.4971 23.4625C20.5821 21.9165 23.9971 17.3105 23.9991 12.0025C23.9991 10.4545 23.7011 9.13253 23.3491 8.11053L23.2181 7.74753H23.2161C21.4571 3.09453 17.0441 0.0195312 11.9981 0.0195312ZM8.43406 7.88953C7.23406 7.88953 6.25906 8.27553 5.45406 9.06553C4.65206 9.85153 4.24806 10.8395 4.24806 12.0015C4.24806 13.1555 4.65506 14.1385 5.45306 14.9215C6.25906 15.7115 7.23306 16.0955 8.43306 16.0955C10.1391 16.0955 11.5891 15.1405 12.2211 13.6065L12.2541 13.5245L10.6251 12.9705C10.4571 13.4265 9.87006 14.4585 8.43406 14.4585C7.75906 14.4585 7.19006 14.2245 6.74006 13.7585C6.28306 13.2885 6.05306 12.6965 6.05306 12.0015C6.05306 11.3015 6.27806 10.7215 6.74006 10.2285C7.19206 9.76353 7.76006 9.52653 8.43406 9.52653C9.87206 9.52653 10.4571 10.6085 10.6271 11.0155L12.2541 10.4625L12.2211 10.3785C11.5911 8.84253 10.1391 7.88953 8.43406 7.88953Z" fill="white"/>
</svg>
