<svg width="16" height="16" viewBox="0 0 16 16" fill="none" xmlns="http://www.w3.org/2000/svg">
<path d="M4.89495 10.3L1.31745 6.72264C1.1717 6.57987 0.9755 6.50038 0.771478 6.50143C0.567455 6.50248 0.37209 6.584 0.227822 6.72826C0.0835551 6.87253 0.00204037 7.0679 0.000986901 7.27192C-6.65664e-05 7.47594 0.0794263 7.67214 0.222196 7.81789L7.4507 15.0461C7.52253 15.1181 7.60787 15.1752 7.70182 15.2142C7.79578 15.2531 7.8965 15.2731 7.9982 15.273H8.00145C8.10315 15.2731 8.20386 15.2531 8.29782 15.2142C8.39177 15.1752 8.47711 15.1181 8.54895 15.0461L15.7774 7.81789C15.9207 7.67225 16.0007 7.47593 15.9999 7.27164C15.9992 7.11929 15.9536 6.97054 15.8688 6.84398C15.784 6.71742 15.6638 6.61867 15.5232 6.56008C15.3825 6.5015 15.2277 6.48567 15.0782 6.51458C14.9286 6.54349 14.7909 6.61586 14.6822 6.72264L11.1053 10.2998C11.0915 10.3117 11.078 10.3241 11.0651 10.337L7.99995 13.4018L4.9347 10.337C4.92182 10.3242 4.90848 10.3118 4.8947 10.2999L4.89495 10.3ZM12.0072 5.10251L8.1822 10.633C8.15184 10.6769 8.11128 10.7127 8.064 10.7375C8.01672 10.7622 7.96414 10.7751 7.91078 10.775C7.85742 10.7749 7.80488 10.7619 7.75768 10.737C7.71048 10.7121 7.67003 10.6761 7.63982 10.6321C7.59962 10.5734 7.57982 10.5031 7.58345 10.432L7.73657 7.37851L5.26507 6.85451C5.21241 6.84328 5.16331 6.81928 5.12209 6.78462C5.08088 6.74997 5.0488 6.70572 5.0287 6.65576C5.00867 6.60581 5.00136 6.55167 5.00742 6.49819C5.01349 6.44472 5.03274 6.39359 5.06345 6.34939L8.88845 0.818888C8.92904 0.760016 8.98772 0.715985 9.0556 0.693473C9.12347 0.670961 9.19684 0.671194 9.26457 0.694138C9.33219 0.716797 9.39056 0.760905 9.43082 0.819763C9.47107 0.878513 9.49082 0.948763 9.4872 1.01989L9.3342 4.07339L11.8054 4.59739C11.8583 4.60864 11.9076 4.63264 11.9488 4.66739C12.011 4.71956 12.0515 4.7931 12.0623 4.87358C12.0731 4.95405 12.0535 5.03578 12.0072 5.10251Z" fill="white"/>
</svg>
