<svg width="19" height="24" viewBox="0 0 19 24" fill="none" xmlns="http://www.w3.org/2000/svg">
<path d="M5.55795 23.9138C5.53852 23.8774 5.53024 23.8361 5.53415 23.795C5.53806 23.7539 5.55399 23.7149 5.57995 23.6828C5.62595 23.6178 5.67795 23.5608 5.72895 23.5008C5.96695 23.2018 6.19895 22.8658 6.40895 22.5158L6.43295 22.4738C6.52895 22.3178 6.62695 22.1818 6.73395 22.0558L6.72995 22.0608C6.75869 22.0292 6.78942 21.9995 6.82195 21.9718L6.82295 21.9708C6.96295 21.8628 7.08695 21.9098 7.11895 22.0828C7.13576 22.23 7.13206 22.3787 7.10795 22.5248L7.10895 22.5158C7.09795 22.6258 7.08295 22.7338 7.07295 22.8438C7.06895 22.8758 7.05595 22.9158 7.08695 22.9298C7.11795 22.9438 7.14795 22.9038 7.16695 22.8798L7.53395 22.4238C7.65729 22.2652 7.78762 22.1205 7.92495 21.9898L7.92595 21.9888C7.99995 21.9218 8.07995 21.8638 8.18795 21.9168C8.29595 21.9698 8.30295 22.0568 8.30795 22.1568C8.29729 22.4235 8.26095 22.6778 8.19895 22.9198L8.20395 22.8948C8.17272 23.0225 8.16694 23.155 8.18695 23.2848L8.18595 23.2788C8.19395 23.3248 8.21462 23.3622 8.24795 23.3908C8.27507 23.4112 8.29676 23.438 8.31111 23.4687C8.32546 23.4995 8.33204 23.5332 8.33026 23.5671C8.32848 23.601 8.31841 23.6339 8.30091 23.663C8.28342 23.6921 8.25905 23.7164 8.22995 23.7338L8.22895 23.7348C8.14634 23.7894 8.04745 23.8138 7.94895 23.8038H7.95095C7.90198 23.7986 7.85642 23.7762 7.82224 23.7408C7.78805 23.7053 7.76742 23.659 7.76395 23.6098V23.6088C7.74275 23.4161 7.74712 23.2214 7.77695 23.0298L7.77495 23.0418C7.79103 22.9274 7.78492 22.811 7.75695 22.6988L7.75795 22.7048C7.63795 22.8648 7.52295 23.0068 7.40895 23.1518C7.30362 23.2825 7.19362 23.4028 7.07895 23.5128L7.07795 23.5138C7.01808 23.5716 6.95123 23.6216 6.87895 23.6628L6.87395 23.6648C6.84514 23.6835 6.81198 23.6943 6.77772 23.6963C6.74346 23.6983 6.70927 23.6913 6.67852 23.6761C6.64776 23.6608 6.62149 23.6379 6.60229 23.6094C6.58308 23.581 6.57159 23.5481 6.56895 23.5138C6.55304 23.3733 6.55708 23.2302 6.58095 23.0908L6.57995 23.0998C6.58129 23.0625 6.58495 23.0255 6.59095 22.9888C6.55495 22.9788 6.55095 23.0078 6.53795 23.0228C6.32862 23.3068 6.11995 23.5912 5.91195 23.8758C5.86895 23.9338 5.82595 23.9938 5.74295 23.9978H5.71495C5.68382 23.9976 5.65322 23.9897 5.62585 23.9749C5.59847 23.9601 5.57516 23.9398 5.55795 23.9138ZM16.621 23.8398C16.422 23.7398 16.257 23.5998 16.129 23.4308L16.126 23.4268C15.984 23.2508 15.843 23.0768 15.694 22.8888C15.6435 23.0782 15.6071 23.2711 15.585 23.4658L15.583 23.4848C15.557 23.6888 15.477 23.7798 15.319 23.8048C15.143 23.8308 15.055 23.7448 15.096 23.5768C15.215 23.0708 15.343 22.5688 15.467 22.0648C15.484 21.9942 15.5199 21.9296 15.571 21.8778C15.5877 21.8557 15.6087 21.8371 15.6327 21.8232C15.6568 21.8092 15.6833 21.8002 15.7108 21.7966C15.7383 21.7929 15.7663 21.7948 15.7931 21.8021C15.8199 21.8093 15.845 21.8218 15.867 21.8388C15.915 21.8708 15.932 21.8438 15.961 21.8218C16.0183 21.7665 16.0874 21.7249 16.163 21.6999C16.2387 21.675 16.319 21.6675 16.398 21.6778H16.395C16.4874 21.6868 16.5733 21.7298 16.6358 21.7986C16.6982 21.8674 16.7329 21.9569 16.733 22.0498V22.0578C16.7509 22.1939 16.7307 22.3322 16.6745 22.4574C16.6183 22.5826 16.5285 22.6898 16.415 22.7668L16.412 22.7688C16.292 22.8488 16.297 22.8488 16.386 22.9708C16.4933 23.1208 16.6133 23.2535 16.746 23.3688L16.749 23.3708C16.7896 23.4105 16.8425 23.4352 16.899 23.4408H16.904C16.9401 23.4408 16.9753 23.4531 17.0036 23.4756C17.0319 23.4981 17.0518 23.5296 17.06 23.5648C17.0724 23.6007 17.0739 23.6406 17.0641 23.6773C17.0543 23.714 17.0337 23.7469 17.005 23.7718C16.9414 23.8359 16.8561 23.8737 16.766 23.8778H16.765C16.7133 23.8785 16.6623 23.8657 16.617 23.8408L16.619 23.8418L16.621 23.8398ZM16.15 22.0798C16.0811 22.0871 16.0156 22.113 15.9605 22.1548C15.9053 22.1965 15.8626 22.2526 15.837 22.3168L15.836 22.3198C15.7794 22.4528 15.7423 22.5933 15.726 22.7368L15.725 22.7438C15.924 22.6678 16.091 22.5468 16.22 22.3928L16.222 22.3908C16.2527 22.3524 16.2761 22.3087 16.291 22.2618L16.292 22.2588C16.324 22.1528 16.275 22.0808 16.171 22.0808L16.15 22.0798ZM4.19395 23.3848C4.19195 23.3575 4.19129 23.3275 4.19195 23.2948C4.19195 22.7948 4.40495 22.3458 4.74495 22.0318L4.74595 22.0308C4.83123 21.9424 4.93693 21.8763 5.05376 21.8383C5.17059 21.8003 5.29496 21.7915 5.41595 21.8128L5.41095 21.8118C5.44895 21.8168 5.48295 21.8238 5.50195 21.7738C5.53295 21.6838 5.60695 21.6898 5.67495 21.7158C5.77216 21.7692 5.85435 21.8462 5.91395 21.9397C5.97355 22.0332 6.00863 22.1402 6.01595 22.2508V22.2528C6.00305 22.6143 5.87587 22.9623 5.65271 23.2469C5.42954 23.5316 5.12188 23.7381 4.77395 23.8368L4.76195 23.8398C4.70953 23.8523 4.65584 23.8587 4.60195 23.8588C4.35195 23.8548 4.20595 23.6848 4.19395 23.3848ZM4.90495 22.3618C4.71041 22.6064 4.59714 22.9057 4.58095 23.2178V23.2218L4.57995 23.2468C4.57993 23.2784 4.58691 23.3095 4.60039 23.3381C4.61388 23.3666 4.63353 23.3918 4.65793 23.4118C4.68233 23.4318 4.71087 23.4461 4.74149 23.4537C4.7721 23.4613 4.80402 23.4621 4.83495 23.4558C4.95501 23.4426 5.06728 23.3935 5.15895 23.3148L5.15795 23.3158C5.39095 23.1128 5.54795 22.8258 5.57995 22.5028V22.4978C5.58495 22.3378 5.54695 22.2798 5.43595 22.2358C5.37657 22.2116 5.31308 22.1991 5.24895 22.1988C5.18341 22.1988 5.11868 22.2134 5.05951 22.2416C5.00034 22.2698 4.94822 22.3109 4.90695 22.3618L4.90595 22.3628L4.90495 22.3618ZM10.088 23.3778C10.0753 23.127 10.1173 22.8763 10.2113 22.6434C10.3052 22.4104 10.4488 22.2007 10.632 22.0288L10.633 22.0278C10.7258 21.9348 10.8402 21.8661 10.966 21.8278L10.972 21.8258C10.9912 21.8219 11.0097 21.8152 11.027 21.8058L11.026 21.8068C11.379 21.5938 11.734 21.3748 12.108 21.1468L11.548 20.9268C11.509 20.9128 11.49 20.9408 11.468 20.9598C11.248 21.1318 11.052 21.3058 10.868 21.4918L10.867 21.4928C10.6805 21.6915 10.4807 21.8773 10.269 22.0488L10.258 22.0578C10.2368 22.073 10.2199 22.0934 10.2091 22.1171C10.1982 22.1408 10.1937 22.1669 10.196 22.1928V22.1918C10.1893 22.2829 10.1638 22.3716 10.1212 22.4524C10.0785 22.5331 10.0195 22.6041 9.94795 22.6608L9.94695 22.6618C9.79674 22.8009 9.62124 22.9099 9.42995 22.9828L9.41895 22.9868L9.02495 23.1468C9.00978 23.1504 8.99622 23.1589 8.98644 23.1711C8.97666 23.1832 8.97121 23.1983 8.97095 23.2138C8.9563 23.3233 8.93863 23.4323 8.91795 23.5408C8.91142 23.5798 8.89664 23.617 8.87461 23.6498C8.85259 23.6826 8.82382 23.7103 8.79023 23.7311C8.75663 23.752 8.71898 23.7654 8.67979 23.7705C8.6406 23.7756 8.60077 23.7723 8.56295 23.7608L8.56495 23.7618C8.52047 23.7484 8.48306 23.718 8.4608 23.6772C8.43854 23.6364 8.4332 23.5885 8.44595 23.5438C8.61495 23.0208 8.75895 22.4888 8.97595 21.9828C9.00695 21.9108 9.07895 21.8968 9.13595 21.8458C9.02359 21.7973 8.90572 21.7627 8.78495 21.7428L8.77595 21.7418C7.75315 21.5205 6.72703 21.3149 5.69795 21.1248C5.47995 21.0848 5.25395 21.0938 5.03095 21.0748C4.41195 21.0218 3.78995 21.0488 3.16995 21.0348C2.91995 21.0298 2.67295 21.0348 2.42395 21.0228C2.38462 21.0223 2.34543 21.018 2.30695 21.0098L2.31095 21.0108C2.29227 21.0059 2.276 20.9944 2.26516 20.9784C2.25431 20.9624 2.24962 20.943 2.25195 20.9238C2.25195 20.8948 2.29095 20.8998 2.31395 20.8978C2.80595 20.8438 3.29995 20.7798 3.79495 20.7468C3.99895 20.7328 4.20395 20.7348 4.40895 20.7368H4.84395C5.33729 20.7388 5.82029 20.7732 6.29295 20.8398L6.23695 20.8338C6.39762 20.8498 6.55995 20.8642 6.72395 20.8768C6.73795 20.8878 6.75495 20.9128 6.77395 20.9008C6.79295 20.8888 6.77395 20.8698 6.76395 20.8548V20.8448C6.76438 20.8197 6.75752 20.795 6.74421 20.7737C6.7309 20.7524 6.71171 20.7355 6.68895 20.7248C6.48024 20.6115 6.25424 20.5313 6.02095 20.4868L6.00595 20.4848C5.30462 20.2715 4.59729 20.0802 3.88395 19.9108C3.56496 19.834 3.2402 19.7835 2.91295 19.7598L2.89095 19.7588C2.87444 19.7533 2.85686 19.7518 2.83965 19.7544C2.82244 19.757 2.80609 19.7637 2.79195 19.7738C3.06929 19.9965 3.34695 20.2185 3.62495 20.4398C3.58495 20.4758 3.55095 20.4498 3.51695 20.4398C3.31695 20.3568 3.14695 20.2668 2.98595 20.1628L2.99895 20.1708C2.75334 20.0209 2.49421 19.8943 2.22495 19.7928L2.19195 19.7818C2.16332 19.7726 2.13581 19.7602 2.10995 19.7448L2.11195 19.7458C2.06395 19.7168 2.07395 19.6708 2.08095 19.6278C2.08795 19.5848 2.12795 19.5988 2.15495 19.5988L2.27995 19.5978C2.76795 19.5978 3.24929 19.6228 3.72395 19.6728L3.66495 19.6678C3.97895 19.6938 4.28695 19.7738 4.59695 19.8278L4.69095 19.8418C4.73695 19.8468 4.80895 19.8898 4.82395 19.8418C4.83662 19.806 4.83883 19.7674 4.83033 19.7304C4.82183 19.6933 4.80297 19.6595 4.77595 19.6328C4.70358 19.5689 4.62816 19.5085 4.54995 19.4518L4.54095 19.4458C4.52622 19.4383 4.51385 19.4268 4.50521 19.4127C4.49656 19.3986 4.49198 19.3824 4.49195 19.3658C4.49195 19.3458 4.49795 19.3278 4.50995 19.3118C4.54295 19.2498 4.56395 19.1778 4.59895 19.1138C4.63395 19.0498 4.62095 19.0128 4.56095 18.9678L2.60695 17.5278C2.35962 17.3452 2.11329 17.1645 1.86795 16.9858C1.8409 16.9692 1.81907 16.9452 1.80493 16.9168C1.79079 16.8883 1.78491 16.8565 1.78795 16.8248C1.79631 16.749 1.78277 16.6733 1.74895 16.6048L1.74995 16.6078C1.73344 16.5691 1.7084 16.5346 1.67672 16.5069C1.64504 16.4792 1.60752 16.459 1.56695 16.4478H1.56495C1.40495 16.3978 1.25095 16.3328 1.09195 16.2818C1.02495 16.2598 1.01195 16.2238 1.01195 16.1598C0.999953 15.8978 1.04495 15.6378 1.03595 15.3778C1.01695 14.8418 0.985953 14.3088 0.975953 13.7778C0.970953 13.5758 0.975953 13.3778 0.963953 13.1718C0.944953 12.7568 0.944953 12.3418 0.937953 11.9258V11.9188C0.93862 11.8762 0.949953 11.8388 0.971953 11.8068C0.987155 11.7722 0.99166 11.7348 0.98489 11.6975C0.97812 11.6603 0.960383 11.6259 0.933953 11.5988L0.734953 11.3348C0.716291 11.313 0.703476 11.2867 0.697705 11.2586C0.691934 11.2304 0.693395 11.2013 0.701953 11.1738V11.1748C0.749953 10.9518 0.781953 10.7238 0.827953 10.4968C0.837953 10.4438 0.805953 10.4428 0.769953 10.4368C0.577953 10.4078 0.384953 10.3768 0.190953 10.3528C0.125953 10.3458 0.118953 10.3218 0.123953 10.2628C0.185953 9.5975 0.24662 8.9325 0.305953 8.26784V8.25784C0.319953 8.13184 0.319953 8.13184 0.442953 8.16384C0.720953 8.23384 0.99862 8.3045 1.27595 8.37584C1.32895 8.38984 1.35595 8.38984 1.36695 8.32084C1.41495 8.04684 1.48095 7.80484 1.56795 7.57184L1.55895 7.60084C1.56543 7.58114 1.5688 7.56056 1.56895 7.53984C1.56845 7.5133 1.56267 7.48712 1.55195 7.46284V7.46384C1.42495 7.17084 1.29695 6.88084 1.17295 6.58384C1.15095 6.53384 1.13395 6.52584 1.08695 6.55484C1.03995 6.58384 0.980953 6.66484 0.926953 6.63484C0.883953 6.61284 0.871953 6.52684 0.846953 6.46884L0.839953 6.45184C0.802953 6.37684 0.741953 6.29584 0.754953 6.22584C0.767953 6.15584 0.874953 6.13984 0.941953 6.10084C0.994953 6.06984 0.972953 6.03584 0.960953 5.99784C0.816953 5.55584 0.667953 5.11984 0.534953 4.67584C0.401953 4.23184 0.268953 3.76984 0.152953 3.31184C0.0866693 3.05703 0.0372291 2.79814 0.00495312 2.53684L0.00195312 2.50484C0.00461979 2.38484 0.0246198 2.27184 0.0619531 2.16584L0.0599531 2.17384C0.0699531 2.13284 0.102953 2.13984 0.128953 2.13784C0.19728 2.12952 0.266583 2.13992 0.32946 2.16793C0.392336 2.19593 0.446426 2.24049 0.485953 2.29684L0.486953 2.29784C0.562953 2.39584 0.636953 2.50684 0.702953 2.62284L0.709953 2.63684L1.34995 3.75684C1.38295 3.81684 1.39695 3.80984 1.43395 3.75684C1.62495 3.49084 1.78895 3.20984 1.95995 2.92884C2.10795 2.68884 2.30795 2.47884 2.46595 2.24684C2.53327 2.16751 2.62707 2.11528 2.72995 2.09984H2.73195L2.74795 2.09784C2.76595 2.09784 2.78129 2.10317 2.79395 2.11384C2.89929 2.1745 2.99229 2.24417 3.07295 2.32284C3.10895 2.36884 3.14695 2.35484 3.19095 2.34184C3.95666 2.13452 4.69614 1.84027 5.39495 1.46484L5.33995 1.49184C5.40095 1.45684 5.47395 1.42084 5.54895 1.39084L5.56095 1.38684C5.71495 1.32484 5.82695 1.41284 5.80595 1.58484C5.78933 1.72611 5.72306 1.85689 5.61895 1.95384C5.35295 2.20584 5.08895 2.46484 4.80095 2.69584C4.78446 2.70559 4.77079 2.71949 4.76132 2.73616C4.75185 2.75282 4.7469 2.77167 4.74695 2.79084C4.74695 2.80617 4.74995 2.8205 4.75595 2.83384V2.83284C4.84495 3.16484 4.93395 3.43484 5.03695 3.69684L5.01795 3.64184C5.06795 3.75484 5.06795 3.75484 5.16895 3.69184C6.31695 2.9785 7.46362 2.2645 8.60895 1.54984C8.72395 1.47984 8.72395 1.47984 8.80795 1.57884C8.81862 1.59484 8.83062 1.60917 8.84395 1.62184C8.90195 1.67184 8.87695 1.70184 8.82495 1.73184C8.41095 1.99584 8.00395 2.26184 7.59295 2.52684C7.25562 2.74684 6.91729 2.96617 6.57795 3.18484C6.55195 3.20184 6.51995 3.21084 6.49795 3.24984L6.58595 3.26384H6.60095C6.65349 3.26374 6.70518 3.277 6.75118 3.30236C6.79719 3.32772 6.83599 3.36436 6.86395 3.40884L6.86495 3.40984C6.95177 3.48866 7.00598 3.59709 7.01695 3.71384V3.71584L7.01795 3.73984C7.01781 3.78801 7.00801 3.83567 6.98911 3.87999C6.97022 3.92431 6.94262 3.96438 6.90795 3.99784C6.63869 4.23929 6.38423 4.49676 6.14595 4.76884L6.13695 4.77884C6.10021 4.82358 6.06742 4.87142 6.03895 4.92184L6.03595 4.92684C5.69354 5.47534 5.3827 6.04292 5.10495 6.62684L5.05695 6.73884C4.98238 6.87722 4.87047 6.9919 4.73395 7.06984L4.72995 7.07184C4.55751 7.17541 4.38068 7.2715 4.19995 7.35984C4.15582 7.37458 4.11802 7.4039 4.09276 7.44297C4.0675 7.48204 4.05629 7.52854 4.06095 7.57484V7.58684C4.06098 7.64437 4.04641 7.70098 4.0186 7.75135C3.9908 7.80172 3.95066 7.84421 3.90195 7.87484L3.90095 7.87584C3.87563 7.89898 3.85669 7.92825 3.84595 7.96084C3.75436 8.23713 3.67791 8.51921 3.61695 8.80384L3.60595 8.86284C3.58395 8.94284 3.61795 8.96584 3.68995 8.98284C4.07195 9.07284 4.45295 9.17384 4.83495 9.26584C4.91495 9.28484 4.92495 9.31184 4.90495 9.38584C4.80195 9.77484 4.68395 10.1588 4.60295 10.5558L4.53495 10.8678C4.51795 10.9418 4.48195 10.9568 4.41595 10.9478C4.32595 10.9358 4.23995 10.9308 4.15195 10.9218C4.12095 10.9178 4.09195 10.9148 4.09895 10.9608C4.13695 11.2058 4.17895 11.4508 4.21795 11.7048C4.25216 11.6831 4.27682 11.6491 4.28695 11.6098C4.51095 11.1258 4.77295 10.7088 5.07795 10.3288L5.06895 10.3408C5.34695 10.0068 5.65695 9.70084 5.96695 9.39784C6.25995 9.13384 6.59495 8.90684 6.95695 8.72884L6.98295 8.71784C7.05495 8.67784 7.13395 8.65284 7.20295 8.60984C7.53295 8.42884 7.92495 8.32084 8.34295 8.31784C8.49816 8.30307 8.65509 8.2974 8.81095 8.30084H8.80695C9.12095 8.31617 9.41595 8.3745 9.69195 8.47584L9.67095 8.46884C10.051 8.61284 10.378 8.80984 10.662 9.05584L10.658 9.05284C10.7686 9.16084 10.8633 9.28217 10.942 9.41684L10.947 9.42484C10.961 9.45352 10.9856 9.47572 11.0155 9.48688C11.0455 9.49804 11.0785 9.49731 11.108 9.48484C11.4797 9.38524 11.87 9.38489 12.242 9.48384L12.227 9.48084C12.355 9.50484 12.4703 9.54817 12.573 9.61084L12.568 9.60784C12.834 9.74484 13.064 9.90484 13.269 10.0908L13.266 10.0878C13.3046 10.1238 13.341 10.1615 13.375 10.2008L13.377 10.2028C13.581 10.4418 13.784 10.7068 13.975 10.9808L13.997 11.0148C14.132 11.2208 14.241 11.4578 14.313 11.7118L14.317 11.7298C14.357 11.6072 14.3976 11.4848 14.439 11.3628C14.443 11.3488 14.421 11.3248 14.41 11.3048C14.3116 11.1365 14.2116 10.9692 14.11 10.8028C14.0978 10.7866 14.0908 10.7671 14.09 10.7468C14.09 10.7222 14.0983 10.7015 14.115 10.6848C14.213 10.5218 14.307 10.3848 14.408 10.2528L14.4 10.2638C14.436 10.2238 14.4 10.1698 14.376 10.1338C14.352 10.0978 14.321 10.1338 14.296 10.1478C14.063 10.2678 14.056 10.2678 13.931 10.0378L13.021 8.39784C12.953 8.27884 12.956 8.27584 13.088 8.23784C13.4573 8.1245 13.828 8.01317 14.2 7.90384C14.272 7.88184 14.296 7.86084 14.27 7.78184C14.196 7.5445 14.1253 7.30584 14.058 7.06584C14.0526 7.04153 14.0413 7.01894 14.0251 7.00008C14.0089 6.98123 13.9882 6.96671 13.965 6.95784H13.964C13.942 6.95084 13.926 6.93584 13.904 6.92884C13.8257 6.91219 13.7545 6.87188 13.6999 6.81339C13.6454 6.7549 13.6101 6.68104 13.599 6.60184V6.59984C13.5942 6.57696 13.5828 6.55598 13.5663 6.53946C13.5498 6.52294 13.5288 6.5116 13.506 6.50684C13.456 6.49584 13.407 6.46884 13.354 6.45684C12.9121 6.33376 12.4953 6.1337 12.123 5.86584L12.134 5.87384C12.0067 5.78011 11.8852 5.67894 11.77 5.57084L11.771 5.57184C11.7365 5.54026 11.6978 5.51367 11.656 5.49284L11.653 5.49184C11.1944 5.28615 10.7194 5.11923 10.233 4.99284L10.166 4.97784C9.90895 4.91284 9.93995 4.79584 10.006 4.58684C10.0389 4.5083 10.093 4.44045 10.1622 4.39084C10.2314 4.34123 10.313 4.3118 10.398 4.30584H10.399C10.8004 4.19537 11.2123 4.12701 11.628 4.10184L11.645 4.10084C11.71 4.10084 11.725 4.08684 11.688 4.02684C11.6257 3.89247 11.5369 3.77206 11.427 3.67284L11.426 3.67184C11.385 3.6376 11.3469 3.60015 11.312 3.55984L11.311 3.55884C10.9071 3.1269 10.4582 2.73937 9.97195 2.40284L9.94495 2.38484C9.88744 2.35278 9.83766 2.3085 9.79913 2.25511C9.7606 2.20171 9.73425 2.14052 9.72195 2.07584V2.07284C9.71473 2.02666 9.71918 1.97941 9.7349 1.93539C9.75062 1.89137 9.77711 1.85199 9.81195 1.82084C9.86089 1.76679 9.92223 1.72545 9.99069 1.70036C10.0592 1.67528 10.1327 1.6672 10.205 1.67684H10.203C10.3702 1.6917 10.5304 1.75109 10.667 1.84884L10.664 1.84684C10.964 2.04184 11.259 2.24684 11.56 2.44484C11.62 2.48484 11.686 2.51884 11.747 2.55484C11.747 2.55484 11.747 2.55984 11.752 2.56184C11.7609 2.57329 11.7737 2.5811 11.788 2.58384L11.798 2.58484L11.808 2.58384C11.8016 2.56865 11.7917 2.55525 11.779 2.54484L11.767 2.53684C11.337 2.10784 10.907 1.67784 10.463 1.26284C10.3754 1.18576 10.3085 1.08803 10.2684 0.978534C10.2282 0.869034 10.216 0.751234 10.233 0.635836V0.639836C10.2455 0.593238 10.2703 0.550851 10.3047 0.517084C10.3392 0.483317 10.3821 0.459405 10.429 0.447836H10.431C10.52 0.440836 10.565 0.415836 10.565 0.307836V0.300836C10.5649 0.256961 10.5749 0.213655 10.594 0.17418C10.6132 0.134704 10.641 0.100089 10.6755 0.0729393C10.71 0.04579 10.7501 0.0268151 10.793 0.0174434C10.8359 0.00807183 10.8803 0.00854789 10.923 0.0188358H10.921L11.305 0.0588358C11.3808 0.0668395 11.4545 0.0892396 11.522 0.124836L11.519 0.122836C12.104 0.412836 12.596 0.702836 13.065 1.02284L13.021 0.994836C13.3793 1.23086 13.7142 1.50077 14.021 1.80084L14.02 1.79984C14.03 1.82484 14.054 1.84284 14.082 1.84284C14.065 1.81384 14.053 1.79484 14.044 1.77484C13.878 1.35484 13.706 0.934836 13.515 0.524836C13.4852 0.453736 13.476 0.375678 13.4886 0.299621C13.5011 0.223563 13.5349 0.152587 13.586 0.0948358C13.6061 0.0614116 13.6356 0.0346083 13.6707 0.0177282C13.7059 0.000848074 13.7453 -0.00537148 13.784 -0.000164224H13.783C13.8605 0.00384565 13.9369 0.0207433 14.009 0.0498358L14.004 0.0478358C14.191 0.144836 14.341 0.293836 14.437 0.474836L14.44 0.479836C14.703 0.893836 14.949 1.32184 15.177 1.75384C15.375 2.11784 15.546 2.53984 15.667 2.98184L15.677 3.02384C15.796 3.46984 15.886 3.99684 15.929 4.53784L15.931 4.56984C15.9316 4.5805 15.9333 4.5905 15.936 4.59984C15.9661 4.79178 15.9586 4.98674 15.914 5.17584L15.916 5.16584C15.8927 5.21616 15.8801 5.27077 15.8791 5.32621C15.8781 5.38164 15.8886 5.43668 15.91 5.48784L15.909 5.48484C16.099 6.01784 16.279 6.55484 16.51 7.07384C16.572 7.21084 16.575 7.21084 16.714 7.16784C17.171 7.02584 17.624 6.88984 18.074 6.74584C18.16 6.71984 18.175 6.73584 18.168 6.82084L18.029 8.63884V8.64884C18.0288 8.67932 18.0184 8.70886 17.9993 8.73264C17.9802 8.75643 17.9537 8.77306 17.924 8.77984C17.782 8.82284 17.645 8.88384 17.505 8.93084C17.443 8.95284 17.438 8.97484 17.493 9.01084C17.573 9.09684 17.647 9.18884 17.727 9.27284C17.823 9.37584 17.909 9.48884 17.998 9.59884C18.078 9.69684 18.07 9.73784 17.98 9.82884C17.944 9.86784 17.9 9.90884 17.937 9.96884C18.0508 10.1923 18.0727 10.4514 17.998 10.6908L18 10.6838C17.9858 10.7531 17.9903 10.8249 18.013 10.8918L18.012 10.8888C18.035 10.9948 18.063 11.0848 18.096 11.1728L18.092 11.1598C18.1459 11.3098 18.1438 11.4743 18.086 11.6228L18.088 11.6178C17.936 12.1208 17.765 12.5478 17.562 12.9568L17.584 12.9078C17.457 13.2218 17.337 13.5388 17.212 13.8558C17.0904 14.2062 17.0053 14.5681 16.958 14.9358L16.955 14.9648C16.905 15.2608 16.8 15.5418 16.768 15.8388C16.7496 16.0333 16.7249 16.227 16.694 16.4198C16.6764 16.5445 16.6421 16.6663 16.592 16.7818L16.596 16.7728L16.298 17.4468C16.2612 17.5241 16.2415 17.6083 16.24 17.6938C16.233 17.8908 16.204 18.0838 16.206 18.2808C16.206 18.3388 16.206 18.3668 16.286 18.3488C16.531 18.2908 16.779 18.2448 17.025 18.1948C17.047 18.1898 17.078 18.1758 17.092 18.2048C17.106 18.2338 17.075 18.2408 17.059 18.2528C16.8028 18.4376 16.5683 18.6506 16.36 18.8878L16.356 18.8928C16.2453 19.0128 16.1333 19.1322 16.02 19.2508C16.012 19.2606 16.0011 19.2676 15.9889 19.2708C15.9767 19.2741 15.9637 19.2734 15.952 19.2688C16.059 19.0168 16.183 18.7998 16.33 18.5998L16.323 18.6088C16.327 18.6095 16.3303 18.6078 16.333 18.6038C16.3354 18.602 16.3375 18.5996 16.3388 18.5968C16.3402 18.594 16.341 18.5909 16.341 18.5878C16.341 18.5838 16.34 18.5802 16.338 18.5768C16.335 18.5718 16.338 18.5768 16.333 18.5768H16.331C16.3263 18.5775 16.323 18.5808 16.321 18.5868C15.776 18.8078 15.238 19.0528 14.696 19.2788C14.036 19.5528 13.402 19.8838 12.77 20.2168C12.741 20.2308 12.724 20.2458 12.729 20.2788L12.784 20.7828C12.8125 20.7715 12.8406 20.7588 12.868 20.7448L12.864 20.7468C13.578 20.3608 14.317 20.0368 15.058 19.7128C15.538 19.5018 16.048 19.3598 16.539 19.1768C16.744 19.1028 16.983 19.0468 17.23 19.0178L17.245 19.0168C17.2503 19.0222 17.255 19.0282 17.259 19.0348C17.091 19.1028 16.933 19.2968 16.773 19.2968C16.7153 19.3213 16.66 19.3511 16.608 19.3858L16.613 19.3828C16.5363 19.4312 16.4697 19.4941 16.417 19.5678L16.416 19.5698C16.4003 19.571 16.3853 19.5762 16.3723 19.585C16.3593 19.5938 16.3489 19.6058 16.342 19.6198C16.342 19.6198 16.323 19.6348 16.323 19.6428H16.319V19.6478C16.269 19.6338 16.079 19.8348 16.017 19.8978L16.041 19.8968L16.066 19.8978H16.077C16.1054 19.8988 16.1337 19.8937 16.16 19.8828L16.158 19.8838L16.175 19.8758C16.428 19.8108 16.726 19.7638 17.031 19.7428L17.047 19.7418C17.1156 19.7365 17.1843 19.7302 17.253 19.7228L17.328 19.7398C16.264 20.0138 15.203 20.2998 14.164 20.6578C13.213 20.9618 12.394 21.3238 11.624 21.7628L11.689 21.7288L11.651 21.7548C11.713 21.8148 11.771 21.8782 11.825 21.9448L11.828 21.9488C11.8794 22.0236 11.9133 22.109 11.927 22.1988C11.9407 22.2885 11.9338 22.3801 11.907 22.4668L11.908 22.4628C11.8567 22.7843 11.7148 23.0844 11.4988 23.328C11.2829 23.5716 11.0019 23.7484 10.689 23.8378L10.677 23.8408C10.6246 23.8536 10.5709 23.8604 10.517 23.8608C10.259 23.8498 10.112 23.6828 10.1 23.3798L10.088 23.3778ZM10.797 22.3498C10.5958 22.5993 10.4798 22.9066 10.466 23.2268V23.2298L10.465 23.2518C10.465 23.2828 10.4718 23.3134 10.4851 23.3413C10.4983 23.3693 10.5175 23.3941 10.5414 23.4137C10.5653 23.4334 10.5932 23.4476 10.6232 23.4552C10.6532 23.4628 10.6846 23.4637 10.715 23.4578H10.714C10.8326 23.4469 10.9449 23.3989 11.035 23.3208L11.034 23.3218C11.267 23.1178 11.424 22.8318 11.458 22.5088V22.5028C11.458 22.3338 11.422 22.2798 11.31 22.2328C11.2519 22.2103 11.1902 22.1987 11.128 22.1988C11.0659 22.1995 11.0047 22.2133 10.9483 22.2393C10.8919 22.2654 10.8417 22.303 10.801 22.3498H10.797ZM9.27195 22.2138C9.16391 22.3909 9.0827 22.583 9.03095 22.7838L9.02795 22.7988C9.21062 22.7442 9.37195 22.6632 9.51195 22.5558L9.50795 22.5588C9.57935 22.5099 9.64106 22.4482 9.68995 22.3768L9.69195 22.3748C9.70539 22.357 9.71493 22.3365 9.71996 22.3147C9.72499 22.2929 9.7254 22.2703 9.72116 22.2484C9.71692 22.2264 9.70813 22.2056 9.69534 22.1872C9.68256 22.1689 9.66608 22.1534 9.64695 22.1418H9.64595C9.58384 22.1101 9.51284 22.1002 9.44443 22.1139C9.37601 22.1275 9.31419 22.1637 9.26895 22.2168L9.27195 22.2138ZM9.59995 20.4918C9.23995 20.6518 8.86595 20.7758 8.49795 20.9128C8.46895 20.9228 8.43395 20.9228 8.41795 20.9588C8.58795 21.0188 8.76395 21.0478 8.92895 21.1188C9.36295 21.3008 9.72395 21.4828 10.07 21.6868L10.027 21.6628C10.0452 21.6789 10.0686 21.6878 10.093 21.6878C10.1084 21.688 10.1237 21.6845 10.1375 21.6777C10.1514 21.671 10.1635 21.6611 10.173 21.6488C10.379 21.4548 10.598 21.2748 10.819 21.0968C10.945 20.9968 11.0696 20.8952 11.193 20.7918L10.348 20.4428C10.336 20.4384 10.3231 20.4369 10.3104 20.4384C10.2977 20.44 10.2855 20.4446 10.275 20.4518C10.1518 20.5121 10.0117 20.5283 9.87795 20.4978L9.88195 20.4988C9.82453 20.4869 9.76642 20.4785 9.70795 20.4738H9.69095C9.65888 20.4726 9.62698 20.4791 9.59795 20.4928L9.59995 20.4918ZM7.95495 21.2308L8.81695 21.4448C8.81972 21.4499 8.82388 21.4541 8.82895 21.4568H8.83895L8.84295 21.4578L8.84695 21.4568V21.4468C8.84762 21.4402 8.84629 21.4362 8.84295 21.4348C8.83485 21.4287 8.82508 21.4253 8.81495 21.4248C8.62495 21.3358 8.44195 21.2278 8.24395 21.1508C8.21606 21.1381 8.18561 21.1319 8.15495 21.1328C8.07859 21.1411 8.00851 21.1758 7.95495 21.2308ZM7.44395 19.1508C7.40484 19.2264 7.38451 19.3103 7.38469 19.3955C7.38486 19.4806 7.40553 19.5644 7.44495 19.6398L7.44395 19.6368C7.4635 19.6733 7.46989 19.7154 7.46206 19.756C7.45423 19.7966 7.43265 19.8333 7.40095 19.8598C7.30762 19.9625 7.21495 20.0658 7.12295 20.1698C7.10095 20.1938 7.07595 20.2128 7.08495 20.2498C7.11095 20.3468 7.08495 20.4618 7.19095 20.5278C7.22195 20.5498 7.20895 20.5858 7.20895 20.6168V21.0708C7.20895 21.1038 7.20195 21.1398 7.23095 21.1598C7.31102 21.2087 7.40144 21.2382 7.49495 21.2458H7.49795L7.50495 21.2468L7.51195 21.2458H7.52195C7.57195 21.2528 7.57695 21.1738 7.60795 21.1358C7.62195 21.1178 7.62995 21.0928 7.64395 21.0748C7.83595 20.9718 7.99295 20.8118 8.19395 20.7268C8.5523 20.525 8.93419 20.3681 9.33095 20.2598L9.36795 20.2508C9.24089 20.2313 9.11251 20.2216 8.98395 20.2218H8.97695C8.84293 20.2216 8.70913 20.2327 8.57695 20.2548L8.59095 20.2528C8.48695 20.2708 8.36495 20.2828 8.24095 20.2868H8.22595L8.17595 20.2878C8.10129 20.2878 8.02795 20.2815 7.95595 20.2688L7.96395 20.2698C7.94556 20.2693 7.92812 20.2616 7.91539 20.2483C7.90267 20.235 7.89568 20.2172 7.89595 20.1988C7.89195 20.1668 7.90629 20.1465 7.93895 20.1398L7.95295 20.1358C8.03295 20.1198 8.10595 20.1028 8.18195 20.0858C8.25795 20.0688 8.35195 20.0458 8.43695 20.0278C8.58195 19.9928 8.75095 19.9688 8.92395 19.9608H8.92995L8.93695 19.9618L8.94395 19.9608H8.95095C8.96495 19.9608 8.97995 19.9608 8.98195 19.9488C8.98695 19.9228 8.96395 19.9238 8.94695 19.9248H8.92495C8.77475 19.8877 8.63315 19.8218 8.50795 19.7308L8.51195 19.7328C8.23164 19.5895 8.00199 19.3637 7.85395 19.0858L7.84995 19.0778C7.77728 18.9574 7.69323 18.8442 7.59895 18.7398L7.60095 18.7418L7.58695 18.7248C7.53595 18.8788 7.49995 19.0188 7.44195 19.1478L7.44395 19.1508ZM10.586 20.1548C10.576 20.2048 10.572 20.2528 10.644 20.2698C10.716 20.2868 10.776 20.3078 10.834 20.3308L10.824 20.3268C11.295 20.4468 11.708 20.6158 12.09 20.8338L12.065 20.8208C12.0881 20.8396 12.1171 20.8499 12.147 20.8498H12.155C12.1976 20.8489 12.2392 20.8361 12.275 20.8128L12.274 20.8138C12.3173 20.7983 12.3568 20.7738 12.39 20.7419C12.4232 20.71 12.4492 20.6714 12.4664 20.6287C12.4836 20.586 12.4916 20.5401 12.4898 20.4941C12.488 20.4481 12.4764 20.4031 12.456 20.3618L12.457 20.3638C12.4266 20.2822 12.4181 20.194 12.4323 20.1081C12.4465 20.0221 12.4829 19.9414 12.538 19.8738L12.537 19.8748C12.5522 19.8531 12.561 19.8274 12.5623 19.8009C12.5635 19.7743 12.5572 19.7479 12.544 19.7248C12.442 19.4778 12.345 19.2288 12.244 18.9818C12.234 18.9568 12.232 18.9278 12.194 18.9068L12.187 18.9138L12.175 18.9068L12.127 18.9868L11.727 19.4668C11.7034 19.4904 11.6787 19.5127 11.653 19.5338C11.4363 19.6846 11.2072 19.8164 10.968 19.9278L10.939 19.9398C10.989 19.9405 11.0386 19.9438 11.088 19.9498C11.445 19.9698 11.777 20.0538 12.081 20.1898L12.063 20.1828C12.188 20.2408 12.197 20.3428 12.207 20.4538C12.211 20.4998 12.202 20.5338 12.168 20.5338C12.1525 20.5316 12.1374 20.5276 12.123 20.5218C11.6809 20.3658 11.2303 20.2382 10.772 20.1398L10.695 20.1258C10.678 20.1208 10.652 20.1068 10.633 20.1118H10.624C10.604 20.1128 10.59 20.1218 10.583 20.1518L10.586 20.1548ZM5.96195 20.1408C6.01729 20.1475 6.06929 20.1602 6.11795 20.1788L6.11295 20.1768C6.15295 20.1928 6.19295 20.2072 6.23295 20.2198C6.29795 20.2458 6.36595 20.2608 6.43795 20.2848V20.2948H6.44795L6.47395 20.3068C6.47929 20.3075 6.48329 20.3092 6.48595 20.3118C6.48995 20.3158 6.49295 20.3118 6.49695 20.3158C6.55695 20.3358 6.60262 20.3518 6.63395 20.3638C6.65003 20.37 6.66684 20.374 6.68395 20.3758H6.69195L6.71695 20.3638L6.72595 20.3518L6.73495 20.3358V20.3348C6.73495 20.3278 6.74195 20.3208 6.74495 20.3108C6.75595 20.2748 6.76895 20.2248 6.79195 20.1508V20.1368H6.78495V20.1128C6.80214 20.0769 6.82965 20.047 6.86395 20.0268L6.90295 20.0008C6.91029 19.9962 6.91662 19.9912 6.92195 19.9858C6.93295 19.9788 6.93595 19.9638 6.95995 19.9618C7.01746 19.9411 7.06583 19.9008 7.09655 19.8479C7.12728 19.7951 7.1384 19.7331 7.12795 19.6728V19.6748C7.12181 19.6122 7.11146 19.5501 7.09695 19.4888L7.09895 19.4988C7.07911 19.403 7.05576 19.3079 7.02895 19.2138C7.02341 19.1565 7.0278 19.0987 7.04195 19.0428L7.04095 19.0458C7.05986 18.9787 7.09032 18.9155 7.13095 18.8588L7.12995 18.8608C7.12995 18.8568 7.13695 18.8498 7.13995 18.8438L7.15795 18.8098L7.15895 18.8078C7.16865 18.791 7.17669 18.7732 7.18295 18.7548V18.7528C7.18829 18.7515 7.19429 18.7468 7.20095 18.7388C7.33795 18.5258 7.32295 18.4398 7.13295 18.2778C7.13229 18.2785 7.12995 18.2768 7.12595 18.2728L7.08795 18.2378C7.05555 18.1843 7.01102 18.1391 6.95795 18.1058L6.95595 18.1048C6.94395 18.0808 6.92995 18.0788 6.91695 18.0668C6.80095 17.951 6.66244 17.8601 6.50995 17.7998L6.50195 17.7968C6.46208 17.7686 6.41828 17.7464 6.37195 17.7308H6.36195C6.35682 17.7306 6.3518 17.7324 6.34795 17.7358C6.33438 17.7479 6.32435 17.7635 6.31895 17.7808V17.7928L6.16795 17.9988C6.12062 18.0728 6.06962 18.1398 6.01495 18.1998L6.01595 18.1978C5.99973 18.2085 5.9861 18.2226 5.97607 18.2393C5.96603 18.2559 5.95984 18.2745 5.95795 18.2938V18.2908C5.83795 18.4418 5.70795 18.5748 5.57895 18.7088C5.52095 18.7158 5.53295 18.6838 5.54095 18.6588L5.54595 18.6418C5.55995 18.5048 5.60395 18.3728 5.60595 18.2358C5.6325 18.1194 5.64591 18.0003 5.64595 17.8808L5.64495 17.8178V17.8088C5.6481 17.803 5.64975 17.7965 5.64975 17.7898C5.64975 17.7832 5.6481 17.7767 5.64495 17.7708C5.66274 17.6284 5.6624 17.4842 5.64395 17.3418L5.64495 17.3498L5.64695 17.3338L5.64495 17.3178C5.64495 17.3058 5.63795 17.2888 5.63395 17.2888V17.2718C5.63262 17.1118 5.60129 16.9632 5.53995 16.8258L5.54295 16.8328C5.52074 16.8133 5.49326 16.8008 5.46395 16.7968H5.46295C5.32995 16.7268 5.20595 16.6588 5.06295 16.5908H5.06795C5.04995 16.5908 5.03195 16.5728 5.01295 16.5658C4.96869 16.5391 4.92656 16.509 4.88695 16.4758L4.88795 16.4768C4.84989 16.4462 4.81413 16.4127 4.78095 16.3768L4.77995 16.3758L4.72995 16.3208C4.7202 16.3141 4.71174 16.3056 4.70495 16.2958C4.66615 16.2473 4.62511 16.2006 4.58195 16.1558H4.57895C4.60395 16.3468 4.57195 16.5558 4.76895 16.6768C4.78595 16.6838 4.80695 16.6958 4.79495 16.7178C4.79495 16.7248 4.78395 16.7288 4.77695 16.7348C4.76995 16.7408 4.76095 16.7438 4.75095 16.7468C4.70095 16.7608 4.65895 16.7228 4.60995 16.7178V16.7058C4.59095 16.7058 4.57095 16.6818 4.55195 16.6818C4.42811 16.5839 4.30898 16.4801 4.19495 16.3708L4.19595 16.3718C4.15479 16.3178 4.11641 16.2618 4.08095 16.2038C4.01576 16.1158 3.96294 16.0192 3.92395 15.9168L3.92095 15.9088L3.91695 15.8818V15.8658C3.89995 15.7188 3.86895 15.5728 3.84495 15.4288V15.4228L3.83995 15.3848C3.82095 15.2408 3.79695 15.0978 3.77795 14.9538H3.77395C3.77395 14.9488 3.77795 14.9368 3.77795 14.9298V14.8858C3.77795 14.7392 3.78695 14.5955 3.80495 14.4548L3.80295 14.4718V14.4378L3.80195 14.4278L3.80295 14.4178C3.80229 14.4125 3.80395 14.4065 3.80795 14.3998C3.81395 14.3898 3.80795 14.3928 3.80795 14.3898C3.81163 14.3809 3.81399 14.3715 3.81495 14.3618V14.3518L3.81595 14.3258L3.81495 14.2978C3.78318 14.3119 3.75561 14.3349 3.73495 14.3628V14.3638C3.71295 14.3858 3.68695 14.3928 3.66995 14.4438C3.64529 14.4845 3.61862 14.5252 3.58995 14.5658C3.51595 14.6758 3.44395 14.8058 3.38095 14.8998C3.37395 14.9238 3.35895 14.9308 3.35195 14.9428C3.27795 15.0528 3.21295 15.1728 3.14095 15.2928C3.13151 15.3392 3.1139 15.3836 3.08895 15.4238L3.08995 15.4228C3.05695 15.4848 3.03195 15.5478 3.00095 15.6078L2.90695 15.7918L2.88495 15.7848L2.92295 15.0428V15.0328L2.93195 15.0018L2.94095 14.9728V14.9648C2.94457 14.9457 2.95097 14.9271 2.95995 14.9098V14.9108C3.01195 14.7988 3.05595 14.6678 3.08795 14.5308L3.09095 14.5168C3.12637 14.4469 3.1513 14.3721 3.16495 14.2948L3.16595 14.2908C3.20462 14.2135 3.23462 14.1272 3.25595 14.0318L3.25695 14.0238C3.25695 14.0068 3.27395 13.9878 3.28095 13.9698L3.33595 13.8688C3.38662 13.7662 3.43229 13.6615 3.47295 13.5548C3.47695 13.5468 3.47995 13.5328 3.48395 13.5228C3.48795 13.5128 3.48895 13.5128 3.49095 13.5128C3.52795 13.4508 3.56295 13.3778 3.59295 13.3028L3.59695 13.2928H3.60195C3.63295 13.2188 3.67095 13.1418 3.70295 13.0668C3.75295 12.9518 3.80995 12.8538 3.87695 12.7618L3.87395 12.7668C3.91595 12.7075 3.95929 12.6538 4.00395 12.6058L4.00295 12.6068V12.5608C3.97795 12.4238 3.95295 12.2948 3.92795 12.1508V12.1408L3.92695 12.1228L3.92795 12.1038L3.86595 11.7738L3.84695 11.6628C3.84695 11.6488 3.84095 11.6338 3.84095 11.6168C3.79295 11.3888 3.76095 11.1598 3.72295 10.9328C3.72296 10.9235 3.72108 10.9142 3.71744 10.9056C3.7138 10.897 3.70846 10.8891 3.70175 10.8826C3.69504 10.8761 3.68708 10.871 3.67836 10.8676C3.66963 10.8642 3.66031 10.8626 3.65095 10.8628H3.64795L3.62595 10.8578H3.62695H3.60895C3.52802 10.8517 3.44754 10.8407 3.36795 10.8248L3.37895 10.8268C3.30495 10.8148 3.24195 10.8018 3.14595 10.7908V10.7808H3.15995C3.01495 10.7568 2.88295 10.7448 2.71595 10.7258H2.70395C2.68067 10.7152 2.65555 10.709 2.62995 10.7078L2.60895 10.7088C2.46495 10.6848 2.32195 10.6678 2.17795 10.6488C2.04786 10.6166 1.91486 10.5975 1.78095 10.5918H1.77595C1.76562 10.5866 1.75445 10.5832 1.74295 10.5818C1.61695 10.5508 1.48395 10.5488 1.35695 10.5198H1.35095C1.32067 10.5199 1.29048 10.5166 1.26095 10.5098L1.26395 10.5108C1.18395 10.4848 1.16795 10.5208 1.15595 10.5908C1.13142 10.7335 1.10174 10.8753 1.06695 11.0158C1.05464 11.0567 1.05258 11.1 1.06095 11.1418C1.06932 11.1837 1.08787 11.2228 1.11495 11.2558C1.15095 11.3105 1.18362 11.3638 1.21295 11.4158L1.23795 11.4698L1.23895 11.4728C1.27182 11.5499 1.28817 11.633 1.28695 11.7168V11.7298C1.26895 12.3278 1.31795 12.9218 1.33995 13.5188C1.34995 13.8048 1.36895 14.0908 1.38295 14.3768V14.4568C1.39395 14.6108 1.39495 14.7628 1.41695 14.9148V14.9768C1.38569 15.1105 1.36132 15.2457 1.34395 15.3818L1.34195 15.3988L1.33695 15.4358C1.28465 15.5766 1.26682 15.7268 1.28495 15.8758V15.8668C1.28629 15.8762 1.28862 15.8848 1.29195 15.8928L1.29895 15.9238C1.3039 15.9488 1.3182 15.971 1.33895 15.9858C1.44162 16.0325 1.54495 16.0782 1.64895 16.1228C1.65811 16.1273 1.66788 16.1303 1.67795 16.1318C1.68618 16.1315 1.69424 16.1294 1.70164 16.1258C1.70903 16.1222 1.71561 16.1171 1.72095 16.1108H1.72795C1.72795 16.0988 1.74995 16.0848 1.76195 16.0718C1.82862 16.0238 1.88962 15.9725 1.94495 15.9178C2.02795 15.8358 1.94895 15.9108 1.95195 15.9078L1.96595 15.8888L1.98395 15.8748C2.00029 15.8588 2.01841 15.8447 2.03795 15.8328L2.03895 15.8318C2.05519 15.8187 2.07512 15.811 2.09595 15.8098H2.10395C2.11062 15.8125 2.11629 15.8158 2.12095 15.8198L2.12595 15.8238C2.12529 15.8272 2.12695 15.8318 2.13095 15.8378L2.13195 15.8538L2.13095 15.8708V15.8698V15.9058C2.06007 16.0401 2.00472 16.182 1.96595 16.3288L1.96295 16.3428V16.3608C1.94988 16.3757 1.94152 16.3942 1.93895 16.4138V16.4148L1.93795 16.4278L1.93895 16.4408C1.93962 16.4462 1.94129 16.4502 1.94395 16.4548L1.95095 16.4688C2.02395 16.5828 2.09495 16.6808 2.17095 16.7748L2.16695 16.7688V16.7498C2.16955 16.7636 2.17357 16.777 2.17895 16.7898V16.7888C2.1841 16.8053 2.1934 16.8201 2.20595 16.8318L2.22695 16.8558L2.23895 16.8678C2.35562 16.9752 2.48395 17.0692 2.62395 17.1498L2.63495 17.1558C2.65995 17.1698 2.67595 17.1848 2.69595 17.1968C2.74295 17.2398 2.79395 17.2618 2.85095 17.3088L2.85895 17.3078C2.87962 17.3085 2.89595 17.3168 2.90795 17.3328C2.96929 17.3842 3.03595 17.4308 3.10795 17.4728L3.11495 17.4768C3.13995 17.4878 3.13995 17.5008 3.15395 17.5008C3.27995 17.5978 3.40395 17.6838 3.53195 17.7718V17.7768C3.56326 17.809 3.59977 17.8358 3.63995 17.8558L3.64195 17.8568C3.77195 17.9748 3.93495 18.0698 4.05595 18.1768C4.07995 18.1908 4.09595 18.2008 4.11595 18.2148C4.13595 18.2288 4.14495 18.2248 4.15895 18.2488H4.15295L4.22695 18.2898C4.31762 18.3765 4.41829 18.4512 4.52895 18.5138L4.53595 18.5178C4.55995 18.5278 4.56195 18.5318 4.57495 18.5568C4.66095 18.6128 4.73395 18.6658 4.80295 18.7228L4.79795 18.7188V18.7138C4.82195 18.7308 4.83395 18.7428 4.85295 18.7548C5.01295 18.8438 5.00395 18.9848 4.96495 19.1338C4.96562 19.1412 4.96429 19.1498 4.96095 19.1598C4.95595 19.1748 4.95595 19.1958 4.95395 19.2148C4.95195 19.2338 4.95395 19.2338 4.95395 19.2438C4.94395 19.3328 4.92295 19.4258 4.99695 19.4958C5.00395 19.5008 4.99695 19.5058 5.01895 19.5098C5.01895 19.5238 5.04395 19.5358 5.05495 19.5478C5.05895 19.5578 5.06395 19.5668 5.06995 19.5748C5.08895 19.6058 5.11095 19.6348 5.12495 19.6588V19.6988C5.12732 19.7385 5.12732 19.7782 5.12495 19.8178V19.8148C5.12018 19.8322 5.11948 19.8505 5.12292 19.8682C5.12636 19.8859 5.13384 19.9025 5.14478 19.9168C5.15572 19.9312 5.16982 19.9428 5.18598 19.9507C5.20214 19.9587 5.21993 19.9629 5.23795 19.9628C5.32895 19.9808 5.40595 20.0038 5.50195 20.0238L5.52395 20.0248L5.54695 20.0238C5.68095 20.0698 5.82095 20.0938 5.95995 20.1418L5.96195 20.1408ZM9.72995 20.0608C9.71095 20.0608 9.69195 20.0608 9.68895 20.0868L9.68795 20.0988C9.68795 20.1368 9.71595 20.1688 9.75295 20.1738C9.83495 20.1938 9.92995 20.2048 10.028 20.2048H10.032C10.1286 20.2048 10.223 20.1972 10.315 20.1818L10.305 20.1828C10.375 20.1728 10.366 20.1358 10.366 20.0928C10.366 20.0498 10.34 20.0378 10.308 20.0388L10.288 20.0368L10.267 20.0388C10.1883 20.0548 10.1092 20.0628 10.029 20.0628H9.76795L9.75395 20.0618L9.73995 20.0628H9.74095L9.72995 20.0608ZM5.20495 16.3068C5.22429 16.3408 5.24462 16.3715 5.26595 16.3988L5.26495 16.3968L5.28995 16.4128C5.32843 16.447 5.37194 16.475 5.41895 16.4958L5.42195 16.4968C5.49395 16.5282 5.57429 16.5442 5.66295 16.5448H5.67495H5.67395C5.71884 16.539 5.76441 16.5478 5.80387 16.57C5.84333 16.5921 5.87458 16.6265 5.89295 16.6678L5.89395 16.6688L5.90395 16.6888V16.6898C6.03195 17.0008 6.24595 17.2548 6.51695 17.4278L6.52295 17.4318L6.58295 17.4698C6.68896 17.526 6.7897 17.5916 6.88395 17.6658L6.96395 17.7208C7.06862 17.8002 7.16462 17.8825 7.25195 17.9678L7.31995 18.0358C7.40862 18.1252 7.49495 18.2172 7.57895 18.3118C7.60095 18.3338 7.61895 18.3578 7.64095 18.3818C7.68362 18.4285 7.72562 18.4758 7.76695 18.5238C7.86562 18.6338 7.95529 18.7525 8.03595 18.8798L8.04295 18.8908C8.05362 18.9068 8.06429 18.9245 8.07495 18.9438C8.10395 18.9968 8.13495 19.0608 8.16095 19.1268L8.16495 19.1388C8.21595 19.2548 8.29595 19.3488 8.39595 19.4158L8.39795 19.4168C8.44929 19.4542 8.50262 19.4895 8.55795 19.5228C8.59995 19.5488 8.64329 19.5728 8.68795 19.5948C8.74995 19.6258 8.80795 19.6618 8.87095 19.6958C8.91502 19.7205 8.96163 19.7402 9.00995 19.7548L9.01495 19.7558L9.04395 19.7628C9.24663 19.7985 9.45331 19.8056 9.65795 19.7838L9.64795 19.7848L9.82295 19.7608C9.90795 19.7488 9.93095 19.7428 9.98295 19.7348H10.002C10.058 19.7255 10.1113 19.7148 10.162 19.7028C10.2993 19.6748 10.435 19.6405 10.569 19.5998C10.613 19.5878 10.6563 19.5742 10.699 19.5588L10.74 19.5468C10.78 19.5335 10.8196 19.5182 10.861 19.5008C10.875 19.4962 10.8893 19.4905 10.904 19.4838L10.957 19.4618L11.022 19.4328C11.0793 19.4075 11.136 19.3795 11.192 19.3488C11.262 19.3095 11.3316 19.2688 11.401 19.2268C11.4356 19.2035 11.47 19.1795 11.504 19.1548C11.5973 19.0882 11.6813 19.0148 11.756 18.9348L11.757 18.9338C11.793 18.8945 11.8273 18.8548 11.86 18.8148C12.008 18.6238 12.143 18.4088 12.256 18.1808L12.266 18.1588C12.288 18.1195 12.3086 18.0778 12.328 18.0338C12.3586 17.9705 12.3883 17.9065 12.417 17.8418L12.439 17.7888C12.467 17.6988 12.495 17.5838 12.516 17.4668L12.519 17.4478C12.4839 17.4596 12.4495 17.4733 12.416 17.4888C12.3675 17.5105 12.3185 17.5308 12.269 17.5498C12.2222 17.5668 12.1735 17.5779 12.124 17.5828H12.121L12.101 17.5838L12.08 17.5828H12.081L12.07 17.5838C12.046 17.5839 12.0227 17.5761 12.0035 17.5616C11.9844 17.5472 11.9705 17.5269 11.964 17.5038C11.945 17.4488 11.974 17.4228 12.01 17.4118L12.041 17.4018L12.06 17.3948L12.094 17.3808L12.13 17.3668C12.308 17.3088 12.463 17.2328 12.605 17.1388L12.598 17.1438C12.6846 17.0798 12.768 17.0118 12.848 16.9398C12.8793 16.9112 12.9093 16.8815 12.938 16.8508C13.0713 16.7148 13.1766 16.5582 13.254 16.3808L13.258 16.3708L13.265 16.3518V16.3528C13.284 16.3148 13.306 16.2808 13.323 16.2428C13.3292 16.2263 13.3403 16.2119 13.3547 16.2016C13.3691 16.1913 13.3862 16.1855 13.404 16.1848H13.41C13.448 16.1848 13.49 16.1728 13.525 16.1728H13.587C13.6844 16.1621 13.778 16.1287 13.8603 16.0754C13.9426 16.0221 14.0113 15.9504 14.061 15.8658L14.063 15.8628C14.137 15.7548 14.202 15.6318 14.25 15.4998L14.254 15.4878L14.278 15.4358L14.279 15.4318C14.315 15.3574 14.3393 15.2778 14.351 15.1958V15.1848C14.351 15.1588 14.362 15.1228 14.333 15.1128C14.2886 15.0975 14.2419 15.09 14.195 15.0908C14.175 15.0908 14.1546 15.0922 14.136 15.0948H14.138L14.111 15.0998H14.112C14.106 15.1012 14.1013 15.1035 14.098 15.1068C14.093 15.1118 14.093 15.1068 14.093 15.1118C14.079 15.1298 14.112 15.1718 14.103 15.2008C14.094 15.2298 14.103 15.2588 14.093 15.2848C14.083 15.3108 14.074 15.3428 14.062 15.3688C14.0455 15.4114 14.0261 15.4529 14.004 15.4928L14.007 15.4868C13.925 15.6302 13.8276 15.7555 13.715 15.8628L13.714 15.8638C13.694 15.8227 13.6837 15.7775 13.6839 15.7317C13.684 15.686 13.6947 15.6409 13.715 15.5998L13.714 15.6018L13.725 15.5758C13.751 15.5232 13.779 15.4718 13.809 15.4218L13.843 15.3738L13.847 15.3638L13.848 15.3518L13.847 15.3398C13.8203 15.2536 13.7688 15.1771 13.699 15.1198L13.698 15.1188C13.678 15.1003 13.6562 15.0839 13.633 15.0698L13.631 15.0688C13.6128 15.0574 13.5928 15.0489 13.572 15.0438C13.543 15.0438 13.511 15.0368 13.481 15.0338C13.393 15.0274 13.3057 15.0137 13.22 14.9928L13.231 14.9948L13.209 14.9878C13.0796 14.9472 12.9533 14.9005 12.83 14.8478L12.708 14.7938C12.5402 14.7177 12.3799 14.6263 12.229 14.5208L12.24 14.5278C12.132 14.4478 12.021 14.3758 11.911 14.2998C11.8371 14.2497 11.7641 14.1984 11.692 14.1458L11.372 13.9058L11.35 13.8878L11.304 13.8548L11.258 13.8208C11.2344 13.8055 11.2143 13.7854 11.199 13.7618L11.198 13.7608L11.169 13.7218C11.159 13.7098 11.1493 13.6972 11.14 13.6838C10.9804 13.523 10.8546 13.3319 10.77 13.1218L10.766 13.1108C10.691 13.2834 10.596 13.4465 10.483 13.5968L10.488 13.5908C10.4442 13.647 10.3975 13.7007 10.348 13.7518L10.349 13.7508C10.1507 13.9551 9.90304 14.1046 9.62995 14.1848L9.61795 14.1878C9.44495 14.2388 9.24495 14.2678 9.03895 14.2678H9.01895H9.01995C9.07995 14.2198 9.13195 14.1738 9.18595 14.1308L9.23495 14.0848L9.23595 14.0838C9.41995 13.9448 9.58195 13.7978 9.73095 13.6378L9.73295 13.6358L9.75495 13.6218C9.76334 13.6122 9.76979 13.601 9.77395 13.5888V13.5768H9.76395C9.74286 13.5817 9.72391 13.5933 9.70995 13.6098C9.56929 13.6912 9.42662 13.7692 9.28195 13.8438L9.21995 13.8778L9.10995 13.9318C8.7611 14.1021 8.38568 14.2113 7.99995 14.2548L7.98395 14.2568C7.80395 14.2768 7.62395 14.2952 7.44395 14.3118C7.17395 14.3368 7.08395 14.3428 6.90395 14.3548C6.78395 14.3622 6.66395 14.3685 6.54395 14.3738L6.51695 14.3748L6.48895 14.3738H6.38495C6.34962 14.3732 6.31429 14.3745 6.27895 14.3778C6.22595 14.3828 6.21995 14.4038 6.18495 14.4038L6.13195 14.4158C5.82654 14.4892 5.53084 14.5983 5.25095 14.7408L5.27395 14.7298C5.19995 14.7685 5.12729 14.8092 5.05595 14.8518C5.00929 14.8818 4.96295 14.9132 4.91695 14.9458L4.84895 14.9958C4.79802 15.0329 4.75543 15.0803 4.72395 15.1348L4.72295 15.1368L4.71095 15.1648V15.1658L4.70595 15.1808L4.69895 15.2118L4.69795 15.2368L4.69895 15.2628C4.70007 15.2992 4.70612 15.3342 4.71695 15.3688L4.71595 15.3658L4.75095 15.4508C4.77695 15.5155 4.80129 15.5812 4.82395 15.6478V15.6418L4.82895 15.6558V15.6478C4.95395 15.9048 5.07995 16.1218 5.21995 16.3278L5.20795 16.3098L5.20495 16.3068ZM12.602 19.0488C12.602 19.0558 12.602 19.0628 12.612 19.0678C12.622 19.0728 12.612 19.0788 12.612 19.0848C12.6198 19.1197 12.6322 19.1533 12.649 19.1848L12.648 19.1828C12.648 19.1968 12.66 19.1928 12.665 19.2168C12.69 19.2888 12.711 19.3678 12.737 19.4398C12.763 19.5118 12.771 19.5998 12.843 19.6558C12.867 19.7678 12.891 19.7738 13.003 19.7298C13.0667 19.7047 13.1291 19.6764 13.19 19.6448L13.181 19.6498C13.301 19.5958 13.433 19.5248 13.56 19.4768H13.577C13.716 19.4148 13.855 19.3578 13.995 19.2948C14.0843 19.2575 14.1723 19.2198 14.259 19.1818C14.327 19.1438 14.409 19.1068 14.493 19.0758L14.506 19.0718C14.511 19.0718 14.525 19.0668 14.525 19.0648C14.669 18.9968 14.827 18.9278 14.979 18.8598L15.015 18.8378C15.0916 18.8214 15.1643 18.7902 15.229 18.7458L15.227 18.7468L15.321 18.7078L15.453 18.6538C15.4576 18.6532 15.4616 18.6515 15.465 18.6488V18.6538C15.4999 18.644 15.5343 18.6324 15.568 18.6188L15.563 18.6208L15.623 18.5968C15.659 18.5788 15.6966 18.5628 15.736 18.5488L15.794 18.5268C15.8109 18.5222 15.8258 18.5122 15.8365 18.4983C15.8471 18.4844 15.8529 18.4674 15.853 18.4498L15.852 18.4348V18.3798C15.852 18.1265 15.8663 17.8772 15.895 17.6318L15.892 17.6618L15.893 17.6258L15.892 17.5878V17.5898V17.5548L15.893 17.5368L15.892 17.5178L15.891 17.5008L15.892 17.4818C15.892 17.4708 15.897 17.4608 15.899 17.4498L15.904 17.4328V17.4318L15.916 17.3998L15.923 17.3868C15.987 17.2698 16.056 17.1238 16.117 16.9738L16.128 16.9428C16.21 16.8058 16.282 16.6468 16.337 16.4798L16.342 16.4628C16.4 16.2328 16.41 15.9898 16.448 15.7548C16.489 15.5048 16.51 15.2508 16.566 15.0008L16.768 14.0888L16.773 14.0698L16.807 13.9498C16.8297 13.8932 16.8419 13.8329 16.843 13.7718V13.7578C16.843 13.7528 16.85 13.7488 16.85 13.7448V13.7398L16.857 13.7258L16.898 13.5558C16.96 13.3958 17.025 13.2248 17.088 13.0808C17.0911 13.0678 17.0969 13.0556 17.105 13.0448C17.1838 12.9139 17.2456 12.7734 17.289 12.6268L17.293 12.6128C17.3281 12.5772 17.3527 12.5326 17.364 12.4838V12.4818C17.364 12.4818 17.364 12.4778 17.368 12.4748C17.372 12.4718 17.373 12.4678 17.373 12.4648C17.373 12.4578 17.385 12.4478 17.385 12.4408C17.425 12.3638 17.468 12.2648 17.507 12.1648L17.514 12.1428C17.5172 12.1282 17.5237 12.1146 17.533 12.1028C17.587 11.9578 17.706 11.8328 17.703 11.6658C17.7158 11.6455 17.7227 11.6219 17.723 11.5978L17.722 11.5848V11.5858L17.794 11.2758C17.8019 11.2432 17.8083 11.2101 17.813 11.1768L17.814 11.1718C17.8195 11.1439 17.817 11.115 17.8068 11.0884C17.7965 11.0618 17.7789 11.0388 17.756 11.0218C17.5488 10.892 17.3314 10.7793 17.106 10.6848L17.076 10.6738C17.0113 10.6621 16.9523 10.6294 16.908 10.5808C16.9108 10.5749 16.9122 10.5684 16.912 10.5618C16.9492 10.5232 16.9979 10.4976 17.0509 10.4887C17.1038 10.4799 17.1582 10.4884 17.206 10.5128L17.205 10.5118C17.2363 10.5245 17.271 10.5312 17.309 10.5318H17.324C17.331 10.5318 17.334 10.5388 17.341 10.5388C17.348 10.5388 17.353 10.5458 17.36 10.5458L17.612 10.6258H17.622L17.65 10.6308H17.657C17.659 10.6308 17.669 10.6208 17.671 10.6088C17.689 10.4818 17.768 10.3548 17.671 10.2268C17.6684 10.214 17.6633 10.2017 17.656 10.1908C17.6249 10.1662 17.5996 10.1351 17.582 10.0997C17.5643 10.0642 17.5546 10.0253 17.5537 9.98568C17.5527 9.94607 17.5605 9.90674 17.5764 9.87048C17.5924 9.83421 17.6161 9.8019 17.646 9.77584V9.76484C17.6453 9.7615 17.647 9.75817 17.651 9.75484L17.661 9.73984C17.6671 9.73689 17.672 9.73195 17.675 9.72584C17.677 9.7225 17.678 9.71884 17.678 9.71484C17.678 9.7095 17.677 9.70584 17.675 9.70384C17.6715 9.69487 17.6668 9.68645 17.661 9.67884C17.557 9.56884 17.449 9.45884 17.351 9.34484C17.326 9.32084 17.319 9.29884 17.297 9.27984C17.2838 9.26865 17.2698 9.25861 17.255 9.24984L17.253 9.24884C17.145 9.09984 17.013 9.04984 16.853 9.16884C16.745 9.19284 16.649 9.24884 16.533 9.28684C16.509 9.30584 16.437 9.32284 16.413 9.34184C16.3918 9.34648 16.3711 9.35284 16.351 9.36084L16.353 9.35984C16.178 9.41284 16.032 9.46984 15.891 9.53684L15.911 9.52784L15.903 9.52684L15.894 9.52784C15.7433 9.58184 15.592 9.63817 15.44 9.69684L15.385 9.71784L15.366 9.72584L15.292 9.75484C15.174 9.78984 14.884 9.90084 14.86 9.90984C14.723 9.95984 14.718 9.96384 14.759 10.0998C14.7732 10.1428 14.776 10.1887 14.7671 10.2331C14.7581 10.2775 14.7377 10.3188 14.708 10.3528C14.636 10.4428 14.575 10.5428 14.51 10.6358L14.5 10.6428L14.481 10.6638L14.467 10.6898L14.456 10.7308V10.7378L14.463 10.7558C14.466 10.7608 14.463 10.7598 14.463 10.7628C14.463 10.7658 14.463 10.7738 14.47 10.7798C14.477 10.7858 14.482 10.8058 14.487 10.8178C14.5359 10.9485 14.6073 11.0697 14.698 11.1758L14.697 11.1738C14.697 11.1738 14.697 11.1778 14.701 11.1808C14.7066 11.183 14.7115 11.1868 14.715 11.1918C14.7376 11.2345 14.7576 11.2768 14.775 11.3188C14.789 11.3495 14.7976 11.3838 14.801 11.4218V11.4228L14.802 11.4468C14.8006 11.5082 14.7826 11.5618 14.748 11.6078L14.743 11.6118L14.733 11.6218C14.733 11.6218 14.728 11.6218 14.728 11.6268C14.6709 11.7708 14.6238 11.9185 14.587 12.0688L14.581 12.0948V12.1128C14.5676 12.1488 14.5563 12.1848 14.547 12.2208L14.528 12.2978V12.3268L14.527 12.3538L14.528 12.3828V12.3818C14.5326 12.4425 14.5526 12.501 14.586 12.5518L14.585 12.5508C14.592 12.5748 14.595 12.5888 14.602 12.6088C14.646 12.7248 14.689 12.8718 14.723 13.0208L14.728 13.0458C14.728 13.0528 14.738 13.0558 14.738 13.0558C14.7466 13.0852 14.7546 13.1148 14.762 13.1448L14.776 13.2068L14.79 13.2668C14.7955 13.2865 14.7995 13.3066 14.802 13.3268V13.3288C14.8143 13.4025 14.8183 13.4773 14.814 13.5518V13.5488L14.813 13.5668C14.813 13.5828 14.8156 13.5978 14.821 13.6118V13.6108C14.8203 13.6162 14.822 13.6198 14.826 13.6218C14.8318 13.6356 14.8407 13.6479 14.852 13.6578C14.8614 13.6672 14.8727 13.6746 14.885 13.6796C14.8974 13.6846 14.9106 13.687 14.924 13.6868H14.941C14.941 13.6868 14.951 13.6908 14.955 13.6908L15.395 13.8508L15.43 13.8688L15.527 13.9308C15.574 13.9608 15.592 13.9858 15.623 13.9858C15.635 13.9858 15.648 13.9998 15.659 14.0078C15.721 14.0712 15.789 14.1268 15.863 14.1748L15.868 14.1778L15.928 14.2418C15.99 14.3118 16.046 14.3908 16.118 14.4608C16.118 14.4718 16.13 14.4848 16.137 14.4968L16.245 14.6478C16.259 14.6668 16.286 14.6888 16.269 14.7128C16.252 14.7368 16.223 14.7128 16.204 14.7008C16.1182 14.6563 16.028 14.6208 15.935 14.5948L15.925 14.5928V14.5888C15.918 14.5888 15.914 14.5818 15.908 14.5818C15.7708 14.526 15.6269 14.4884 15.48 14.4698L15.471 14.4688V14.4808C15.2188 14.4541 14.9655 14.4411 14.712 14.4418L14.54 14.4438H14.549C14.559 14.4828 14.583 14.4688 14.603 14.4918C14.708 14.5638 14.797 14.6648 14.917 14.7468C14.941 14.7538 14.935 14.7578 14.941 14.7638L14.96 14.7808C15.01 14.8368 15.0653 14.8852 15.126 14.9258L15.129 14.9278C15.139 14.9518 15.148 14.9518 15.158 14.9608L15.168 14.9708C15.244 15.0542 15.3153 15.1438 15.382 15.2398L15.388 15.2488C15.388 15.2488 15.393 15.2538 15.393 15.2558V15.2388L15.431 15.3008C15.4448 15.3303 15.4634 15.3573 15.486 15.3808C15.4901 15.4049 15.5029 15.4266 15.522 15.4418C15.587 15.5608 15.645 15.6988 15.688 15.8438L15.692 15.8598L15.691 15.8798L15.692 15.9008V15.8998C15.745 16.0328 15.783 16.1858 15.799 16.3468L15.8 16.3538C15.8 16.3658 15.807 16.3658 15.807 16.3898H15.8C15.776 16.4738 15.839 16.5578 15.812 16.6468C15.7958 16.6436 15.7812 16.6347 15.771 16.6218C15.7643 16.6152 15.7586 16.6075 15.754 16.5988V16.5978L15.735 16.5568L15.702 16.4768C15.6907 16.4468 15.676 16.4183 15.658 16.3918L15.659 16.3928C15.659 16.3688 15.652 16.3738 15.649 16.3638L15.639 16.3328C15.6003 16.2167 15.5425 16.1079 15.468 16.0108L15.47 16.0128C15.4503 15.9521 15.4118 15.8992 15.36 15.8618L15.359 15.8608C15.2618 15.7183 15.1361 15.5974 14.99 15.5058L14.985 15.5028H14.98L14.963 15.4908C14.939 15.468 14.9129 15.4475 14.885 15.4298L14.883 15.4288C14.8583 15.4115 14.8336 15.3955 14.809 15.3808C14.772 15.3588 14.775 15.3588 14.758 15.3498C14.746 15.3413 14.7324 15.3355 14.718 15.3328C14.6993 15.3328 14.688 15.3495 14.684 15.3828L14.65 15.6228L14.614 15.8628V15.8798C14.5702 16.0345 14.5517 16.1952 14.559 16.3558V16.3528V16.3718C14.5596 16.4065 14.558 16.4408 14.554 16.4748C14.5363 16.5881 14.535 16.7032 14.55 16.8168L14.549 16.8108C14.5493 16.8225 14.5517 16.834 14.556 16.8448V16.8608L14.555 16.9488C14.555 17.0642 14.562 17.1775 14.576 17.2888L14.575 17.2758V17.3018L14.574 17.3148L14.575 17.3278L14.615 17.6558C14.6202 17.6913 14.6235 17.727 14.625 17.7628C14.625 17.7678 14.636 17.7758 14.636 17.7758C14.6413 17.8225 14.6473 17.8672 14.654 17.9098C14.664 17.9738 14.664 18.0028 14.671 18.0488C14.609 17.9868 14.556 17.9408 14.505 17.8888L14.464 17.8358L14.41 17.7758C14.41 17.7638 14.396 17.7508 14.388 17.7398L14.362 17.7048L14.361 17.7038C14.3497 17.6862 14.3403 17.6674 14.333 17.6478L14.332 17.6458L14.31 17.5838C14.279 17.4828 14.24 17.3848 14.204 17.2858L14.205 17.2778L14.204 17.2688C14.1453 17.0132 14.1204 16.751 14.13 16.4888V16.4938H14.105C14.076 16.6488 14.047 16.8138 14.019 16.9598H14.005C13.9702 17.161 13.9532 17.3647 13.954 17.5688C13.954 17.6862 13.9593 17.8018 13.97 17.9158L13.969 17.9008C13.969 17.9298 13.981 17.9588 13.983 17.9868L14.005 18.1598C14.0103 18.1892 14.0143 18.2178 14.017 18.2458L14.026 18.2738V18.2788C14.026 18.2868 14.0286 18.2942 14.034 18.3008L14.046 18.3748C14.052 18.4118 14.053 18.4248 14.058 18.4488C14.062 18.4622 14.065 18.4775 14.067 18.4948V18.4968C14.0663 18.5048 14.068 18.5128 14.072 18.5208C14.0753 18.5408 14.0793 18.5585 14.084 18.5738L14.083 18.5708C14.083 18.5848 14.093 18.6048 14.097 18.6208C14.1063 18.6508 14.1173 18.6782 14.13 18.7028L14.129 18.7008C14.136 18.7008 14.14 18.7008 14.147 18.7258C14.111 18.7728 14.1 18.7208 14.075 18.7208V18.7018H14.07C14.044 18.6746 14.0196 18.6459 13.997 18.6158L13.995 18.6138C13.915 18.4818 13.835 18.3428 13.75 18.2218H13.745C13.6981 18.0593 13.6375 17.9011 13.564 17.7488L13.572 17.7678C13.548 17.6878 13.532 17.6078 13.512 17.5278C13.5104 17.4616 13.4979 17.396 13.475 17.3338L13.476 17.3378V17.2998C13.469 17.2158 13.454 17.1318 13.443 17.0478C13.4199 16.938 13.4203 16.8245 13.444 16.7148L13.443 16.7198C13.447 16.6908 13.46 16.6458 13.421 16.6398L13.415 16.6388L13.409 16.6398C13.383 16.6398 13.368 16.6738 13.351 16.6948C13.301 16.7628 13.26 16.8318 13.214 16.8998C13.204 16.9165 13.1926 16.9332 13.18 16.9498C13.156 16.9832 13.1313 17.0158 13.106 17.0478C13.0892 17.0611 13.0747 17.077 13.063 17.0948L13.062 17.0958C13.05 17.0958 13.037 17.1098 13.014 17.1178C12.966 17.1678 12.884 17.1978 12.868 17.2858V17.3028C12.8116 17.4461 12.7619 17.592 12.719 17.7398C12.715 17.7588 12.701 17.7788 12.701 17.7978C12.653 17.8818 12.629 17.9668 12.59 18.0378C12.573 18.0848 12.559 18.1178 12.543 18.1528C12.527 18.1878 12.511 18.2328 12.495 18.2678C12.479 18.3028 12.44 18.3588 12.42 18.4068C12.4206 18.4122 12.4193 18.4182 12.416 18.4248C12.412 18.4355 12.4096 18.4465 12.409 18.4578C12.4047 18.4813 12.4047 18.5054 12.409 18.5288C12.433 18.6068 12.46 18.6728 12.492 18.7368L12.489 18.7298C12.513 18.8308 12.549 18.9288 12.583 19.0298H12.578L12.591 19.0458L12.602 19.0488ZM5.88195 17.4308C5.87395 17.6508 5.85395 17.8578 5.82295 18.0618L5.82695 18.0308V18.0428L5.85095 18.0498C5.92562 17.9012 5.99995 17.7515 6.07395 17.6008L6.07995 17.5778C6.07989 17.5706 6.07825 17.5634 6.07514 17.5569C6.07203 17.5503 6.06753 17.5445 6.06195 17.5398L6.04795 17.5258L5.93595 17.4158C5.92829 17.4068 5.91765 17.4008 5.90595 17.3988C5.89529 17.3988 5.88862 17.4095 5.88595 17.4308H5.88195ZM13.718 17.2898C13.7456 17.2393 13.762 17.1833 13.766 17.1258V17.1238C13.795 16.9558 13.82 16.7898 13.852 16.6218C13.863 16.5638 13.914 16.4878 13.871 16.4538C13.8696 16.4545 13.867 16.4528 13.863 16.4488L13.852 16.4348C13.816 16.4058 13.746 16.4688 13.692 16.4878C13.659 16.4998 13.623 16.5128 13.625 16.5678C13.635 16.8258 13.662 17.0688 13.704 17.3058L13.699 17.2738L13.711 17.2508L13.718 17.2898ZM9.51995 11.8258C9.53195 11.8265 9.54062 11.8442 9.54595 11.8788C9.56501 11.9758 9.56421 12.0755 9.54358 12.1721C9.52295 12.2687 9.48294 12.3602 9.42595 12.4408L9.42795 12.4388C9.25454 12.6485 9.03334 12.8134 8.78295 12.9198L8.77195 12.9238C8.36595 13.1378 7.89195 13.3258 7.39695 13.4628L7.34595 13.4748C6.98795 13.5728 6.61795 13.6258 6.25795 13.7148C5.79045 13.7885 5.33372 13.9192 4.89795 14.1038L4.93595 14.0898C4.70364 14.2018 4.51662 14.3899 4.40595 14.6228L4.40295 14.6298C4.34834 14.7421 4.33592 14.8702 4.36795 14.9908L4.36695 14.9868L4.37695 15.0238V15.0228C4.4242 14.9147 4.4797 14.8104 4.54295 14.7108L4.53695 14.7208C4.69995 14.5068 4.93795 14.3578 5.21095 14.3108L5.21695 14.3098C5.44695 14.2688 5.68095 14.2488 5.91095 14.2198C6.54495 14.1398 7.18495 14.1258 7.81695 14.0328C8.33281 13.9832 8.83048 13.8163 9.27195 13.5448L9.25695 13.5528C9.59895 13.3558 9.89495 13.1418 10.165 12.8998L10.16 12.9048C10.4518 12.6485 10.658 12.309 10.751 11.9318L10.754 11.9188C10.7977 11.7811 10.7855 11.6316 10.72 11.5028L10.721 11.5058C10.6327 11.3555 10.5251 11.2173 10.401 11.0948L10.388 11.0818C9.98649 10.6918 9.44872 10.4736 8.88895 10.4738H8.85595H8.85795C8.63929 10.4812 8.41929 10.4868 8.19795 10.4908C7.99953 10.4935 7.80201 10.5179 7.60895 10.5638L7.62695 10.5598C6.86909 10.7388 6.16276 11.0902 5.56295 11.5868L5.57095 11.5798C5.20195 11.8908 4.86895 12.2058 4.55395 12.5388L4.54895 12.5448C4.53376 12.5607 4.52035 12.5781 4.50895 12.5968L4.50795 12.5978C4.29462 12.9385 4.07929 13.2792 3.86195 13.6198C3.82434 13.6797 3.7976 13.7457 3.78295 13.8148L3.78195 13.8188L3.75795 13.8358V13.8418L3.78395 13.8228C3.78262 13.8348 3.77995 13.8478 3.77595 13.8618C3.83095 13.8208 3.87295 13.7938 3.90595 13.7638C4.1817 13.5367 4.50291 13.3713 4.84795 13.2788L4.86595 13.2748C5.26185 13.1411 5.67381 13.0607 6.09095 13.0358L6.10495 13.0348C6.72274 12.9789 7.33442 12.8688 7.93295 12.7058L7.85895 12.7228C8.23248 12.6419 8.58911 12.4968 8.91295 12.2938L8.89895 12.3018C9.11295 12.1568 9.29995 12.0098 9.47495 11.8498L9.47095 11.8528C9.48384 11.8397 9.5001 11.8303 9.51795 11.8258H9.51995ZM13.56 14.7058C13.8369 14.733 14.1162 14.7216 14.39 14.6718L14.371 14.6748L14.34 14.6568L14.346 14.6558L14.352 14.6568C14.1582 14.5258 13.9263 14.4631 13.693 14.4788H13.696C13.4625 14.5318 13.222 14.5463 12.984 14.5218L12.993 14.5228C12.964 14.5188 12.939 14.5108 12.913 14.5088L12.838 14.5048C12.8506 14.5102 12.8626 14.5162 12.874 14.5228H12.857C12.9892 14.6154 13.144 14.6706 13.305 14.6828H13.327C13.411 14.6862 13.4913 14.6938 13.568 14.7058L13.556 14.7048L13.56 14.7058ZM10.992 11.9638C10.97 12.0338 10.9493 12.1035 10.93 12.1728C10.8533 12.4062 10.86 12.6589 10.949 12.8878L10.947 12.8808V12.8908C10.9975 12.9952 11.0659 13.0899 11.149 13.1708L11.207 13.2258C11.452 13.4628 11.736 13.6598 12.05 13.8058L12.069 13.8138C12.318 13.9328 12.614 14.0418 12.92 14.1248L12.958 14.1338C13.069 14.1619 13.184 14.1707 13.298 14.1598H13.294C13.582 14.1178 13.914 14.0928 14.253 14.0918H14.315C14.6056 14.0918 14.892 14.1085 15.174 14.1418L15.14 14.1388L15.116 14.1198H15.115H15.121C15.0157 14.0312 14.8867 13.9755 14.75 13.9598H14.747C14.1856 13.9029 13.6283 13.812 13.078 13.6878L13.172 13.7058C12.945 13.6585 12.7321 13.5593 12.55 13.4158L12.553 13.4178C12.2756 13.1845 12.003 12.9465 11.735 12.7038C11.605 12.5858 11.471 12.4768 11.345 12.3558C11.2258 12.2422 11.1261 12.1098 11.05 11.9638L11.046 11.9558C11.0393 11.9418 11.032 11.9338 11.024 11.9318H11.02C11.006 11.9305 10.996 11.9405 10.99 11.9618L10.992 11.9638ZM7.41795 13.1438L6.89495 13.2298C6.49495 13.2758 6.10095 13.3258 5.70495 13.3688C5.44424 13.3834 5.18791 13.4422 4.94695 13.5428L4.96195 13.5368L4.42195 13.7898C4.36519 13.8071 4.31682 13.8447 4.28616 13.8955C4.25551 13.9463 4.24475 14.0066 4.25595 14.0648L4.25495 14.0728L4.25595 14.0828C4.25995 14.1055 4.27429 14.1088 4.29895 14.0928L4.36295 14.0488L4.36195 14.0498C4.68249 13.806 5.05529 13.64 5.45095 13.5648L5.46695 13.5618C6.03295 13.4558 6.60495 13.3748 7.16395 13.2348C7.29195 13.2135 7.40862 13.1765 7.51395 13.1238L7.50695 13.1268L7.41795 13.1438ZM11.218 10.9948V11.2608L11.217 11.2698L11.218 11.2788L11.217 11.2858L11.218 11.2928V11.4178C11.2186 11.4232 11.217 11.4288 11.213 11.4348L11.208 11.4498C11.2086 11.4565 11.2073 11.4615 11.204 11.4668L11.199 11.4808V11.4818L11.192 11.4988V11.4998C11.1812 11.5341 11.1815 11.5708 11.193 11.6048V11.6138L11.192 11.6188L11.193 11.6238V11.6278C11.2023 11.6492 11.2103 11.6695 11.217 11.6888L11.253 11.7828C11.273 11.8362 11.2936 11.8875 11.315 11.9368C11.335 11.9782 11.3616 12.0132 11.395 12.0418C11.697 12.3338 12.0223 12.6005 12.371 12.8418L12.397 12.8588C12.588 13.0198 12.806 13.1588 13.042 13.2648L13.059 13.2718C13.263 13.3468 13.459 13.4318 13.673 13.5118L13.839 13.5658H13.845C14.025 13.6248 14.233 13.6638 14.448 13.6758H14.454C14.485 13.6758 14.54 13.7058 14.544 13.6358C14.5446 13.6292 14.5433 13.6218 14.54 13.6138C14.544 13.5973 14.5445 13.5801 14.5414 13.5634C14.5383 13.5467 14.5317 13.5308 14.522 13.5168L14.512 13.5028C14.512 13.4888 14.505 13.4738 14.502 13.4598C14.3946 12.9922 14.1228 12.5787 13.736 12.2948L13.73 12.2908L13.461 12.0848C13.3282 11.9787 13.1867 11.884 13.038 11.8018L13.022 11.7938L12.96 11.7628H12.959V11.7638C12.679 11.6368 12.3 11.5648 12.073 11.4508L12.055 11.4418H12.054C12.0319 11.4345 12.0122 11.4214 11.997 11.4038L11.985 11.3898C11.974 11.3778 11.963 11.3678 11.968 11.3658L12.119 11.3998C12.241 11.4198 12.349 11.4478 12.453 11.4838L12.439 11.4798L12.538 11.5058C12.951 11.6148 13.311 11.7628 13.647 11.9498L13.623 11.9378C13.7216 11.9925 13.821 12.0458 13.921 12.0978C13.9335 12.1051 13.9475 12.1095 13.962 12.1108L13.972 12.1098C13.9792 12.107 13.9854 12.1021 13.99 12.0958C14.007 12.0748 13.99 12.0558 13.976 12.0378L13.753 11.7238C13.7218 11.6808 13.6823 11.6444 13.637 11.6168L13.635 11.6158C13.414 11.4818 13.193 11.3448 12.972 11.2158C12.8876 11.1659 12.8008 11.1202 12.712 11.0788L12.694 11.0718C12.54 10.9718 12.351 10.9118 12.148 10.9118H12.143C12.016 10.8915 11.8874 10.8835 11.759 10.8878H11.762C11.722 10.8872 11.6813 10.8888 11.64 10.8928H11.565C11.485 10.8928 11.405 10.8988 11.325 10.8968H11.317C11.239 10.8868 11.212 10.9188 11.215 10.9978L11.218 10.9948ZM7.97395 8.70184C7.83595 8.74384 7.69762 8.78317 7.55895 8.81984L7.44095 8.85584C7.38295 8.87584 7.32529 8.8975 7.26795 8.92084L7.23795 8.93284L7.12795 8.97984C7.07295 9.00384 7.06995 9.01284 7.04195 9.03084C6.73995 9.21084 6.47795 9.40284 6.23695 9.61884L6.24195 9.61484L6.17495 9.67684L6.16295 9.68684C6.07195 9.75984 6.00295 9.82884 5.92295 9.89684L5.89695 9.92684C5.8562 9.95656 5.81776 9.98932 5.78195 10.0248C5.70195 10.1218 5.61595 10.2148 5.53195 10.3108C5.44795 10.4068 5.36595 10.5028 5.28495 10.5988C5.20395 10.6948 5.12495 10.7928 5.04495 10.8938L4.96495 10.9948C4.91562 11.0628 4.86695 11.1315 4.81895 11.2008C4.72748 11.3324 4.644 11.4693 4.56895 11.6108L4.55695 11.6358C4.48136 11.7814 4.43194 11.9391 4.41095 12.1018L4.40995 12.1088C4.50729 12.0268 4.59595 11.9388 4.67595 11.8448L4.67895 11.8418C4.83895 11.7078 4.99195 11.5588 5.14295 11.4128L5.20795 11.3468L5.21795 11.3388C5.28995 11.2588 5.36862 11.1872 5.45395 11.1238L5.45795 11.1208C5.75395 10.9048 6.09095 10.7128 6.44995 10.5618L6.48295 10.5498L6.50095 10.5458C6.56295 10.5232 6.62329 10.4982 6.68195 10.4708C6.79295 10.4128 6.92195 10.3648 7.05695 10.3328L7.06895 10.3308C7.27795 10.2918 7.48995 10.2588 7.69995 10.2178C7.96349 10.1583 8.23277 10.1278 8.50295 10.1268C8.86095 10.1402 9.20329 10.1942 9.52795 10.2888L9.49895 10.2818C9.91895 10.4058 10.273 10.6448 10.536 10.9618L10.539 10.9658L10.755 11.2158C10.766 11.2298 10.773 11.2468 10.788 11.2518C10.803 11.2568 10.81 11.2468 10.818 11.2178C10.879 11.0478 10.914 10.8518 10.914 10.6468V10.6238V10.6248C10.8947 10.4082 10.8494 10.1946 10.779 9.98884L10.785 10.0078C10.6956 9.73205 10.5361 9.48425 10.322 9.28884L10.321 9.28784C10.2578 9.2296 10.191 9.17549 10.121 9.12584L10.115 9.12184C10.082 9.09584 10.043 9.07484 10.007 9.04984L9.89495 8.98484C9.83895 8.9515 9.78129 8.92117 9.72195 8.89384L9.66395 8.86484L9.42395 8.75684C9.24837 8.66772 9.05784 8.61179 8.86195 8.59184L8.85495 8.59084H8.71395C8.44995 8.59217 8.19862 8.63084 7.95995 8.70684L7.97795 8.70184H7.97395ZM12.047 11.4378C12.051 11.4228 12.068 11.4258 12.08 11.4198L12.051 11.4108H12.052C12.046 11.4128 12.042 11.4198 12.047 11.4408V11.4378ZM12.49 10.6818C12.614 10.7052 12.7273 10.7398 12.83 10.7858L12.821 10.7818C13.09 10.9048 13.312 11.0238 13.525 11.1538L13.496 11.1368C13.5514 11.1764 13.6107 11.2103 13.673 11.2378L13.679 11.2408L13.712 11.2538C13.5391 10.9861 13.3522 10.7277 13.152 10.4798C13.0316 10.3263 12.8894 10.1912 12.73 10.0788L12.724 10.0748C12.6935 10.0403 12.6555 10.0133 12.613 9.99584L12.611 9.99484C12.3738 9.89238 12.1291 9.80847 11.879 9.74384L11.84 9.73484L11.825 9.72984H11.826C11.625 9.67371 11.4111 9.68602 11.218 9.76484L11.224 9.76284C11.183 9.77684 11.154 9.79584 11.169 9.84284C11.2272 10.074 11.2474 10.3131 11.229 10.5508V10.5438C11.229 10.6052 11.259 10.6355 11.319 10.6348C11.403 10.6348 11.489 10.6418 11.574 10.6348C11.6806 10.6255 11.7856 10.6208 11.889 10.6208C12.1016 10.6222 12.308 10.6432 12.508 10.6838L12.488 10.6808L12.49 10.6818ZM1.03495 11.0018C1.04877 10.9678 1.05623 10.9315 1.05695 10.8948V10.8888C1.05762 10.8835 1.05629 10.8788 1.05295 10.8748L1.05395 10.8808L1.05295 10.8868L1.05395 10.9038C1.05441 10.9365 1.04685 10.9688 1.03195 10.9978L1.03295 10.9968L1.03495 11.0018ZM0.580953 8.50184C0.580953 8.50717 0.579286 8.51184 0.575953 8.51584C0.57662 8.52517 0.575287 8.53584 0.571953 8.54784C0.521953 9.02784 0.470953 9.50084 0.417953 9.97684C0.410953 10.0368 0.424953 10.0628 0.467953 10.0748L0.502953 10.0798C1.17829 10.1705 1.85262 10.2632 2.52395 10.3578L3.19995 10.4538L4.23995 10.5958L4.24995 10.5968L4.25995 10.5958C4.29995 10.5958 4.30695 10.5578 4.31795 10.5218L4.59595 9.60984C4.61795 9.54484 4.59595 9.52584 4.53595 9.50884L2.59795 8.99984L0.659953 8.49084C0.64784 8.48455 0.634568 8.4808 0.620953 8.47984H0.616953C0.609669 8.47997 0.602559 8.48209 0.596391 8.48596C0.590223 8.48984 0.58523 8.49533 0.581953 8.50184H0.580953ZM17.799 7.24184L13.545 8.48784C13.473 8.50684 13.483 8.53384 13.511 8.58484C13.7336 8.9755 13.9543 9.3675 14.173 9.76084C14.198 9.80384 14.216 9.82184 14.253 9.81584L14.295 9.80584L14.292 9.80684C15.412 9.4135 16.5353 9.0235 17.662 8.63684C17.6886 8.62917 17.7121 8.6132 17.729 8.59125C17.7459 8.56931 17.7553 8.54253 17.756 8.51484V8.50684L17.799 7.97084C17.818 7.73084 17.84 7.49084 17.861 7.23184V7.22784L17.797 7.24184H17.799ZM6.31995 3.49484C5.97795 3.73184 5.58595 3.94484 5.17195 4.11384L5.13095 4.12884C4.92845 4.1865 4.75455 4.31728 4.64295 4.49584L4.64095 4.49984C4.63595 4.50984 4.61895 4.51384 4.60895 4.52184C4.48595 4.59584 4.34195 4.65184 4.18795 4.68084L4.17995 4.68184L4.15595 4.68284L4.13095 4.68184H4.12295C4.09774 4.68202 4.07297 4.68855 4.05095 4.70084C3.19029 5.24217 2.32929 5.7795 1.46595 6.31284C1.41595 6.34384 1.40595 6.36784 1.43295 6.42284C1.59295 6.75484 1.73495 7.09584 1.92495 7.41284C1.94302 7.43443 1.95292 7.46168 1.95292 7.48984C1.95292 7.51799 1.94302 7.54524 1.92495 7.56684C1.77102 7.80575 1.66977 8.07472 1.62795 8.35584L1.62695 8.36684C1.58695 8.43384 1.59395 8.47484 1.68195 8.48584C1.73995 8.49284 1.79295 8.51084 1.84795 8.52184C2.28995 8.63984 2.72795 8.75184 3.17795 8.85584C3.21172 8.87659 3.25199 8.88407 3.29095 8.87684C3.30995 8.86984 3.30795 8.85184 3.30795 8.83784L3.30895 8.82884L3.30795 8.81884L3.58195 7.90384C3.58862 7.85699 3.60957 7.81334 3.64195 7.77884C3.70093 7.73412 3.74877 7.67637 3.78173 7.61011C3.81469 7.54384 3.83188 7.47085 3.83195 7.39684C3.83595 7.33584 3.85595 7.27884 3.86095 7.21884C3.86093 7.18482 3.87112 7.15057 3.89019 7.12241C3.90927 7.09424 3.93636 7.07244 3.96795 7.05984H3.96895C4.30495 6.90184 4.58995 6.68584 4.82095 6.42284L4.82395 6.41984C4.88216 6.3604 4.93075 6.29225 4.96795 6.21784L4.96995 6.21384C5.17095 5.78384 5.37895 5.42084 5.61295 5.07584L5.59395 5.10484C5.85095 4.69084 6.14195 4.33184 6.47195 4.01484L6.47395 4.01284C6.55459 3.93492 6.60998 3.83459 6.63295 3.72484L6.63395 3.72084C6.6405 3.68973 6.64022 3.65759 6.63315 3.6266C6.62608 3.59562 6.61238 3.56653 6.59299 3.54135C6.57361 3.51616 6.54899 3.49548 6.52085 3.48072C6.4927 3.46595 6.46169 3.45747 6.42995 3.45584C6.39032 3.45648 6.351 3.47019 6.31995 3.49484ZM14.257 6.72384C14.3716 7.04717 14.4893 7.3695 14.61 7.69084C14.632 7.75284 14.653 7.77084 14.723 7.75184C15.2043 7.6045 15.6866 7.4595 16.17 7.31684C16.245 7.29484 16.256 7.26684 16.231 7.19484C16.0296 6.64108 15.8061 6.09564 15.561 5.55984C15.5431 5.52784 15.5329 5.49218 15.531 5.45561C15.5291 5.41904 15.5356 5.38251 15.55 5.34884L15.549 5.35084C15.6664 5.09883 15.7085 4.8182 15.67 4.54284L15.671 4.54984C15.654 4.41084 15.681 4.27184 15.664 4.12784C15.598 3.7284 15.5078 3.33334 15.394 2.94484L15.412 3.01384C15.2823 2.5936 15.115 2.18595 14.912 1.79584L14.932 1.83684C14.7952 1.56402 14.643 1.29926 14.476 1.04384L14.496 1.07584C14.412 0.929836 14.313 0.790836 14.234 0.639836C14.1719 0.498105 14.0627 0.382213 13.925 0.311836L13.921 0.309836C13.88 0.291836 13.83 0.255836 13.799 0.295836C13.7746 0.318967 13.7572 0.348461 13.7487 0.38098C13.7402 0.413499 13.741 0.447743 13.751 0.479836C13.804 0.606836 13.861 0.732836 13.911 0.860836C14.062 1.16084 14.204 1.51584 14.316 1.88484L14.329 1.93384C14.364 2.05884 14.393 2.20884 14.412 2.36284L14.413 2.37784C14.417 2.43284 14.413 2.49284 14.355 2.51484C14.297 2.53684 14.29 2.47184 14.261 2.44084C14.153 2.32284 14.011 2.20584 13.843 2.27484C13.7917 2.29604 13.7351 2.30093 13.681 2.28884H13.683C13.647 2.28184 13.603 2.27184 13.593 2.23084C13.583 2.18984 13.622 2.16584 13.653 2.14484C13.6843 2.13001 13.7135 2.11119 13.74 2.08884C13.776 2.05584 13.801 2.00884 13.763 1.96384C13.6811 1.84463 13.5865 1.73465 13.481 1.63584L13.48 1.63484C13.2491 1.45034 13.0102 1.27617 12.764 1.11284C12.2876 0.82348 11.7988 0.55522 11.299 0.308836C11.2427 0.275235 11.1784 0.257602 11.113 0.257836H11.099H11.1C11.054 0.262836 11.002 0.257836 10.98 0.312836C10.969 0.337715 10.9656 0.365241 10.97 0.392055C10.9744 0.418868 10.9866 0.44381 11.005 0.463836C11.0524 0.525595 11.1099 0.578995 11.175 0.621836L11.178 0.623836C11.411 0.741836 11.606 0.857836 11.792 0.984836L11.773 0.972836C12.133 1.24684 12.493 1.52684 12.839 1.81784C12.949 1.91184 13.05 2.01284 13.151 2.11584L13.332 2.30284C13.3511 2.32323 13.3657 2.34742 13.375 2.37384L13.376 2.37984L13.375 2.38484L13.376 2.39584L13.375 2.40684C13.3708 2.42804 13.36 2.44733 13.344 2.46184C13.286 2.51984 13.228 2.49084 13.174 2.45684C13.1523 2.43928 13.1325 2.41951 13.115 2.39784L13.114 2.39684L13.085 2.36784C13.038 2.31984 12.995 2.27184 12.944 2.22584L12.882 2.17584L12.076 1.57384C11.674 1.27284 11.538 1.17384 11.272 0.968836C11.1276 0.8585 10.9725 0.763016 10.809 0.683836L10.792 0.676836C10.7815 0.66896 10.7696 0.663313 10.7569 0.660246C10.7443 0.657179 10.7311 0.656759 10.7182 0.659011C10.7054 0.661262 10.6931 0.666138 10.6822 0.673334C10.6713 0.68053 10.6621 0.689892 10.655 0.700836C10.631 0.72568 10.6157 0.757606 10.6114 0.791849C10.6071 0.826091 10.6139 0.860814 10.631 0.890836C10.687 1.00084 10.76 1.09217 10.85 1.16684L10.851 1.16784C10.9763 1.27117 11.092 1.3775 11.198 1.48684L11.199 1.48784C11.703 2.04784 12.217 2.59784 12.705 3.16784C12.7378 3.20502 12.7593 3.25082 12.767 3.29984V3.30084C12.781 3.39784 12.733 3.43784 12.641 3.40684C12.6226 3.39884 12.6049 3.38948 12.588 3.37884L12.59 3.37984C11.89 2.99984 11.311 2.63984 10.752 2.25184L10.816 2.29384C10.6559 2.18287 10.4854 2.08776 10.307 2.00984L10.288 2.00184C10.23 1.97584 10.168 1.94384 10.12 2.01584C10.1034 2.04862 10.0987 2.08609 10.1065 2.12196C10.1143 2.15783 10.1343 2.18992 10.163 2.21284C10.379 2.37284 10.577 2.56084 10.782 2.73884C11.2686 3.1135 11.6913 3.53784 12.05 4.01184L12.062 4.02884C12.1024 4.06827 12.1539 4.09454 12.2096 4.10417C12.2653 4.11381 12.3226 4.10637 12.374 4.08284L12.372 4.08384C12.5631 3.9539 12.7889 3.88456 13.02 3.88484H13.04H13.039H13.101C13.1156 3.88484 13.1283 3.88884 13.139 3.89684L13.153 3.91784C13.179 3.97584 13.117 3.98984 13.084 4.01184C12.868 4.15384 12.649 4.28984 12.433 4.43384C12.4095 4.45184 12.3821 4.46382 12.353 4.4687C12.3238 4.47358 12.294 4.47123 12.266 4.46184H12.267C12.1676 4.42542 12.0635 4.40353 11.958 4.39684H11.955C11.47 4.40984 11.006 4.45684 10.553 4.53484L10.61 4.52684C10.5073 4.53492 10.4071 4.56276 10.315 4.60884L10.32 4.60684C10.2952 4.62103 10.2755 4.64271 10.2639 4.66876C10.2522 4.69481 10.2491 4.7239 10.255 4.75184C10.26 4.79784 10.272 4.84684 10.339 4.85884C10.617 4.91184 10.893 4.97184 11.172 5.02884C11.258 5.05484 11.36 5.07584 11.466 5.08784L11.475 5.08884C11.795 5.28684 12.106 5.48884 12.409 5.71484C12.58 5.84884 12.787 5.94484 13.012 5.98784L13.021 5.98884C13.127 6.00584 13.23 6.03584 13.334 6.06284C13.4826 6.0775 13.618 6.11684 13.74 6.18084L13.734 6.17784C13.8286 6.27917 13.9 6.39684 13.948 6.53084L13.95 6.53784C13.988 6.61784 14.036 6.65584 14.125 6.63484C14.136 6.63156 14.1475 6.63021 14.159 6.63084C14.215 6.62584 14.24 6.66084 14.258 6.71684L14.257 6.72384ZM0.348953 2.58684C0.326303 2.59491 0.307149 2.61058 0.294751 2.63118C0.282353 2.65178 0.277477 2.67604 0.280953 2.69984V2.69884C0.319953 2.90384 0.341953 3.11284 0.393953 3.31084C0.621953 4.17284 0.909953 5.01584 1.18395 5.86384C1.20795 5.93584 1.23195 5.92884 1.28995 5.89784L3.42895 4.69184L3.70695 4.53184C3.40924 4.34901 3.12242 4.14901 2.84795 3.93284L2.86695 3.94784C2.84495 4.04584 2.82395 4.12584 2.80695 4.20484C2.80581 4.21904 2.79965 4.23238 2.78957 4.24246C2.77949 4.25253 2.76616 4.25869 2.75195 4.25984C2.68295 4.26984 2.65595 4.20984 2.61795 4.16984C2.57995 4.12984 2.54995 4.08984 2.57195 4.04384C2.63295 3.91384 2.66595 3.77384 2.71895 3.64384C2.77195 3.51384 2.77295 3.50684 2.88895 3.59384C2.89962 3.60117 2.90929 3.60917 2.91795 3.61784C3.16295 3.87484 3.44795 4.09084 3.76495 4.25484L3.78295 4.26284C3.84847 4.30992 3.92811 4.33321 4.00868 4.32884C4.08924 4.32448 4.1659 4.29272 4.22595 4.23884C4.23529 4.23217 4.24562 4.22584 4.25695 4.21984C4.26383 4.21684 4.27073 4.21197 4.27498 4.20578C4.27922 4.19959 4.28164 4.19233 4.28195 4.18484C4.26486 4.10653 4.22919 4.03347 4.17795 3.97184L4.17895 3.97284C4.00295 3.82684 3.84295 3.66784 3.67695 3.50584C3.43753 3.28976 3.22378 3.04683 3.03995 2.78184L3.03095 2.76784C2.98237 2.68348 2.92173 2.60667 2.85095 2.53984C2.82814 2.51608 2.80002 2.49808 2.7689 2.48732C2.73778 2.47656 2.70454 2.47334 2.67193 2.47793C2.63932 2.48251 2.60827 2.49478 2.58133 2.51371C2.55438 2.53265 2.53232 2.55771 2.51695 2.58684L2.51595 2.58784C2.38195 2.83784 2.20395 3.05784 2.06495 3.30784C1.91395 3.57884 1.72295 3.82584 1.58495 4.10784C1.57261 4.13291 1.56628 4.16051 1.56645 4.18845C1.56662 4.2164 1.5733 4.24392 1.58595 4.26884C1.65495 4.40584 1.71995 4.56784 1.77195 4.73684L1.77795 4.75984C1.78795 4.79884 1.79695 4.83184 1.74395 4.85084C1.69095 4.86984 1.68195 4.84084 1.66395 4.80984C1.56595 4.64384 1.46195 4.48184 1.37095 4.31284C1.08239 3.71681 0.754671 3.14055 0.389953 2.58784L0.425953 2.64484C0.409953 2.62484 0.403953 2.57884 0.374953 2.57884L0.351953 2.58584L0.348953 2.58684ZM4.43495 2.98684C4.24795 3.07284 4.11495 3.23584 3.93495 3.33684C3.88795 3.36284 3.91095 3.39084 3.93495 3.41684L4.47495 4.03584C4.48684 4.05113 4.49723 4.06754 4.50595 4.08484L4.50695 4.08684L4.55495 4.06684L4.55295 4.06784L4.80995 3.90784C4.83895 3.89084 4.83595 3.86984 4.82695 3.84284C4.72595 3.56684 4.64495 3.28284 4.52495 3.01284C4.51162 2.98284 4.49729 2.9685 4.48195 2.96984C4.46519 2.97113 4.44903 2.97764 4.43495 2.98684ZM5.26195 1.68884C5.22595 1.70784 5.19195 1.73184 5.15595 1.75084C4.84047 1.93724 4.51498 2.10616 4.18095 2.25684L4.11595 2.28284C3.86295 2.38384 3.61395 2.48784 3.35895 2.57784C3.32995 2.58984 3.26895 2.58784 3.31295 2.64284L3.67095 3.10684C3.68895 3.13084 3.70895 3.14784 3.74295 3.13084C3.93195 3.05084 4.09195 2.96284 4.24395 2.86184L4.23295 2.86884C4.60362 2.57484 4.96229 2.2675 5.30895 1.94684C5.36295 1.89684 5.40295 1.84584 5.38895 1.78684C5.38895 1.72884 5.40595 1.67884 5.35795 1.65284C5.35136 1.64874 5.34371 1.64666 5.33595 1.64684C5.30995 1.64584 5.28695 1.67884 5.26195 1.68784V1.68884ZM12.8 23.7878C12.4545 23.7687 12.1254 23.6346 11.865 23.4068L11.867 23.4088C11.8037 23.3677 11.7592 23.3032 11.7431 23.2295C11.727 23.1557 11.7406 23.0786 11.781 23.0148L11.78 23.0158C11.828 22.9298 11.902 22.9298 11.984 22.9358C12.05 22.9358 12.104 22.9868 12.109 23.0508C12.1217 23.0999 12.1498 23.1437 12.189 23.1758C12.2943 23.2758 12.4166 23.3518 12.556 23.4038L12.563 23.4058C12.6082 23.4245 12.6587 23.4259 12.705 23.4098C12.785 23.3838 12.809 23.3298 12.762 23.2588C12.694 23.1608 12.618 23.0668 12.546 22.9728C12.4433 22.8479 12.3526 22.7136 12.275 22.5718L12.268 22.5578C12.2179 22.4748 12.1984 22.3769 12.2128 22.2811C12.2272 22.1852 12.2747 22.0974 12.347 22.0328C12.4665 21.9084 12.629 21.8342 12.8013 21.8251C12.9736 21.816 13.1429 21.8727 13.275 21.9838L13.274 21.9828C13.3058 22.0035 13.331 22.0329 13.3468 22.0674C13.3625 22.1019 13.3682 22.1402 13.363 22.1778C13.334 22.3378 13.223 22.3928 13.093 22.2918C13.0449 22.248 12.9861 22.2176 12.9226 22.2038C12.859 22.1899 12.7929 22.193 12.731 22.2128L12.734 22.2118C12.588 22.2598 12.547 22.3508 12.636 22.4758C12.748 22.6358 12.876 22.7958 12.993 22.9508C13.0676 23.0422 13.13 23.1442 13.18 23.2568L13.183 23.2658C13.2052 23.324 13.2129 23.3867 13.2055 23.4485C13.1981 23.5104 13.1758 23.5694 13.1404 23.6207C13.1051 23.672 13.0578 23.7139 13.0027 23.7428C12.9476 23.7718 12.8862 23.7869 12.824 23.7868L12.803 23.7858L12.8 23.7878ZM13.44 23.7588C13.4065 23.7435 13.3798 23.7163 13.3651 23.6826C13.3503 23.6488 13.3485 23.6108 13.36 23.5758C13.458 23.2298 13.552 22.8808 13.658 22.5368C13.708 22.3768 13.773 22.2268 13.961 22.1788C13.9719 22.1734 13.9804 22.1641 13.985 22.1528C14.0135 22.0798 14.0634 22.0171 14.1282 21.9728C14.1929 21.9286 14.2695 21.9049 14.348 21.9048H14.365C14.6441 21.8805 14.9239 21.8812 15.203 21.9068L15.185 21.9058C15.31 21.9098 15.336 21.9858 15.265 22.0898C15.2188 22.1534 15.152 22.199 15.076 22.2188L15.074 22.2198C14.8886 22.2725 14.6966 22.2981 14.504 22.2958L14.436 22.2948H14.439H14.359C14.3023 22.2892 14.2452 22.2933 14.19 22.3068L14.193 22.3058C14.103 22.3378 14.153 22.4528 14.113 22.5148C14.0895 22.557 14.0691 22.6008 14.052 22.6458L14.05 22.6518C14.21 22.6378 14.357 22.6228 14.504 22.6118C14.5685 22.6073 14.6334 22.6073 14.698 22.6118H14.693C14.773 22.6118 14.804 22.6598 14.797 22.7378C14.7929 22.7882 14.7743 22.8363 14.7434 22.8762C14.7125 22.9162 14.6707 22.9463 14.623 22.9628L14.621 22.9638C14.488 23.0125 14.3475 23.0372 14.206 23.0368L14.147 23.0358H14.15C13.934 23.0358 13.916 23.0498 13.886 23.2758C14.072 23.2428 14.286 23.2238 14.504 23.2228H14.505C14.569 23.2248 14.6306 23.2308 14.69 23.2408L14.682 23.2398C14.762 23.2518 14.83 23.2778 14.842 23.3698L14.844 23.4018C14.8439 23.4437 14.8329 23.4849 14.812 23.5212C14.7911 23.5575 14.7611 23.5877 14.725 23.6088L14.724 23.6098C14.6876 23.6291 14.6471 23.639 14.606 23.6388H14.552C14.216 23.6388 13.891 23.6908 13.587 23.7868L13.61 23.7808C13.584 23.7884 13.557 23.7925 13.53 23.7928C13.4969 23.7904 13.4649 23.7797 13.437 23.7618L13.44 23.7588ZM2.48495 23.6148C2.44098 23.543 2.41186 23.463 2.39932 23.3797C2.38678 23.2964 2.39108 23.2115 2.41195 23.1298L2.41095 23.1338C2.50195 22.6788 2.73195 22.2878 3.05495 21.9968L3.05695 21.9948C3.22516 21.844 3.44206 21.7588 3.66795 21.7548C3.79077 21.7666 3.91018 21.8067 4.01495 21.8718L4.01195 21.8698C4.02687 21.8772 4.03945 21.8886 4.04828 21.9028C4.0571 21.9169 4.06184 21.9332 4.06195 21.9498C4.06186 21.9622 4.05949 21.9744 4.05495 21.9858C4.03164 22.0686 3.97949 22.1392 3.90795 22.1868L3.90695 22.1878C3.88539 22.2042 3.85956 22.2139 3.83258 22.2158C3.80561 22.2178 3.77864 22.2119 3.75495 22.1988C3.68574 22.1597 3.60721 22.1426 3.52803 22.15C3.44886 22.1573 3.37381 22.1887 3.31295 22.2398C3.21126 22.3126 3.12904 22.4081 3.07095 22.5188L3.06895 22.5228C2.98895 22.6608 2.92395 22.8208 2.88395 22.9908L2.88195 23.0028C2.87218 23.0438 2.87116 23.0864 2.87895 23.1278V23.1258C2.90095 23.2338 2.93695 23.2578 3.03895 23.2308C3.25295 23.1768 3.45395 23.0848 3.66095 23.0108C3.72095 22.983 3.78587 22.9674 3.85195 22.9648C3.92195 22.9648 3.95595 22.9938 3.95595 23.0688V23.0718C3.95521 23.1465 3.92669 23.2181 3.87595 23.2728C3.81218 23.3407 3.73705 23.3968 3.65395 23.4388L3.64895 23.4408C3.38277 23.5837 3.09654 23.6855 2.79995 23.7428L2.77995 23.7458C2.75687 23.7502 2.73345 23.7526 2.70995 23.7528C2.66371 23.7525 2.61748 23.7393 2.57829 23.7147C2.5391 23.6902 2.50748 23.6553 2.48695 23.6138L2.48595 23.6128L2.48495 23.6148ZM8.59995 19.0918C8.55434 19.0056 8.52871 18.9103 8.52495 18.8128C8.54995 18.6628 8.57995 18.5328 8.61795 18.4078L8.61195 18.4298C8.70795 18.2158 8.91395 18.1728 9.09795 18.1098C9.30695 18.0378 9.54795 17.9938 9.79795 17.9878H9.80095C9.9239 17.9783 10.0472 18.0005 10.1591 18.0524C10.271 18.1042 10.3677 18.1839 10.44 18.2838L10.441 18.2858C10.484 18.3438 10.477 18.3658 10.405 18.3838C10.3943 18.3861 10.3834 18.3863 10.3727 18.3842C10.3621 18.3821 10.3519 18.3779 10.343 18.3718C10.1484 18.2753 9.93412 18.2253 9.71695 18.2258C9.68258 18.2206 9.64742 18.2244 9.61495 18.2368H9.61595C9.44262 18.3035 9.27062 18.3722 9.09995 18.4428C9.02916 18.4744 8.96687 18.5223 8.9182 18.5826C8.86952 18.643 8.83585 18.714 8.81995 18.7898L8.81895 18.7928C8.79695 18.9058 8.76895 19.0028 8.73495 19.0968L8.73895 19.0828C8.72695 19.1118 8.71295 19.1478 8.66895 19.1498H8.66495C8.62295 19.1508 8.61495 19.1148 8.59895 19.0908L8.59995 19.0918ZM9.22395 17.7888C9.15187 17.729 9.06256 17.6937 8.96903 17.6881C8.8755 17.6825 8.78264 17.707 8.70395 17.7578L8.70595 17.7568C8.6226 17.8089 8.52921 17.8429 8.43187 17.8565C8.33452 17.8701 8.2354 17.8631 8.14095 17.8358L8.14595 17.8368C8.12147 17.8306 8.09839 17.8197 8.07795 17.8048C7.99195 17.7348 7.99195 17.7248 8.08495 17.6628C8.12039 17.6413 8.15446 17.6176 8.18695 17.5918L8.18595 17.5928C8.21079 17.5688 8.242 17.5525 8.27587 17.5458C8.30974 17.539 8.34483 17.5422 8.37695 17.5548C8.42373 17.5634 8.47081 17.5618 8.51689 17.55C8.56297 17.5383 8.60598 17.5167 8.64295 17.4868L8.64195 17.4878C8.73443 17.4253 8.84375 17.3924 8.95539 17.3934C9.06703 17.3945 9.1757 17.4295 9.26695 17.4938L9.26495 17.4928C9.27397 17.4966 9.2824 17.5016 9.28995 17.5078C9.42895 17.6188 9.56395 17.6838 9.72195 17.5268C9.78695 17.4618 9.89695 17.4888 9.98595 17.4768C10.209 17.4708 10.418 17.4208 10.608 17.3358L10.598 17.3398C10.607 17.3316 10.6187 17.327 10.631 17.3268C10.6413 17.3269 10.6515 17.3302 10.6599 17.3363C10.6683 17.3424 10.6746 17.351 10.678 17.3608C10.711 17.4208 10.768 17.4638 10.776 17.5408C10.776 17.5768 10.776 17.6058 10.738 17.6208C10.647 17.6568 10.556 17.7188 10.46 17.6308C10.429 17.6048 10.395 17.6168 10.362 17.6208C10.1304 17.6678 9.90514 17.742 9.69095 17.8418L9.70895 17.8338C9.64111 17.8625 9.56857 17.8784 9.49495 17.8808H9.49195C9.39387 17.8812 9.2986 17.848 9.22195 17.7868L9.22295 17.7878L9.22395 17.7888ZM9.24795 17.2888C9.16788 17.2237 9.09391 17.1514 9.02695 17.0728L9.02495 17.0708C8.97872 17.014 8.91902 16.9695 8.85126 16.9416C8.7835 16.9137 8.70984 16.9031 8.63695 16.9108H8.63895C8.6746 16.8002 8.7438 16.7034 8.83695 16.6338L8.83795 16.6328C8.89228 16.5866 8.93392 16.5272 8.95894 16.4604C8.98396 16.3935 8.99154 16.3214 8.98095 16.2508V16.2528C8.97346 16.0576 8.93741 15.8646 8.87395 15.6798L8.87795 15.6928C8.84268 15.5713 8.76263 15.4677 8.65395 15.4028L8.65195 15.4018C8.60199 15.379 8.54786 15.3668 8.49295 15.3658H8.49195C8.09595 15.3118 7.70195 15.2318 7.30395 15.1978C6.98825 15.1697 6.67006 15.1954 6.36295 15.2738L6.38195 15.2698C6.36295 15.2698 6.34595 15.2768 6.32695 15.2798L6.30695 15.2728C6.43295 15.0838 6.59395 14.9268 6.78095 14.8088L6.78695 14.8048C6.79899 14.7976 6.81243 14.7929 6.82639 14.7912C6.84034 14.7895 6.85451 14.7907 6.86795 14.7948C7.44395 14.8278 8.01495 14.8848 8.58495 14.9748C8.6619 14.9933 8.74259 14.9885 8.81682 14.9611C8.89104 14.9337 8.95547 14.8849 9.00195 14.8208L9.00295 14.8198C9.06995 14.7358 9.13795 14.6398 9.20095 14.5418L9.20895 14.5278C9.23495 14.4798 9.27395 14.4188 9.33495 14.4378C9.39595 14.4568 9.40895 14.5178 9.40195 14.5978C9.3908 14.7373 9.34865 14.8725 9.27858 14.9936C9.20851 15.1147 9.1123 15.2187 8.99695 15.2978L8.99395 15.2998C8.95995 15.3238 8.95995 15.3378 8.98395 15.3648C9.16895 15.6018 9.28195 15.9028 9.28295 16.2308C9.29778 16.3752 9.26923 16.5208 9.20095 16.6488L9.20295 16.6448C9.19512 16.6561 9.18969 16.6689 9.18701 16.6823C9.18433 16.6958 9.18444 16.7097 9.18735 16.7231C9.19026 16.7365 9.19589 16.7492 9.20391 16.7603C9.21193 16.7714 9.22216 16.7808 9.23395 16.7878C9.29729 16.8412 9.35629 16.8968 9.41095 16.9548L9.41195 16.9558C9.42154 16.9674 9.43339 16.9769 9.44677 16.9837C9.46016 16.9905 9.4748 16.9945 9.48979 16.9954C9.50478 16.9964 9.5198 16.9942 9.53394 16.9891C9.54807 16.984 9.561 16.9761 9.57195 16.9658C9.61352 16.9322 9.65109 16.894 9.68395 16.8518L9.68495 16.8498C9.79162 16.7038 9.91729 16.5798 10.062 16.4778L10.067 16.4748C10.1078 16.4426 10.1592 16.4267 10.2111 16.4302C10.263 16.4338 10.3118 16.4564 10.348 16.4938C10.38 16.5318 10.42 16.5778 10.326 16.6088C10.1894 16.6782 10.0782 16.7888 10.008 16.9248L10.006 16.9288C9.94395 17.0188 9.88795 17.1158 9.83095 17.2098C9.79777 17.2654 9.75096 17.3115 9.69496 17.3439C9.63896 17.3762 9.57563 17.3938 9.51095 17.3948C9.4128 17.3928 9.31884 17.3547 9.24695 17.2878L9.24795 17.2888ZM5.46995 16.0888C5.4226 15.9896 5.34387 15.9088 5.24595 15.8588L5.24295 15.8578C5.14005 15.8115 5.05629 15.7311 5.00582 15.6302C4.95535 15.5292 4.94127 15.414 4.96595 15.3038L4.96495 15.3068C4.97159 15.2794 4.98536 15.2543 5.00485 15.2339C5.02434 15.2135 5.04887 15.1987 5.07595 15.1908C5.11895 15.1738 5.13795 15.2278 5.16095 15.2518C5.22595 15.3378 5.27295 15.4418 5.29495 15.5548L5.29595 15.5598C5.31638 15.6412 5.36535 15.7125 5.43395 15.7608L5.43495 15.7618C5.48477 15.7977 5.52323 15.8471 5.54575 15.9042C5.56827 15.9613 5.57389 16.0236 5.56195 16.0838V16.0818C5.54995 16.1078 5.59295 16.1728 5.53995 16.1858H5.52895C5.48695 16.1838 5.48395 16.1218 5.46795 16.0888H5.46995ZM11.906 16.1028C11.826 16.0888 11.736 16.0848 11.652 16.0778C11.5373 16.076 11.4255 16.0413 11.33 15.9778L11.332 15.9788C11.2618 15.9349 11.1807 15.9117 11.098 15.9118H11.091C10.9585 15.8939 10.8327 15.843 10.725 15.7638L10.727 15.7658C10.7025 15.7475 10.6826 15.7238 10.6687 15.6966C10.6549 15.6694 10.6474 15.6394 10.647 15.6088V15.5948C10.633 15.4348 10.633 15.4358 10.477 15.3968C10.2727 15.3534 10.0919 15.2354 9.96995 15.0658L9.96795 15.0638C9.90424 14.9738 9.86527 14.8686 9.85495 14.7588V14.7558C9.84388 14.6555 9.83787 14.5547 9.83695 14.4538C9.83695 14.4248 9.83695 14.3838 9.87295 14.3738C9.89017 14.3706 9.90796 14.3725 9.92412 14.3793C9.94029 14.386 9.95413 14.3973 9.96395 14.4118C10.0081 14.4595 10.0401 14.5171 10.057 14.5798L10.058 14.5818C10.074 14.6548 10.091 14.7158 10.113 14.7748L10.11 14.7638C10.179 14.9868 10.372 14.9988 10.552 15.0338C11.1789 15.1538 11.8215 15.1677 12.453 15.0748L12.422 15.0788C12.4469 15.07 12.4739 15.0683 12.4997 15.0742C12.5256 15.08 12.5492 15.0931 12.568 15.1118C12.606 15.1518 12.594 15.1668 12.551 15.1818L12.267 15.2848C12.005 15.3898 11.701 15.4648 11.384 15.4968L11.37 15.4978C11.2363 15.4918 11.1037 15.4724 10.974 15.4398L10.988 15.4428C10.9528 15.4311 10.915 15.4294 10.879 15.4378H10.88C10.896 15.5258 10.951 15.5978 11.025 15.6388L11.027 15.6398C11.1342 15.7168 11.2611 15.7619 11.393 15.7698H11.395C11.6516 15.7665 11.9003 15.7402 12.141 15.6908L12.115 15.6948C12.1556 15.6865 12.1941 15.6698 12.228 15.6458L12.227 15.6468C12.363 15.5668 12.5013 15.4925 12.642 15.4238C12.6597 15.4112 12.6815 15.4054 12.7032 15.4076C12.7249 15.4099 12.7451 15.4199 12.76 15.4358C12.537 15.6558 12.302 15.8558 12.064 16.0518C12.0296 16.0841 11.985 16.1032 11.938 16.1058L11.905 16.0988H11.906V16.1028ZM7.19995 15.9108C7.13538 15.848 7.05376 15.8054 6.96522 15.7885C6.87669 15.7716 6.78514 15.7811 6.70195 15.8158L6.70495 15.8148C6.68104 15.8224 6.65553 15.8235 6.63107 15.8179C6.60662 15.8122 6.58413 15.8001 6.56595 15.7828C6.49395 15.7282 6.49862 15.6818 6.57995 15.6438C6.67995 15.6018 6.79795 15.5658 6.91995 15.5408L6.93295 15.5388C7.02962 15.5455 7.12095 15.5568 7.20695 15.5728L7.19195 15.5708C7.48922 15.6355 7.79698 15.6348 8.09395 15.5688L8.07995 15.5718C8.22634 15.5369 8.37947 15.5424 8.52295 15.5878L8.51695 15.5858C8.54362 15.5898 8.56695 15.5985 8.58695 15.6118C8.61995 15.6438 8.67495 15.6728 8.66595 15.7198C8.65795 15.7538 8.62095 15.7538 8.58595 15.7538L8.57095 15.7528L8.55595 15.7538H8.55695C8.41495 15.7738 8.27162 15.7918 8.12695 15.8078C8.08656 15.8136 8.04777 15.8276 8.01295 15.8488L8.01395 15.8478C7.92503 15.9048 7.83174 15.9546 7.73495 15.9968L7.72295 16.0008C7.65882 16.0241 7.59118 16.0363 7.52295 16.0368C7.4028 16.0357 7.28707 15.9913 7.19695 15.9118L7.19995 15.9108ZM0.981953 9.75984C0.936246 9.71771 0.899552 9.66675 0.874087 9.61004C0.848622 9.55333 0.834915 9.49205 0.833793 9.4299C0.832672 9.36775 0.844159 9.30601 0.867561 9.24843C0.890964 9.19084 0.925796 9.13859 0.969953 9.09484C1.03205 9.04813 1.10984 9.02734 1.18695 9.03684H1.18595C1.24598 9.02985 1.3065 9.04484 1.35632 9.07904C1.40614 9.11323 1.44189 9.16432 1.45695 9.22284V9.22484C1.50248 9.31205 1.51776 9.41191 1.50039 9.50874C1.48301 9.60558 1.43397 9.6939 1.36095 9.75984C1.3074 9.80564 1.23942 9.83113 1.16895 9.83184C1.09987 9.83173 1.03327 9.80608 0.981953 9.75984ZM17.163 7.90684C17.1649 7.83136 17.1952 7.75937 17.2478 7.70525C17.3004 7.65112 17.3716 7.61884 17.447 7.61484C17.6003 7.61484 17.6796 7.69484 17.683 7.85484C17.6827 7.92868 17.6557 7.99992 17.607 8.05542C17.5583 8.11092 17.4911 8.14694 17.418 8.15684H17.408C17.3439 8.15128 17.2839 8.12305 17.2388 8.07722C17.1937 8.03139 17.1675 7.97097 17.163 7.90684Z" fill="white"/>
</svg>
