<svg width="15" height="15" viewBox="0 0 15 15" fill="none" xmlns="http://www.w3.org/2000/svg">
<g clip-path="url(#clip0_236_300)">
<path d="M14 7.5C14 5.77609 13.3152 4.12279 12.0962 2.90381C10.8772 1.68482 9.22391 1 7.5 1C5.77609 1 4.12279 1.68482 2.90381 2.90381C1.68482 4.12279 1 5.77609 1 7.5M14 7.5C14 9.22391 13.3152 10.8772 12.0962 12.0962C10.8772 13.3152 9.22391 14 7.5 14C5.77609 14 4.12279 13.3152 2.90381 12.0962C1.68482 10.8772 1 9.22391 1 7.5M14 7.5L13.9532 6.72109L13.8038 5.91478L13.5854 5.2157L13.2663 4.5H7.5H1.73371L1.36354 5.35666L1.12015 6.25587L1 7V7.5" stroke="white" stroke-linecap="round" stroke-linejoin="round"/>
<path d="M10 7.5C9.8772 5.12301 9.00168 2.84665 7.5 1C5.99832 2.84665 5.1228 5.12301 5 7.5C5.1228 9.87699 5.99832 12.1533 7.5 14C9.00168 12.1533 9.8772 9.87699 10 7.5Z" stroke="white" stroke-linecap="round" stroke-linejoin="round"/>
<path d="M14 7.5C14 9.22391 13.3152 10.8772 12.0962 12.0962C10.8772 13.3152 9.22391 14 7.5 14C5.77609 14 4.12279 13.3152 2.90381 12.0962C1.68482 10.8772 1 9.22391 1 7.5M14 7.5C14 5.77609 13.3152 4.12279 12.0962 2.90381C10.8772 1.68482 9.22391 1 7.5 1C5.77609 1 4.12279 1.68482 2.90381 2.90381C1.68482 4.12279 1 5.77609 1 7.5M14 7.5L13.9532 8.27891L13.8038 9.08522L13.5854 9.7843L13.2663 10.5H7.5H1.73371L1.36354 9.64334L1.12015 8.74413L1 8V7.5" stroke="white" stroke-linecap="round" stroke-linejoin="round"/>
<path d="M10 7.5C9.8772 9.87699 9.00168 12.1533 7.5 14C5.99832 12.1533 5.1228 9.87699 5 7.5C5.1228 5.12301 5.99832 2.84665 7.5 1C9.00168 2.84665 9.8772 5.12301 10 7.5Z" stroke="white" stroke-linecap="round" stroke-linejoin="round"/>
</g>
<defs>
<clipPath id="clip0_236_300">
<rect width="15" height="15" fill="white"/>
</clipPath>
</defs>
</svg>
