<svg width="20" height="24" viewBox="0 0 20 24" fill="none" xmlns="http://www.w3.org/2000/svg">
<path d="M9.83757 10.5726C10.8303 10.5726 11.6351 9.76782 11.6351 8.77507C11.6351 7.78232 10.8303 6.97754 9.83757 6.97754C8.84482 6.97754 8.04004 7.78232 8.04004 8.77507C8.04004 9.76782 8.84482 10.5726 9.83757 10.5726Z" fill="black"/>
<path d="M9.8381 15.3853C11.2491 16.7576 12.6407 17.5694 13.7618 17.5694C14.129 17.5694 14.4769 17.4921 14.7668 17.3182C15.7719 16.7383 16.1391 15.2887 15.7912 13.2206C15.7332 12.8533 15.6559 12.4861 15.5593 12.0995C15.9458 11.9835 16.2938 11.8676 16.6417 11.7516C18.5938 10.9978 19.6762 9.95407 19.6762 8.8137C19.6762 7.65401 18.5938 6.61028 16.6417 5.8758C16.2938 5.7405 15.9458 5.62454 15.5593 5.52789C15.6559 5.14133 15.7332 4.77409 15.7912 4.40685C16.1198 2.30007 15.7526 0.831117 14.7475 0.251268C14.4576 0.0773132 14.1097 0 13.7424 0C12.6407 0 11.2297 0.811788 9.81878 2.1841C8.42714 0.811788 7.0355 0 5.91446 0C5.54722 0 5.19931 0.0773132 4.90939 0.251268C3.90432 0.831117 3.53708 2.28074 3.88499 4.34887C3.94297 4.7161 4.02029 5.08334 4.11693 5.46991C3.73036 5.58588 3.38245 5.70185 3.03454 5.81782C1.08238 6.57162 0 7.61535 0 8.75572C0 9.91542 1.08238 10.9591 3.03454 11.6936C3.38245 11.8289 3.73036 11.9449 4.11693 12.0415C4.02029 12.4281 3.94297 12.7953 3.88499 13.1626C3.55641 15.2307 3.92364 16.6997 4.90939 17.2602C5.19931 17.4341 5.54722 17.5114 5.91446 17.5114C7.0355 17.5501 8.42714 16.7383 9.8381 15.3853ZM8.75572 12.776C9.10363 12.7953 9.47087 12.7953 9.8381 12.7953C10.2053 12.7953 10.5726 12.7953 10.9205 12.776C10.5726 13.2399 10.2053 13.6651 9.8381 14.071C9.47087 13.6651 9.10363 13.2399 8.75572 12.776ZM6.35901 10.7852C6.55229 11.1138 6.72625 11.423 6.93886 11.7323C6.33968 11.655 5.77916 11.5583 5.23797 11.4424C5.41192 10.9205 5.60521 10.3793 5.83715 9.8381C5.99177 10.1474 6.16573 10.4759 6.35901 10.7852ZM5.23797 6.12707C5.77916 6.0111 6.33968 5.91446 6.93886 5.83715C6.74558 6.1464 6.55229 6.45565 6.35901 6.78423C6.16573 7.11281 5.99177 7.42207 5.83715 7.75065C5.58588 7.19013 5.3926 6.64893 5.23797 6.12707ZM6.30103 8.77505C6.55229 8.25318 6.82289 7.73132 7.13214 7.20946C7.42207 6.70692 7.75065 6.20438 8.07923 5.70185C8.65908 5.66319 9.23893 5.64386 9.8381 5.64386C10.4566 5.64386 11.0365 5.66319 11.597 5.70185C11.9449 6.20438 12.2541 6.70692 12.5441 7.20946C12.8533 7.73132 13.1239 8.25318 13.3752 8.77505C13.1239 9.29691 12.8533 9.81878 12.5441 10.3406C12.2541 10.8432 11.9256 11.3457 11.597 11.8482C11.0171 11.8869 10.4373 11.9062 9.8381 11.9062C9.2196 11.9062 8.63975 11.8869 8.07923 11.8482C7.73132 11.3457 7.42207 10.8432 7.13214 10.3406C6.82289 9.81878 6.55229 9.29691 6.30103 8.77505ZM13.8584 7.73132L13.3365 6.7649C13.1432 6.43632 12.9693 6.12707 12.7567 5.81782C13.3559 5.89513 13.9164 5.99177 14.4576 6.10774C14.2836 6.64893 14.0903 7.19013 13.8584 7.73132ZM13.8584 9.81878C14.0903 10.36 14.2836 10.9012 14.4576 11.423C13.9164 11.539 13.3559 11.6356 12.7567 11.7129C12.95 11.4037 13.1432 11.0944 13.3365 10.7659C13.5105 10.4759 13.6844 10.1474 13.8584 9.81878ZM14.3029 16.5257C14.1483 16.6223 13.955 16.661 13.7424 16.661C12.7953 16.661 11.6163 15.8879 10.4566 14.7282C11.0171 14.129 11.5583 13.4525 12.0995 12.6987C13.0079 12.6214 13.8777 12.4861 14.6895 12.2928C14.7861 12.6407 14.8441 12.9886 14.9021 13.3365C15.1727 14.9794 14.9601 16.1585 14.3029 16.5257ZM15.308 6.33968C17.4728 6.95819 18.7678 7.90527 18.7678 8.77505C18.7678 9.52885 17.8787 10.2827 16.3131 10.8818C16.0038 10.9978 15.6559 11.1138 15.308 11.2104C15.0567 10.418 14.7475 9.60616 14.3609 8.77505C14.7475 7.94393 15.0761 7.13214 15.308 6.33968ZM13.7618 0.889102C13.9744 0.889102 14.1483 0.927758 14.3223 1.0244C14.9601 1.39164 15.192 2.55134 14.9214 4.21357C14.8635 4.54215 14.7861 4.89006 14.7088 5.2573C13.897 5.08334 13.0273 4.94804 12.1188 4.8514C11.597 4.0976 11.0365 3.42111 10.4759 2.82193C11.6356 1.68156 12.8147 0.889102 13.7618 0.889102ZM10.9205 4.77409C10.5726 4.75476 10.2053 4.75476 9.8381 4.75476C9.47087 4.75476 9.10363 4.75476 8.75572 4.77409C9.10363 4.31021 9.47087 3.88499 9.8381 3.47909C10.2053 3.88499 10.5726 4.32954 10.9205 4.77409ZM5.37327 1.0244C5.52789 0.927758 5.72118 0.889102 5.93379 0.889102C6.88087 0.889102 8.0599 1.66223 9.2196 2.82193C8.65908 3.42111 8.11788 4.0976 7.57669 4.8514C6.66826 4.92872 5.79849 5.06401 4.9867 5.2573C4.89006 4.90939 4.83207 4.56148 4.77409 4.21357C4.50349 2.57066 4.7161 1.41097 5.37327 1.0244ZM4.3682 11.2104C2.20343 10.5919 0.90843 9.64482 0.90843 8.77505C0.90843 8.02124 1.79753 7.26744 3.36312 6.66826C3.67238 6.55229 4.02029 6.43632 4.3682 6.33968C4.61946 7.13214 4.92872 7.94393 5.31528 8.77505C4.92872 9.60616 4.60014 10.4373 4.3682 11.2104ZM4.77409 13.3365C4.83207 13.0079 4.90939 12.66 4.9867 12.2928C5.79849 12.4668 6.66826 12.6021 7.57669 12.6987C8.09856 13.4525 8.65908 14.129 9.2196 14.7282C8.0599 15.8685 6.88087 16.661 5.93379 16.661C5.72118 16.661 5.54722 16.6223 5.37327 16.5257C4.7161 16.1585 4.50349 14.9794 4.77409 13.3365ZM3.9623 21.2998C4.38752 20.7779 4.40685 20.1981 4.17491 19.6182C3.94297 19.0384 3.45977 18.7678 2.86059 18.7484C2.14544 18.7291 1.41097 18.7484 0.695819 18.7484H0.560521V23.7545H1.14037V21.8603H2.0488C2.16477 21.8603 2.26141 21.899 2.3194 21.9956L3.47909 23.7931C3.49842 23.8318 3.55641 23.8898 3.59506 23.8898H4.34887C3.88499 23.1746 3.44044 22.4981 2.97656 21.8023C3.38245 21.7443 3.73036 21.609 3.9623 21.2998ZM1.14037 21.2611V19.3476H1.35298C1.79753 19.3476 2.26141 19.3283 2.70596 19.367C3.22783 19.3863 3.59506 19.7922 3.59506 20.314C3.59506 20.8359 3.16984 21.2418 2.64798 21.2611C2.1841 21.2805 1.72022 21.2611 1.14037 21.2611ZM8.62042 21.5124C8.31117 20.1594 7.07416 19.8115 6.12707 20.2367C5.3926 20.5653 5.06401 21.2031 5.04469 21.9956C5.02536 22.5948 5.19931 23.136 5.66319 23.5419C6.18506 24.0057 6.82289 24.0637 7.48005 23.9478C7.84729 23.8704 8.17587 23.6965 8.42714 23.4259C8.3305 23.2906 8.23386 23.1553 8.13721 23.0393C7.59602 23.5032 6.99684 23.6578 6.33968 23.3486C5.91446 23.136 5.70185 22.6141 5.66319 22.2275H8.65908V21.9763C8.67841 21.8023 8.65908 21.6477 8.62042 21.5124ZM5.70185 21.8216C5.64386 21.2418 6.22371 20.6233 6.86155 20.6233C7.59602 20.604 8.0599 21.0485 8.07923 21.8216H5.70185ZM11.6356 20.1401C11.3457 20.0821 11.0365 20.0628 10.7465 20.0821C10.2827 20.1208 9.87676 20.3334 9.54818 20.6813C9.64482 20.8166 9.72213 20.9519 9.8381 21.1065C9.87676 21.0678 9.91542 21.0292 9.95407 21.0099C10.2633 20.7199 10.6306 20.5653 11.0751 20.604C11.423 20.6233 11.7516 20.7393 11.8482 21.0872C11.9256 21.3578 11.9062 21.6477 11.9256 21.9376C11.8676 21.9376 11.8482 21.9183 11.8289 21.899C11.365 21.5124 10.8432 21.4351 10.2827 21.5704C9.76079 21.7057 9.43221 22.1116 9.39355 22.6334C9.3549 23.2326 9.62549 23.6772 10.1474 23.8898C10.4759 24.0251 10.8432 24.0251 11.1911 23.9478C11.4617 23.8898 11.5777 23.7352 11.9642 23.5225V23.7738H12.5054C12.5054 23.0007 12.5247 22.0536 12.5054 21.1645C12.5054 20.604 12.1768 20.2561 11.6356 20.1401ZM11.9062 22.5755C11.8869 22.6334 11.9062 22.6914 11.9062 22.7494C11.9062 23.1553 11.8096 23.2906 11.423 23.4452C11.1524 23.5419 10.8625 23.5805 10.5726 23.4839C10.244 23.3872 10.0121 23.0973 10.0121 22.7687C9.99273 22.4402 10.2053 22.1116 10.5339 22.0149C10.9785 21.8603 11.3844 21.9569 11.7516 22.2275C11.8676 22.3242 11.9449 22.4208 11.9062 22.5755ZM14.9214 20.662C15.424 20.5073 15.8879 20.604 16.2358 21.0292L16.2938 21.0678C16.4291 20.9519 16.545 20.8359 16.6997 20.7006C16.6417 20.6426 16.6223 20.604 16.5837 20.546C16.0232 19.9468 14.9214 19.8695 14.245 20.3527C13.2979 21.0485 13.3172 22.4015 13.7811 23.1166C14.2256 23.7931 14.8635 24.0251 15.6173 23.9284C16.0618 23.8705 16.4291 23.6578 16.719 23.2906C16.5837 23.1746 16.4484 23.0587 16.3131 22.9234C16.2744 22.962 16.2551 22.9813 16.2358 23.02C15.7139 23.5999 14.8441 23.5419 14.3803 22.9234C14.1097 22.5561 14.0517 22.1309 14.129 21.7057C14.1676 21.2225 14.4189 20.8359 14.9214 20.662ZM18.9417 23.2906C18.9031 23.3099 18.8837 23.3293 18.8837 23.3293C18.7291 23.4452 18.5745 23.4646 18.4005 23.4066C18.2266 23.3293 18.2073 23.1746 18.1879 23.02V20.8166C18.1879 20.7779 18.1879 20.8552 18.2073 20.662H18.9417V20.0821H18.1686V19.1157H17.5888V20.1594H17.0862C17.0476 20.1594 16.9896 20.1981 16.9896 20.2367C16.9702 20.372 16.9896 20.4687 16.9896 20.662H17.6081V23.136C17.6081 23.4452 17.6854 23.7158 17.956 23.8704C18.2459 24.0444 18.8064 24.0057 19.0577 23.7931C19.0964 23.7738 19.1157 23.6965 19.1157 23.6772C19.0577 23.5612 18.9997 23.4259 18.9417 23.2906Z" fill="black"/>
</svg>
