<svg width="22" height="22" viewBox="0 0 22 22" fill="none" xmlns="http://www.w3.org/2000/svg">
<path fill-rule="evenodd" clip-rule="evenodd" d="M10.999 0C4.926 0 0 4.925 0 11C0 15.86 3.152 19.983 7.523 21.437C8.073 21.539 8.273 21.199 8.273 20.907C8.273 20.647 8.264 19.955 8.259 19.037C5.199 19.701 4.553 17.562 4.553 17.562C4.053 16.292 3.332 15.952 3.332 15.952C2.333 15.271 3.407 15.284 3.407 15.284C4.512 15.362 5.092 16.418 5.092 16.418C6.073 18.098 7.667 17.613 8.294 17.332C8.394 16.622 8.678 16.137 8.992 15.862C6.55 15.584 3.982 14.64 3.982 10.425C3.982 9.225 4.41 8.242 5.114 7.473C5 7.195 4.623 6.076 5.222 4.563C5.222 4.563 6.145 4.266 8.247 5.69C9.14423 5.44529 10.07 5.32087 11 5.32C11.9303 5.32078 12.8564 5.4452 13.754 5.69C15.854 4.266 16.776 4.562 16.776 4.562C17.376 6.076 16.999 7.195 16.886 7.473C17.591 8.242 18.016 9.224 18.016 10.425C18.016 14.651 15.444 15.581 12.994 15.853C13.389 16.193 13.741 16.863 13.741 17.89C13.741 19.36 13.727 20.547 13.727 20.907C13.727 21.202 13.926 21.544 14.483 21.437C18.851 19.979 22 15.859 22 11C22 4.925 17.074 0 10.999 0Z" fill="black"/>
</svg>
