<svg width="22" height="22" viewBox="0 0 22 22" fill="none" xmlns="http://www.w3.org/2000/svg">
<path fill-rule="evenodd" clip-rule="evenodd" d="M11 22C12.4445 22 13.8749 21.7155 15.2095 21.1627C16.5441 20.6099 17.7567 19.7996 18.7782 18.7782C19.7996 17.7567 20.6099 16.5441 21.1627 15.2095C21.7155 13.8749 22 12.4445 22 11C22 9.55546 21.7155 8.12506 21.1627 6.79048C20.6099 5.4559 19.7996 4.24327 18.7782 3.22183C17.7567 2.20038 16.5441 1.39013 15.2095 0.837325C13.8749 0.284523 12.4445 -2.15253e-08 11 0C8.08262 4.34724e-08 5.28473 1.15893 3.22183 3.22183C1.15893 5.28473 0 8.08262 0 11C0 13.9174 1.15893 16.7153 3.22183 18.7782C5.28473 20.8411 8.08262 22 11 22ZM9.51256 6.09889L16.4108 9.93178C16.6012 10.0377 16.7599 10.1925 16.8704 10.3803C16.9808 10.5682 17.0391 10.7821 17.0391 11C17.0391 11.2179 16.9808 11.4318 16.8704 11.6197C16.7599 11.8075 16.6012 11.9623 16.4108 12.0682L9.51256 15.9011C9.28919 16.0253 9.03727 16.0889 8.78174 16.0857C8.52621 16.0825 8.27595 16.0126 8.05575 15.883C7.83555 15.7533 7.65305 15.5683 7.52634 15.3464C7.39962 15.1245 7.33309 14.8733 7.33333 14.6178V7.38222C7.33309 7.12667 7.39962 6.8755 7.52634 6.65358C7.65305 6.43166 7.83555 6.2467 8.05575 6.11703C8.27595 5.98735 8.52621 5.91746 8.78174 5.91428C9.03727 5.9111 9.28919 5.97473 9.51256 6.09889Z" fill="black"/>
</svg>
