<svg width="12" height="14" viewBox="0 0 12 14" fill="none" xmlns="http://www.w3.org/2000/svg">
<path d="M3.09766 3.65C3.09766 3.955 3.21882 4.24751 3.43448 4.46317C3.65015 4.67884 3.94266 4.8 4.24766 4.8C4.55266 4.8 4.84516 4.67884 5.06083 4.46317C5.2765 4.24751 5.39766 3.955 5.39766 3.65C5.39766 3.345 5.2765 3.05249 5.06083 2.83683C4.84516 2.62116 4.55266 2.5 4.24766 2.5C3.94266 2.5 3.65015 2.62116 3.43448 2.83683C3.21882 3.05249 3.09766 3.345 3.09766 3.65Z" stroke="white" stroke-linecap="round" stroke-linejoin="round"/>
<path d="M2.5 5.94C2.67263 5.60235 2.92961 5.31506 3.246 5.106C3.552 4.906 3.898 4.802 4.249 4.802C4.6 4.802 4.946 4.906 5.252 5.106C5.559 5.305 5.815 5.592 5.998 5.94" stroke="white" stroke-linecap="round" stroke-linejoin="round"/>
<path d="M11.5 12.5C11.5 12.7652 11.3946 13.0196 11.2071 13.2071C11.0196 13.3946 10.7652 13.5 10.5 13.5H1.5C1.23478 13.5 0.98043 13.3946 0.792893 13.2071C0.605357 13.0196 0.5 12.7652 0.5 12.5V1.5C0.5 1.23478 0.605357 0.98043 0.792893 0.792893C0.98043 0.605357 1.23478 0.5 1.5 0.5H8L11.5 4V12.5Z" stroke="white" stroke-linecap="round" stroke-linejoin="round"/>
<path d="M2.5 8.5H9.5M2.5 11H6.5" stroke="white" stroke-linecap="round"/>
</svg>
