<svg width="12" height="14" viewBox="0 0 12 14" fill="none" xmlns="http://www.w3.org/2000/svg">
<path fill-rule="evenodd" clip-rule="evenodd" d="M0.44 0.440001C0.721035 0.158616 1.10231 0.000350902 1.5 7.97493e-07H7.5C7.5657 -0.00011655 7.63079 0.0127175 7.69153 0.0377692C7.75227 0.0628209 7.80748 0.099599 7.854 0.146001L11.854 4.146C11.9004 4.19252 11.9372 4.24773 11.9622 4.30847C11.9873 4.36921 12.0001 4.4343 12 4.5V12.5C12 12.8978 11.842 13.2794 11.5607 13.5607C11.2794 13.842 10.8978 14 10.5 14H1.5C1.10218 14 0.720644 13.842 0.43934 13.5607C0.158035 13.2794 0 12.8978 0 12.5V1.5C0 1.102 0.158 0.720001 0.44 0.440001ZM3.955 3.95C4.08947 3.95 4.22263 3.92351 4.34687 3.87205C4.47111 3.82059 4.58399 3.74517 4.67908 3.65008C4.77416 3.55499 4.84959 3.44211 4.90105 3.31787C4.95251 3.19363 4.979 3.06047 4.979 2.926C4.979 2.79153 4.95251 2.65837 4.90105 2.53413C4.84959 2.4099 4.77416 2.29701 4.67908 2.20192C4.58399 2.10684 4.47111 2.03141 4.34687 1.97995C4.22263 1.92849 4.08947 1.902 3.955 1.902C3.68342 1.902 3.42296 2.00989 3.23092 2.20192C3.03889 2.39396 2.931 2.65442 2.931 2.926C2.931 3.19758 3.03889 3.45804 3.23092 3.65008C3.42296 3.84212 3.68342 3.95 3.955 3.95ZM1.876 8.5C1.876 8.155 2.155 7.875 2.5 7.875H9.5C9.65966 7.88378 9.80992 7.95332 9.91993 8.06936C10.0299 8.18541 10.0914 8.33915 10.0916 8.49906C10.0919 8.65896 10.031 8.8129 9.92131 8.9293C9.81167 9.04569 9.66164 9.11571 9.502 9.125H2.502C2.33615 9.125 2.17707 9.05918 2.0597 8.942C1.94234 8.82482 1.87626 8.66585 1.876 8.5ZM1.876 11.5C1.876 11.155 2.155 10.875 2.5 10.875H6.5C6.65966 10.8838 6.80992 10.9533 6.91993 11.0694C7.02995 11.1854 7.09139 11.3392 7.09164 11.4991C7.0919 11.659 7.03095 11.8129 6.92131 11.9293C6.81167 12.0457 6.66164 12.1157 6.502 12.125H2.502C2.33615 12.125 2.17707 12.0592 2.0597 11.942C1.94234 11.8248 1.87626 11.6659 1.876 11.5ZM3.956 4.634C3.256 4.634 2.617 4.897 2.134 5.33C1.847 5.587 2.071 6 2.456 6H5.454C5.84 6 6.064 5.587 5.777 5.33C5.27659 4.88074 4.62849 4.63279 3.956 4.634Z" fill="white"/>
</svg>
