<svg width="16" height="16" viewBox="0 0 16 16" fill="none" xmlns="http://www.w3.org/2000/svg">
<path d="M8 1C9.85652 1 11.637 1.7375 12.9497 3.05025C14.2625 4.36301 15 6.14348 15 8C15 9.85652 14.2625 11.637 12.9497 12.9497C11.637 14.2625 9.85652 15 8 15C6.14348 15 4.36301 14.2625 3.05025 12.9497C1.7375 11.637 1 9.85652 1 8C1 6.14348 1.7375 4.36301 3.05025 3.05025C4.36301 1.7375 6.14348 1 8 1ZM8 6.25C8.09849 6.25 8.19602 6.2306 8.28701 6.19291C8.37801 6.15522 8.46069 6.09997 8.53033 6.03033C8.59997 5.96069 8.65522 5.87801 8.69291 5.78701C8.7306 5.69602 8.75 5.59849 8.75 5.5C8.75 5.40151 8.7306 5.30398 8.69291 5.21299C8.65522 5.12199 8.59997 5.03931 8.53033 4.96967C8.46069 4.90003 8.37801 4.84478 8.28701 4.80709C8.19602 4.7694 8.09849 4.75 8 4.75C7.80135 4.75 7.61084 4.82891 7.47038 4.96938C7.32991 5.10984 7.251 5.30035 7.251 5.499C7.251 5.69765 7.32991 5.88816 7.47038 6.02862C7.61084 6.16909 7.80135 6.248 8 6.248M8.5 7.498C8.5 7.36539 8.44732 7.23821 8.35355 7.14445C8.25979 7.05068 8.13261 6.998 8 6.998C7.86739 6.998 7.74021 7.05068 7.64645 7.14445C7.55268 7.23821 7.5 7.36539 7.5 7.498V10.498C7.5 10.6306 7.55268 10.7578 7.64645 10.8516C7.74021 10.9453 7.86739 10.998 8 10.998C8.13261 10.998 8.25979 10.9453 8.35355 10.8516C8.44732 10.7578 8.5 10.6306 8.5 10.498V7.498Z" fill="black"/>
</svg>
