<svg width="13" height="18" viewBox="0 0 13 18" fill="none" xmlns="http://www.w3.org/2000/svg">
<path d="M3.25326 14.1429H9.74688V15.4286H3.25326V14.1429ZM4.55199 16.7143H8.44816V18H4.55199V16.7143ZM6.50007 0C4.77786 0 3.12618 0.677294 1.90839 1.88288C0.690598 3.08848 0.00645066 4.72361 0.00645066 6.42857C-0.0374629 7.36286 0.143319 8.29412 0.533925 9.14574C0.92453 9.99735 1.5138 10.745 2.25324 11.3271C2.90261 11.925 3.25326 12.2657 3.25326 12.8571H4.55199C4.55199 11.6743 3.83119 11.0121 3.12988 10.3757C2.52296 9.9156 2.03926 9.31518 1.72114 8.62704C1.40303 7.9389 1.2602 7.18404 1.30517 6.42857C1.30517 5.0646 1.85249 3.7565 2.82672 2.79202C3.80096 1.82755 5.1223 1.28571 6.50007 1.28571C7.87784 1.28571 9.19919 1.82755 10.1734 2.79202C11.1477 3.7565 11.695 5.0646 11.695 6.42857C11.7392 7.1846 11.5954 7.93982 11.2761 8.628C10.9568 9.31618 10.4719 9.91629 9.86377 10.3757C9.16895 11.0186 8.44816 11.6614 8.44816 12.8571H9.74688C9.74688 12.2657 10.091 11.925 10.7469 11.3207C11.4858 10.7396 12.0748 9.99302 12.4654 9.14252C12.856 8.29202 13.0371 7.36186 12.9937 6.42857C12.9937 5.58436 12.8257 4.74841 12.4994 3.96846C12.1731 3.18851 11.6947 2.47983 11.0918 1.88288C10.4888 1.28594 9.77291 0.812412 8.98507 0.489346C8.19723 0.16628 7.35283 0 6.50007 0Z" fill="black"/>
</svg>
